<svg width="139" height="32" viewBox="0 0 139 32" fill="none" xmlns="http://www.w3.org/2000/svg">
<path d="M29.6367 19.9168L26.1446 17.9664L18.3674 22.5378C17.8486 22.835 17.2802 22.9893 16.7045 22.9893C16.1288 22.9893 15.5605 22.835 15.0416 22.5378L4.80849 16.9302L1.26527 19.0026C0.901914 19.2363 0.598383 19.5828 0.386839 20.0053C0.175295 20.4278 0.0635986 20.9106 0.0635986 21.4026C0.0635986 21.8945 0.175295 22.3773 0.386839 22.7998C0.598383 23.2223 0.901914 23.5688 1.26527 23.8025L14.9777 31.3454C15.4946 31.6503 16.0637 31.8089 16.6406 31.8089C17.2174 31.8089 17.7865 31.6503 18.3035 31.3454L29.5727 24.6864C29.9331 24.4571 30.2354 24.1171 30.4482 23.7017C30.6611 23.2863 30.7768 22.8106 30.7833 22.324C30.7898 21.8374 30.6869 21.3576 30.4853 20.9343C30.2837 20.511 29.9907 20.1597 29.6367 19.9168Z" fill="url(#paint0_linear_59_742)"/>
<path d="M12.8106 0.451521C13.3298 0.154329 13.8985 0 14.4745 0C15.0506 0 15.6193 0.154329 16.1384 0.451521L29.6544 8.07057C30.0148 8.30556 30.3155 8.65164 30.525 9.07255C30.7345 9.49345 30.845 9.97369 30.845 10.4629C30.845 10.9522 30.7345 11.4324 30.525 11.8533C30.3155 12.2742 30.0148 12.6203 29.6544 12.8553L18.3783 19.5144C17.861 19.8193 17.2916 19.9779 16.7144 19.9779C16.1372 19.9779 15.5678 19.8193 15.0505 19.5144L1.32973 11.8953C0.965764 11.6638 0.661439 11.319 0.449257 10.8976C0.237075 10.4763 0.125 9.99421 0.125 9.50293C0.125 9.01165 0.237075 8.52962 0.449257 8.10826C0.661439 7.6869 0.965764 7.34206 1.32973 7.11056L12.8106 0.451521Z" fill="url(#paint1_linear_59_742)"/>
<path d="M45.8825 5.9659C43.6734 5.9659 41.8825 7.75676 41.8825 9.9659V26.3049H46.2757V19.2812H51.0757C55.0079 19.2812 57.991 16.3795 57.991 12.6371C57.991 8.8676 55.0079 5.9659 51.0757 5.9659H45.8825ZM46.2757 15.2405V10.0066H50.8588C52.4588 10.0066 53.5978 11.0642 53.5978 12.61C53.5978 14.1557 52.4588 15.2405 50.8588 15.2405H46.2757Z" fill="#2F2F2F"/>
<path d="M69.7475 13.5591C68.8798 12.61 67.6865 12.1218 66.2492 12.1218C62.4798 12.1218 59.3069 15.4303 59.3069 19.3896C59.3069 23.3218 62.4526 26.6303 66.2492 26.6303C67.7136 26.6303 68.8798 26.1422 69.7475 25.193V26.3049H73.7611V14.4269C73.7611 13.3186 72.8626 12.4201 71.7543 12.4201H70.8865C70.2575 12.4201 69.7475 12.9301 69.7475 13.5591ZM66.7374 22.7252C64.9204 22.7252 63.4289 21.2066 63.4289 19.3625C63.4289 17.5184 64.9204 15.9998 66.7374 15.9998C67.9577 15.9998 69.0425 16.6778 69.6391 17.7083V21.0168C69.0425 22.0473 67.9577 22.7252 66.7374 22.7252Z" fill="#2F2F2F"/>
<path d="M85.0463 12.2574H84.9649C83.2293 12.2574 81.792 12.8812 80.8429 14.0473C80.8429 13.1486 80.1144 12.4201 79.2158 12.4201H78.8497C77.7488 12.4201 76.8564 13.3125 76.8564 14.4134V26.3049H80.9785V18.2235C81.6022 16.9761 83.1208 16.2981 85.3446 16.2981H85.4259L85.0463 12.2574Z" fill="#2F2F2F"/>
<path d="M96.8397 13.5591C95.9719 12.61 94.7787 12.1218 93.3414 12.1218C89.5719 12.1218 86.399 15.4303 86.399 19.3896C86.399 23.3218 89.5448 26.6303 93.3414 26.6303C94.8058 26.6303 95.9719 26.1422 96.8397 25.193V26.3049H100.853V14.4269C100.853 13.3186 99.9548 12.4201 98.8465 12.4201H97.9787C97.3496 12.4201 96.8397 12.9301 96.8397 13.5591ZM93.8295 22.7252C92.0126 22.7252 90.5211 21.2066 90.5211 19.3625C90.5211 17.5184 92.0126 15.9998 93.8295 15.9998C95.0499 15.9998 96.1346 16.6778 96.7312 17.7083V21.0168C96.1346 22.0473 95.0499 22.7252 93.8295 22.7252Z" fill="#2F2F2F"/>
<path d="M108.071 26.3049V7.21336C108.071 6.07509 107.148 5.15234 106.01 5.15234C104.871 5.15234 103.949 6.07509 103.949 7.21336V26.3049H108.071Z" fill="#2F2F2F"/>
<path d="M115.248 26.3049V7.21336C115.248 6.07509 114.325 5.15234 113.187 5.15234C112.048 5.15234 111.126 6.07509 111.126 7.21336V26.3049H115.248Z" fill="#2F2F2F"/>
<path d="M131.97 19.4168C131.97 15.4032 128.879 12.1218 124.811 12.1218C120.77 12.1218 117.57 15.349 117.57 19.3625C117.57 23.4574 120.852 26.6032 125.163 26.6032C127.604 26.6032 129.665 25.6269 130.994 23.9456L128.146 21.5049C127.496 22.5083 126.411 23.0778 125.028 23.0778C123.374 23.0778 122.18 22.2371 121.719 20.854H131.78C131.889 20.393 131.97 19.9049 131.97 19.4168ZM124.811 15.6744C126.33 15.6744 127.414 16.4879 127.875 17.8168H121.746C122.207 16.4879 123.319 15.6744 124.811 15.6744Z" fill="#2F2F2F"/>
<path d="M138.394 26.3049V7.21336C138.394 6.07509 137.471 5.15234 136.333 5.15234C135.194 5.15234 134.272 6.07509 134.272 7.21336V26.3049H138.394Z" fill="#2F2F2F"/>
<defs>
<linearGradient id="paint0_linear_59_742" x1="30.7777" y1="22.7839" x2="0.0705866" y2="22.7839" gradientUnits="userSpaceOnUse">
<stop stop-color="#EF18AC"/>
<stop offset="1" stop-color="#FAD972"/>
</linearGradient>
<linearGradient id="paint1_linear_59_742" x1="26.9416" y1="15.0895" x2="0.130607" y2="15.0895" gradientUnits="userSpaceOnUse">
<stop stop-color="#5314F1"/>
<stop offset="1" stop-color="#04E2FF"/>
</linearGradient>
</defs>
</svg>
