<?xml version="1.0" encoding="utf-8"?>
<!-- Generator: Adobe Illustrator 26.0.3, SVG Export Plug-In . SVG Version: 6.00 Build 0)  -->
<svg version="1.0" id="Layer_1" xmlns="http://www.w3.org/2000/svg" xmlns:xlink="http://www.w3.org/1999/xlink" x="0px" y="0px"
	 viewBox="0 0 902.5 623.6" style="enable-background:new 0 0 902.5 623.6;" xml:space="preserve">
<style type="text/css">
	.st0{fill:#72C7FB;}
	.st1{fill:#011627;}
	.st2{fill:#1BA5F8;}
</style>
<g>
	<path class="st0" d="M131.7,375.3l27.6-33.9c2.7-3.1,7.3-3.4,10.4-0.8c0.3,0.2,0.5,0.5,0.8,0.8l27.6,33.9c1.9,2.4,1.9,6.3,0,9.2
		l-27.6,33.9c-2.7,3.1-7.3,3.4-10.4,0.7c-0.3-0.2-0.5-0.5-0.7-0.7l-27.6-33.9C129.8,381.6,129.8,377.7,131.7,375.3z"/>
	<path class="st1" d="M337.3,311.3c2.4,2.4,3.4,5.8,3.4,11.1c0,11.2-6.8,17-20.8,17c-5.6,0-11.1-0.7-16.5-1.9L300,337l0.5-11.6
		c8.7,1,14.5,1.5,17.9,1.5c2.3,0.1,4.6-0.2,6.8-1c1.6-0.7,2.4-2.5,1.7-4.1c-0.3-0.8-0.9-1.4-1.7-1.7c-1.5-1-4.9-1.5-10.2-2.4
		c-5.3-0.5-9.7-1.9-12.1-4.4s-3.9-6.3-3.9-11.6c0-5.8,1.9-9.7,5.8-12.6s8.7-4.4,14.5-4.4c5.7,0.1,11.4,0.7,17,1.9l3.4,0.5v11.6
		c-8.2-1-14.5-1.5-17.9-1.5c-2.3-0.1-4.6,0.2-6.8,1c-1,0.6-1.6,1.7-1.5,2.9c-0.2,1.3,0.7,2.6,1.9,2.9c1.5,0.5,4.9,1,10.7,1.9
		C332,306.9,335.9,308.9,337.3,311.3z M373.2,306c-3.6-0.6-7.2-1.4-10.7-2.4c-1.3-0.4-2.1-1.6-1.9-2.9c-0.1-1.2,0.4-2.3,1.5-2.9
		c2.2-0.8,4.5-1.1,6.8-1c6,0.2,12,0.7,17.9,1.5v-11.6l-3.4-0.5c-5.6-1.2-11.3-1.9-17-1.9c-5.8,0-10.7,1.5-14.5,4.4
		c-3.9,2.9-5.8,6.8-5.8,12.6c0,5.3,1.5,9.2,3.9,11.6c3.6,2.6,7.8,4.1,12.1,4.4c5.3,1,8.7,1.5,10.2,2.4c1.6,0.7,2.4,2.5,1.7,4.1
		c-0.3,0.8-0.9,1.4-1.7,1.7c-2.2,0.8-4.5,1.1-6.8,1c-3.4,0-9.2-0.5-17.9-1.5l-0.5,11.6l3.4,0.5c5.4,1.3,10.9,1.9,16.5,1.9
		c14.1,0,20.8-5.8,20.8-17c0-5.3-1-8.7-3.4-11.1C382.9,308.9,379,306.9,373.2,306z M417.3,325.8h-2.9l-8.2-40.2h-14.6l12.1,52.4
		h23.8l12.6-52.4h-14.1L417.3,325.8z M495.9,284.6c-5.7,0-11.3,1.7-16,4.8v-3.9h-7.8V338h7.8v-42.2l1.9-1c1.9-0.8,3.8-1.4,5.8-1.9
		c2.4-0.6,4.8-0.9,7.3-1c4.8,0,7.8,1.5,9.2,3.9c1.5,2.4,2.4,7.8,2.4,15v27.2h7.7v-27.5c0-9.7-1.5-16.5-3.9-19.9
		C507.5,286.6,502.7,284.6,495.9,284.6z M561.8,290.9c3.4,3.9,5.3,10.2,5.3,18.4l-0.5,5.8h-34.4c0,5.3,1,9.7,2.9,12.6
		c1.9,2.9,5.3,4.4,10.7,4.4s10.7,0,16-0.5l2.9-0.5v6.3c-6.8,0.9-13.6,1.4-20.4,1.5c-7.8,0-13.1-1.9-16-6.3
		c-3.4-4.4-4.9-11.1-4.9-20.4c0-18.4,7.3-27.6,21.8-27.6C552.1,284.6,557.4,286.6,561.8,290.9z M558.4,308.4c0-6.3-1-11.2-2.9-13.6
		c-2.4-2.4-5.3-3.9-10.2-3.9s-8.2,1.5-10.7,4.4c-1.9,2.9-3.4,7.3-3.4,13.1H558.4z M593.8,332.1c-3.4,0-5.3-1-6.3-2.9
		c-1-1.9-1.5-5.8-1.5-11.6v-24.7h16.5v-6.8h-16.5v-16h-7.8v16H571v6.8h7.3v27.6c0,7.3,1,12.6,2.9,15c1.9,2.4,5.8,3.9,11.2,3.9
		c2.4,0,5.8-0.5,10.7-1l-0.5-6.3L593.8,332.1z M661.2,331.1h-1.9l-12.6-44.6h-7.8l-12.6,44.6h-1.5l-10.7-45.6h-7.8l12.1,52.4h13.1
		l11.2-40.7l11.2,40.7H667l12.1-52.4h-7.8L661.2,331.1z M723.7,290.9c3.4,4.4,5.3,11.2,5.3,20.9s-1.5,16.5-4.8,20.8
		c-2.9,4.4-8.7,6.3-17.5,6.3c-8.2,0-14.1-1.9-17.5-6.3s-4.8-11.1-4.8-20.8s1.9-16.5,5.3-20.9c3.9-4.4,9.2-6.3,17.5-6.3
		S721.3,286.6,723.7,290.9L723.7,290.9z M720.8,311.8c0-7.3-1-12.6-2.9-15.5c-1.9-2.9-5.8-4.4-11.2-4.4s-9.2,1.5-11.2,4.4
		c-1.9,2.4-2.9,7.8-2.9,15.5c0,7.8,1,13.1,2.9,16c1.9,2.9,5.8,4.4,11.6,4.4s9.7-1.5,11.6-4.4C720.8,324.4,720.8,319.1,720.8,311.8z
		 M748,285.6h-7.7V338h7.8v-38.3l2.4-1.5c2.3-1.3,4.7-2.3,7.3-2.9c3-1,6.1-1.8,9.2-2.4v-7.8c-6.8,1.3-13.3,4.1-18.9,8.2L748,285.6z
		 M797,309.8l17-24.2h-8.7l-15,21.3l-7.8,0.5v-44.6h-7.8v75.2h7.8v-23.7l8.2-0.5l15.5,24.2h8.7L797,309.8z"/>
	<path class="st2" d="M213.2,258.5c-2.7-3.1-7.3-3.4-10.4-0.8c-0.3,0.2-0.5,0.5-0.8,0.8l-27.6,33.9c-1.9,2.4-1.9,6.3,0,9.2
		l27.6,33.9c2.7,3.1,7.3,3.4,10.4,0.7c0.3-0.2,0.5-0.5,0.7-0.7l27.6-33.9c1.9-2.4,1.9-6.3,0-9.2L213.2,258.5z M127.9,258.5
		c-2.7-3.1-7.3-3.4-10.4-0.8c-0.3,0.2-0.5,0.5-0.8,0.8l-27.6,33.9c-1.9,2.4-1.9,6.3,0,9.2l27.6,33.9c2.7,3.1,7.3,3.4,10.4,0.7
		c0.3-0.2,0.5-0.5,0.7-0.7l27.6-33.9c1.9-2.4,1.9-6.3,0-9.2L127.9,258.5z M198.2,239.1l-27.6-33.9c-2.7-3.1-7.3-3.4-10.4-0.7
		c-0.3,0.2-0.5,0.5-0.7,0.7l-27.6,33.9c-1.9,2.4-1.9,6.3,0,9.2l27.6,33.9c2.7,3.1,7.3,3.4,10.4,0.8c0.3-0.2,0.5-0.5,0.8-0.8
		l27.6-33.9C200.1,245.8,200.1,242,198.2,239.1L198.2,239.1z M458.5,321h-12.1c-1,0.1-1.9,0.9-1.9,1.9v13.6c0.1,1,0.9,1.9,1.9,1.9
		h12.1c1-0.1,1.9-0.9,1.9-1.9v-13.6c0.1-1-0.6-1.8-1.6-1.9C458.8,321,458.7,321,458.5,321L458.5,321z"/>
</g>
</svg>
