<?xml version="1.0" encoding="utf-8"?>
<!-- Generator: Adobe Illustrator 26.5.1, SVG Export Plug-In . SVG Version: 6.00 Build 0)  -->
<svg version="1.1" id="a" xmlns="http://www.w3.org/2000/svg" xmlns:xlink="http://www.w3.org/1999/xlink" x="0px" y="0px"
	 viewBox="0 0 1159.2 300" style="enable-background:new 0 0 1159.2 300;" xml:space="preserve">
<g>
	<g>
		<path d="M466.7,161.3h-36.9v38.1h-19.2v-93.2h60.7v15.6h-41.5v24.1h36.9V161.3z"/>
		<path d="M519.5,147.4c-2.5-0.3-4.7-0.5-6.7-0.5c-7,0-11.6,2.4-13.8,7.1v45.3h-18.5v-69.3h17.5l0.5,8.3c3.7-6.4,8.9-9.5,15.4-9.5
			c2,0,4,0.3,5.8,0.8L519.5,147.4z"/>
		<path d="M567.7,199.3c-0.9-1.7-1.5-3.7-1.9-6.2c-4.5,5-10.3,7.5-17.5,7.5c-6.8,0-12.4-2-16.9-5.9c-4.5-3.9-6.7-8.9-6.7-14.9
			c0-7.3,2.7-13,8.2-16.9c5.4-3.9,13.3-5.9,23.6-6h8.5v-4c0-3.2-0.8-5.8-2.5-7.7s-4.2-2.9-7.8-2.9c-3.1,0-5.6,0.8-7.3,2.2
			c-1.8,1.5-2.7,3.5-2.7,6.1h-18.5c0-4,1.2-7.7,3.7-11.1c2.5-3.4,6-6.1,10.5-8c4.5-1.9,9.6-2.9,15.2-2.9c8.5,0,15.3,2.1,20.3,6.4
			c5,4.3,7.5,10.3,7.5,18.1v30c0,6.6,1,11.5,2.7,14.9v1.1H567.7z M552.4,186.5c2.7,0,5.2-0.6,7.6-1.8s4-2.9,5.1-4.9v-11.9h-6.9
			c-9.3,0-14.2,3.2-14.8,9.6l-0.1,1.1c0,2.3,0.8,4.2,2.4,5.7C547.3,185.7,549.6,186.5,552.4,186.5z"/>
		<path d="M625.3,150.8l11.7-20.7h19.8L637,164l20.6,35.3h-19.8l-12.4-21.8L613,199.3h-19.9l20.6-35.3L594,130.1h19.8L625.3,150.8z"
			/>
		<path d="M757.7,161.3h-36.9v38.1h-19.2v-93.2h60.7v15.6h-41.5v24.1h36.9V161.3z"/>
		<path d="M773.1,112.1c0-2.8,0.9-5.1,2.8-6.9c1.9-1.8,4.4-2.7,7.6-2.7c3.2,0,5.7,0.9,7.6,2.7c1.9,1.8,2.8,4.1,2.8,6.9
			c0,2.8-1,5.1-2.9,6.9c-1.9,1.8-4.4,2.7-7.5,2.7c-3.1,0-5.6-0.9-7.5-2.7C774.1,117.3,773.1,115,773.1,112.1z M792.8,199.3h-18.6
			v-69.3h18.6V199.3z"/>
		<path d="M826.1,130.1l0.6,8c4.9-6.2,11.6-9.3,19.9-9.3c7.3,0,12.8,2.2,16.4,6.5c3.6,4.3,5.4,10.8,5.5,19.3v44.8H850V155
			c0-3.9-0.9-6.8-2.6-8.5c-1.7-1.8-4.5-2.7-8.5-2.7c-5.2,0-9.1,2.2-11.7,6.7v48.9h-18.5v-69.3H826.1z"/>
		<path d="M923.7,199.3c-0.9-1.7-1.5-3.7-1.9-6.2c-4.5,5-10.3,7.5-17.5,7.5c-6.8,0-12.4-2-16.9-5.9c-4.5-3.9-6.7-8.9-6.7-14.9
			c0-7.3,2.7-13,8.2-16.9c5.4-3.9,13.3-5.9,23.6-6h8.5v-4c0-3.2-0.8-5.8-2.5-7.7c-1.6-1.9-4.2-2.9-7.8-2.9c-3.1,0-5.6,0.8-7.3,2.2
			c-1.8,1.5-2.7,3.5-2.7,6.1h-18.5c0-4,1.2-7.7,3.7-11.1c2.5-3.4,6-6.1,10.5-8c4.5-1.9,9.6-2.9,15.2-2.9c8.5,0,15.3,2.1,20.3,6.4
			c5,4.3,7.5,10.3,7.5,18.1v30c0,6.6,1,11.5,2.8,14.9v1.1H923.7z M908.4,186.5c2.7,0,5.2-0.6,7.6-1.8s4-2.9,5.1-4.9v-11.9h-6.9
			c-9.3,0-14.2,3.2-14.8,9.6l-0.1,1.1c0,2.3,0.8,4.2,2.4,5.7C903.3,185.7,905.6,186.5,908.4,186.5z"/>
		<path d="M971.9,130.1l0.6,8c5-6.2,11.6-9.3,19.9-9.3c7.3,0,12.8,2.2,16.4,6.5c3.6,4.3,5.4,10.8,5.5,19.3v44.8h-18.5V155
			c0-3.9-0.9-6.8-2.6-8.5c-1.7-1.8-4.5-2.7-8.5-2.7c-5.2,0-9.1,2.2-11.7,6.7v48.9h-18.5v-69.3H971.9z"/>
		<path d="M1058.2,185.7c3.4,0,6.2-0.9,8.3-2.8c2.1-1.9,3.2-4.4,3.3-7.5h17.4c0,4.7-1.3,9-3.8,12.9c-2.5,3.9-6,6.9-10.3,9.1
			c-4.4,2.2-9.2,3.2-14.5,3.2c-9.9,0-17.7-3.1-23.4-9.4c-5.7-6.3-8.6-15-8.6-26.1v-1.2c0-10.7,2.8-19.2,8.5-25.5
			c5.7-6.4,13.5-9.5,23.4-9.5c8.7,0,15.6,2.5,20.8,7.4c5.2,4.9,7.9,11.5,8,19.7h-17.4c-0.1-3.6-1.2-6.5-3.3-8.8
			c-2.1-2.3-4.9-3.4-8.4-3.4c-4.3,0-7.6,1.6-9.8,4.7s-3.3,8.2-3.3,15.3v1.9c0,7.1,1.1,12.3,3.3,15.4
			C1050.4,184.1,1053.7,185.7,1058.2,185.7z"/>
		<path d="M1130.7,200.6c-10.2,0-18.4-3.1-24.8-9.3c-6.4-6.2-9.6-14.5-9.6-24.9v-1.8c0-7,1.3-13.2,4-18.7c2.7-5.5,6.5-9.7,11.4-12.7
			c4.9-3,10.6-4.4,16.9-4.4c9.5,0,16.9,3,22.4,9c5.4,6,8.2,14.5,8.2,25.4v7.6H1115c0.6,4.5,2.4,8.2,5.4,10.9c3,2.7,6.8,4.1,11.4,4.1
			c7.1,0,12.7-2.6,16.7-7.7l9.1,10.2c-2.8,3.9-6.5,7-11.3,9.2C1141.7,199.5,1136.4,200.6,1130.7,200.6z M1128.6,143.7
			c-3.7,0-6.6,1.2-8.9,3.7c-2.3,2.5-3.7,6-4.4,10.7h25.7v-1.5c-0.1-4.1-1.2-7.3-3.3-9.6C1135.5,144.8,1132.5,143.7,1128.6,143.7z"/>
	</g>
	<path d="M21.8,19.2C11.9,29.6,3.7,38.4,3.6,38.5c-0.1,0.2,8.8,9,19.8,19.4c11,10.5,20.6,19.7,21.3,20.3l1.2,1.2l-2.2,3.7
		c-19.6,32.4-23.6,71.4-11.3,107.3c2.3,6.8,6.3,15.5,9.7,21.2c1.7,2.8,2.4,4.6,2.2,5c-0.2,0.3-10.2,10.9-22.2,23.6
		C10,252.7,0.2,263.2,0,263.4c-0.1,0.2,33.7,32.9,37,35.6l1.2,1.1l19.1-19.9c10.5-11,20.3-21.3,21.8-22.9l2.8-2.8l2.6,1.7
		c13.5,8.6,29.3,14.6,46.7,17.7c8.8,1.6,25.5,2,34.8,0.8c18-2.1,35.9-8.1,50.5-17l3.8-2.3l4.1,4c8.8,8.6,41.9,40,42.3,40.2
		s36.6-37.8,36.5-38.3c-0.1-0.2-25-24.1-40.2-38.5l-5-4.8l2.3-3.8c19.4-32.3,23.5-71.5,10.9-107.7c-1.8-5.3-7.4-17.2-10.6-22.7
		l-1.6-2.7l21.3-22.2c11.7-12.2,21.2-22.3,21.1-22.6c-0.3-0.8-37.5-36-38-36c-0.3,0-9.7,9.5-20.8,21.3
		c-11.2,11.7-20.4,21.3-20.7,21.3c-0.2,0.1-1.2-0.4-2.2-1.2c-2.8-1.9-9.9-5.8-13.9-7.6c-12.1-5.5-23.3-8.9-36.4-10.8
		c-6.8-1-27.1-1.2-33.4-0.2c-15,2.1-27.4,5.9-39.9,12.2c-3.6,1.7-7.9,4.1-9.5,5l-3,1.8l-3.4-3.3c-1.8-1.8-10.1-9.6-18.3-17.4
		C53.7,13.5,45.4,5.5,43.4,3.6L39.8,0L21.8,19.2C21.8,19.2,21.8,19.2,21.8,19.2z M160.7,73.1c13.1,1.6,24.9,6,35.7,13.6
		c5.5,3.9,13.8,12.2,17.7,17.7c22.1,31.3,17.9,73.8-9.9,99.8c-23.7,22.2-58,27.1-86.9,12.4C96.4,206,81.7,186.5,77,163.1
		c-1.5-7.4-1.5-21.3,0-28.7c1.4-7.3,3.3-12.5,6.9-19.8C98.1,86,128.9,69.3,160.7,73.1L160.7,73.1C160.7,73.1,160.7,73.1,160.7,73.1z
		"/>
</g>
</svg>
