<?xml version="1.0" encoding="utf-8"?>
<!-- Generator: Adobe Illustrator 25.0.1, SVG Export Plug-In . SVG Version: 6.00 Build 0)  -->
<svg version="1.0" id="Layer_1" xmlns="http://www.w3.org/2000/svg" xmlns:xlink="http://www.w3.org/1999/xlink" x="0px" y="0px"
	 viewBox="0 0 892 640" style="enable-background:new 0 0 892 640;" xml:space="preserve">
<style type="text/css">
	.st0{fill:#005ADC;}
	.st1{fill:none;}
</style>
<path class="st0" d="M532.6,136.4c2.6-2.2,5.9-5.8,9.6-3.7c13.4,8.6,25.9,18.3,37.6,29c7.8,7.2,15,15,22.6,22.4
	c0,1.8,0.2,3.8-1.1,5.2c-14,20-30.8,37.9-48.7,54.5c-1.9,1.5-3.9,2.8-6.1,3.8c-2.6-0.8-5-2-7.3-3.4c-10.8-7.4-21.2-15.4-31.2-24
	c-8.8-7.7-18-15.1-25.1-24.5c-3.5-3.6,1.2-7.5,3.1-10.6C500.1,167.6,515.7,151.3,532.6,136.4 M551.9,177.3
	c-6.8,6.2-13.2,12.7-20.4,18.5c-2,1.5-3.8,3.6-6.4,4c-2.5-6.1-2.3-12.8-1.6-19.2c2,0.3,4,0.9,5.9,1.8c-2,2.9-7.7,6-4.2,10
	c2.4-2.3,4.7-4.6,7-7c1.4,0.8,2.8,1.6,4.1,2.4c1.1-1.3,2.9-2.5,2.1-4.4c-4.6-3.7-9.7-6.7-15.1-9.1c-1.6-0.9-3.5-0.5-5.2-0.3
	c-0.7,4.3-1.6,8.7-0.9,13.1c1,7,0.4,14.5,3.9,20.9c6.1-1.4,10-6.8,14.6-10.6c7-6,12.9-13.2,20.5-18.4l3,0.6c1.3,5.9,2.8,12.3,0.2,18
	c-3.8-0.8-6.7-3.4-9.8-5.6c-2.1-1.7-6.5-0.4-4.5,2.9c5.6,4,11.5,7.5,17.8,10.2l3.1-2c0.6-10.8,0.4-21.9-2.9-32.2
	c-4.9-0.7-8,3.5-11.2,6.4 M144.9,152.3c4.6-2.2,9.4-4.8,14.7-4c6.7,10.8,15.7,19.9,22.5,30.7c-8.5,5.9-15.2,14.7-16.3,25.2
	c0.8,4,1.9,8.4,5.2,11.1c7.5,6.1,16.8,9.2,26,11.9c27.5,7.6,55.8,12.4,83.4,19.7l1.6,2.5c-2.8,63.2-4.2,126.5-5.2,189.9
	c-4.8,2.2-10.2,0.9-15.3,1.4c-15.7-0.2-31.4,2.3-47.1,1.2c-3.1-11.8-5.7-23.7-8.9-35.4c-10.3-3.8-20.6-7.7-31.1-11h-2.8
	c-8.9,15-16.8,30.6-26.2,45.4c-15,0.2-29.9-0.2-44.9,0.3c-6.9,0.6-15.2,2.4-20.8-2.9c-1.4-1.6-5-2.9-3.8-5.5
	c11-25.4,22.7-50.6,34.1-75.8c11.6-26.6,23.1-53.3,33.8-80.3c1.6-3.6,2.3-7.9,0.8-11.7c-2.1-6.2-7.4-10.6-12.6-14.4
	c-12-8.9-24.7-16.9-36.5-26.1c0.3-3.2,2.2-5.8,3.4-8.7c3.8-8.6,7.4-17.4,12.2-25.6c5.4-1.2,8.4,4,11.8,7.1
	c-0.7-14.2,4.1-28.2,13.2-39.1C138.2,155.2,141.7,153.9,144.9,152.3 M195.2,296c-2.8,4.8-4.4,10.2-6.3,15.3
	c-2.5,7.6-5.8,15-7.9,22.8c-0.8,2-0.2,4,0.6,5.8c9.5,3.6,19.2,6.9,29.2,8.3c2.2-1.6,4.6-3.1,6.9-4.5c2.3-14.8,0.5-29.7-0.1-44.5
	l-1.9-2.8c-4.1-0.7-8.1-2-12.1-3C200.5,292.9,196.9,293,195.2,296 M703.4,194.6c8.5-3.2,16.7-7,25.4-9.7c2.6-0.3,6-1.5,8.2,0.6
	c0.8,3.1,1.4,6.2,1.6,9.3c1,14,2.5,27.9,4.2,41.7c0.6,2.8-2.6,4-4.4,5.2c-12.7,7.1-22.7,18.2-30.2,30.5c-2.2,3.2-3.5,7.1-7.1,9
	c-8.6-3-16.5-8.8-25.7-10c-3.5,2.1-3.3,7.1-3.7,10.7c-0.8,7.8,3,15.2,8.5,20.5c1.8,1.5,4,3.8,6.6,2.9c5.8-3.9,10-9.7,14.7-14.8
	c1.7-2.3,5.1-1.9,7.3-0.6c4.7,2.6,9.6,4.9,14.5,7c8.2,3.2,17,4.1,25.6,5.5c3,0.4,6.2,0.4,9,1.8c-0.7,8.7-2.8,17.2-3,26
	c-0.2,2.4-0.6,4.7-1.4,6.9c-8,4.1-16.5,6.8-24.8,10.2c-2.2,1-4.5,1.9-6.7,2.7c-5.2,2.2-10.5,4-15.6,6.4c0.6,2,1.4,4.1,2.1,6.1
	c0.6,1.8,1.1,3.6,1.5,5.4c10.2,1.6,20.7,1.2,31,1.7c17.8,0.4,35.6,1.5,53.5,1.1c3,0,6.1-0.4,9.1,0.1c3.8,3.4,8.5,6.5,10.3,11.5
	c-0.7,4.7-3,9-4.4,13.6c-1,2.2-1.9,4.5-2.7,6.8c-1,2.2-1.9,4.4-2.7,6.7c-2.6,5.9-5,11.9-7.4,17.9c-0.4,1.4-1.4,3.6,0.3,4.6
	c5.8,3.7,12.2,6.6,17.8,10.6c2.7,2.2,1.3,5.8-0.1,8.3c-2.2,3.2-6.2,4.1-9.7,5.3c-16.3,5.4-32.5,11.4-48.8,16.9
	c-4,1.3-8.3,2.9-12.4,1c-0.3-14.7,0.2-29.4,1.5-44.1c-21.6,0.1-43.2,2.1-64.7,3.9c-10.4,0.4-20.7,2.1-31.1,1.2
	c-2.1-1.2-2.7-3.7-3.4-5.8c-4.5-15.5-7.6-31.3-11.5-46.9c-3.8-16.1-8.2-32-12-48.1c-1.9-9-4-18-6.6-26.9
	c-4.1-20.8-9.1-41.5-13.9-62.1c-0.3-2.1-0.4-4.3-0.1-6.4c4.9-3.1,10-5.8,15.3-8.2c24-10.5,48.4-20.2,72.3-30.8
	C694.5,198.1,699,196.4,703.4,194.6 M395.6,299.9c20.6-16.3,40.6-33.5,61.2-49.7c15,14.3,31,27.8,43.8,44.2
	c-7.3,7.7-16.2,13.6-24.2,20.5c-9.8,8.1-19.2,16.6-29.4,24.3c-2.4,1.2-2.2,4.2-1.3,6.4c4.9,12.3,14.7,22,26,28.6
	c8.2,5,18.8,5,27.4,0.9c3.7-1.5,7-4.7,11.3-4.1c3,12.9,6.8,25.6,9.6,38.6c0.8,2.2-1.9,3.4-3.2,4.6c-13.2,9.1-25.8,19-39.3,27.7
	c-3.1,2.3-7.4,2.3-10.5-0.1c-15.4-10.4-30.6-21-45.1-32.5c-8-6.2-15.5-12.9-24-18.4c-11.1,10-21.6,20.6-32.7,30.5
	c-9.3,8.3-18.7,16.4-27.6,25.1c-5.4-3.4-9.5-8.3-14.2-12.5c-10.6-9.5-20.6-19.6-31.3-29c-2.1-2.3-7.1-5.4-3.5-8.6
	c14.6-16.6,29.9-32.6,44.6-49.1c-8.7-14.3-18-28.2-26.3-42.8c-3.7-6.8-8.6-12.9-11.5-20.1c17-10.7,34-21.4,51.6-31.1
	c6.1,4.2,10.2,10.5,15.5,15.6c9.6,9.6,18.4,19.9,28.3,29.2C392,299.5,393.9,301.2,395.6,299.9 M506,261.6
	c27.4-5.1,55.2-8.5,82.8-12.6c3.2,10.7,2,22.1,3.3,33.1c1.1,7.9,0.3,16,1.3,24c1.3,9.1,0.6,18.4,1.4,27.5c1.2,7.8,0.5,15.6,1.5,23.4
	c1.1,8.5,0,17.1,1.5,25.5c0.2,16.8,3,33.4,1.9,50.2c-2,0.1-4,0-6-0.1c-19.6-3.3-39.1-6.5-58.5-10.6c-2.8-0.4-4.3-3-4.6-5.7
	c-2.7-16.9-6.4-33.6-9.6-50.4c-0.6-3.5-1-7.4,1.2-10.5c10.4-18.1,15.3-40.4,8.8-60.6c-7,0.1-13.8-1-20.8-1.5
	C507.8,282.9,506.4,272.3,506,261.6 M479.6,316.7c0.7-2.4,3.2-3.8,5.6-3.2c5.4,7.1,6.2,16.2,6.8,24.8c-0.5,6.3-0.7,13.1-4.2,18.6
	c-1.7-0.2-3.7-0.1-4.4-2.1C477,343.4,474.8,329,479.6,316.7 M287.2,467.3c4.9-0.2,9.8-0.2,14.7,0.1c-0.1,13-0.2,26-0.1,39.1
	c-4.9,0.4-9.9,0.3-14.8,0.3C287.1,493.6,287.2,480.5,287.2,467.3 M315.6,467.2c3.8,0.2,7.9-0.7,11.5,0.5c4.8,6.7,8.5,14.2,13.6,20.8
	c0.4-7.1,0.2-14.2,0.3-21.3c4-0.1,8-0.1,11.9,0.2c-0.1,13.1,0,26.2,0.1,39.3c-3.9,0.1-7.8,0.1-11.7,0c-4.1-6.2-8.6-12.1-12.6-18.4
	c-0.4,6.2-0.7,12.3-0.6,18.5c-4.2,0-8.4,0-12.7,0c-0.2-0.9-0.6-2.7-0.8-3.7C316.1,491.3,315.1,479.2,315.6,467.2 M366.3,467.2
	c9.8,0,19.7,0,29.5,0c0,3.6,0,7.2,0,10.7c-5.7,0-11.4-0.1-17,0.2l0.1,5.4l9.2,0.2c0,2.6,0,5.1,0,7.7c-2.9-0.1-5.8-0.1-8.7-0.1
	c0.1,5.1,0.1,10.2,0.3,15.4c-4.7,0.6-9.5,0.2-14.2-0.1C366,493.4,366.5,480.3,366.3,467.2 M408.6,468.1c4.2-2.1,9.8-0.3,14.6-0.8
	c-0.1,13.1-0.2,26.3-0.2,39.5c-4.9,0.1-9.8,0.1-14.7-0.1C408.5,493.8,408.1,480.9,408.6,468.1 M437.1,467.2c4-0.2,7.9-0.1,11.9,0.5
	c3.3,6.7,8,12.5,11.7,19l2.1-0.1c-0.2-6.5,0-12.9,0-19.3c3.8,0,7.5,0,11.3,0c-0.1,13.1,0.2,26.2,0.6,39.2c-4.1,0.4-8.3,0.7-12.4-0.2
	c-3.1-5.5-7-10.5-10.8-15.6l-1.9-1c0,5.7,0,11.4-0.1,17.1c-4.5,0-8.9,0-13.3-0.1C436.6,493.5,436.4,480.3,437.1,467.2 M488,467.2
	c4.7,0,9.4,0,14,0c-0.1,13.2-0.1,26.3-0.1,39.5c-4.8,0-9.7,0.1-14.5-0.2C487.6,493.4,487.4,480.3,488,467.2 M516.2,467.3
	c12-1.4,24,0.1,36-0.2l1.8,0.2c-0.8,4.5-1.2,9-1,13.5c-4.1,0-8.2,0-12.2,0.1c-0.1,8.6-0.1,17.2-0.2,25.8h-6.2l-1,0.7
	c-2.5-0.1-5.1,0.2-7.4-1.1c0.8-8.5,1.3-17,1.5-25.5c-3.8,0-7.7,0.1-11.5,0.2c-0.7-2.9-0.7-5.9,0-8.8c-0.2-1.2-0.6-3.6-0.8-4.8
	L516.2,467.3 M559.9,467.2c4.8,0.3,9.9-1.2,14.6,0.2c3.5,3.4,6.1,7.7,9.4,11.3c1.8-3.8,3.6-7.6,5.4-11.3c5-0.2,10.1-0.2,15.2-0.1
	c-5.1,13.4-12.5,25.9-17.8,39.3c-4.8,2.3-10.5-1.6-15,1.5c-1.8-6.6,6.7-11.5,5.4-18.1C571.5,482.2,565.3,475,559.9,467.2
	L559.9,467.2z"/>
<rect x="46" y="108" class="st1" width="800" height="424"/>
</svg>
