<?xml version="1.0" encoding="UTF-8"?>
<svg xmlns:xodm="http://www.corel.com/coreldraw/odm/2003" xmlns="http://www.w3.org/2000/svg" xmlns:xlink="http://www.w3.org/1999/xlink" version="1.1" id="Layer_1" x="0px" y="0px" viewBox="0 0 2500 458" xml:space="preserve">
<g id="Layer_x0020_1">
	<g id="_1943296331712">
		<path fill="#161616" d="M2208.3,230.3c-13-8.6-27.3-14.7-40.9-22.3c-8.8-5-18.1-9.3-25.8-15.6c-13-10.7-10.3-31.6,3.3-40.7    c19.5-13,51.7-5.7,55.2,20.8c0,0.6,0.6,1,1.2,1h29.4c0.8,0,1.3-0.6,1.2-1.3c-1.5-18.3-8.6-33.5-21.6-43.2    c-12.4-9.3-26.5-14.3-41.6-14.3c-77.7,0-84.8,82.1-42.9,108c4.8,3,45.8,23.6,60.3,32.6c14.5,9,19.1,25.3,12.8,38.3    c-5.7,11.8-20.6,20-35.5,19c-16.2-1-28.8-9.7-33.2-23.4c-0.8-2.5-1.1-7.2-1.1-9.3c0-0.6-0.6-1.1-1.2-1.1h-31.9    c-0.6,0-1.2,0.6-1.2,1.1c0,23,5.7,35.8,21.4,47.4c14.7,11,30.7,15.6,47.3,15.6c43.5,0,66.1-24.6,70.6-50.1    C2238.1,267.7,2230.7,245.2,2208.3,230.3L2208.3,230.3z"></path>
		<path fill="#161616" d="M824.1,118.7H810h-15.5c-0.6,0-1,0.4-1.2,0.8l-26.1,86.1c-0.4,1.1-1.9,1.1-2.3,0l-26.2-86.1    c-0.2-0.6-0.6-0.8-1.1-0.8h-15.5h-14.1H689c-0.6,0-1.2,0.6-1.2,1.2v219.7c0,0.6,0.6,1.1,1.2,1.1h31.9c0.6,0,1.2-0.6,1.2-1.1v-167    c0-1.3,1.9-1.5,2.3-0.4l26.3,86.6l1.9,6.1c0.2,0.6,0.6,0.8,1.1,0.8h24.4c0.6,0,1-0.4,1.1-0.8l1.9-6.1l26.3-86.6    c0.4-1.3,2.3-1,2.3,0.4v167c0,0.6,0.6,1.1,1.1,1.1h31.9c0.6,0,1.1-0.6,1.1-1.1V119.9c0-0.6-0.6-1.2-1.1-1.2L824.1,118.7    L824.1,118.7z"></path>
		<path fill="#161616" d="M1720.2,118.7c-0.6,0-1,0.4-1.2,0.8l-26.1,86.1c-0.4,1.1-1.9,1.1-2.3,0l-26.2-86.1    c-0.2-0.6-0.6-0.8-1.2-0.8h-48.5c-0.6,0-1.2,0.6-1.2,1.2v219.7c0,0.6,0.6,1.1,1.2,1.1h31.9c0.6,0,1.2-0.6,1.2-1.1v-167    c0-1.3,1.9-1.5,2.3-0.4l26.3,86.6l1.9,6.1c0.2,0.6,0.6,0.8,1.2,0.8h24.4c0.6,0,1-0.4,1.1-0.8l1.9-6.1l26.4-86.6    c0.4-1.3,2.3-1,2.3,0.4v167c0,0.6,0.6,1.1,1.1,1.1h31.9c0.6,0,1.2-0.6,1.2-1.1V119.9c0-0.6-0.6-1.2-1.2-1.2L1720.2,118.7    L1720.2,118.7z"></path>
		<path fill="#161616" d="M1309,118.7h-59.4h-31.9h-59.4c-0.6,0-1.1,0.6-1.1,1.2v27.4c0,0.6,0.6,1.2,1.1,1.2h58.2v191.2    c0,0.6,0.6,1.1,1.1,1.1h31.9c0.6,0,1.1-0.6,1.1-1.1V148.5h58.2c0.6,0,1.1-0.6,1.1-1.2v-27.4C1310.1,119.3,1309.8,118.7,1309,118.7    z"></path>
		<path fill="#161616" d="M1497,340.8h29c0.8,0,1.3-0.8,1.2-1.5l-59.9-220.5c-0.2-0.6-0.6-0.8-1.2-0.8H1455h-19.5h-11.1    c-0.6,0-1,0.4-1.2,0.8l-59.9,220.5c-0.2,0.8,0.4,1.5,1.2,1.5h29c0.6,0,1-0.4,1.2-0.8l17.4-64.2c0.2-0.6,0.6-0.8,1.2-0.8h64.1    c0.6,0,1,0.4,1.2,0.8l17.4,64.2C1496.1,340.4,1496.7,340.8,1497,340.8L1497,340.8z M1420.9,243.7l23.3-85.9c0.4-1.1,1.9-1.1,2.3,0    l23.3,85.9c0.2,0.8-0.4,1.5-1.1,1.5H1422C1421.3,245.2,1420.7,244.4,1420.9,243.7L1420.9,243.7z"></path>
		<path fill="#161616" d="M1991.9,340.8h29c0.8,0,1.3-0.8,1.2-1.5l-59.9-220.5c-0.2-0.6-0.6-0.8-1.1-0.8h-11.1h-19.5h-11.1    c-0.6,0-1,0.4-1.2,0.8l-59.9,220.5c-0.2,0.8,0.4,1.5,1.1,1.5h29c0.6,0,1-0.4,1.2-0.8l17.4-64.2c0.2-0.6,0.6-0.8,1.1-0.8h64.1    c0.6,0,1,0.4,1.2,0.8l17.4,64.2C1990.9,340.4,1991.3,340.8,1991.9,340.8L1991.9,340.8z M1915.7,243.7l23.3-85.9    c0.4-1.1,1.9-1.1,2.3,0l23.3,85.9c0.2,0.8-0.4,1.5-1.1,1.5h-46.6C1916.1,245.2,1915.5,244.4,1915.7,243.7L1915.7,243.7z"></path>
		<path fill="#161616" d="M973.4,308.2V240c0-0.6,0.6-1.2,1.2-1.2h85c0.6,0,1.1-0.6,1.1-1.1v-27.4c0-0.6-0.6-1.1-1.1-1.1h-85    c-0.6,0-1.2-0.6-1.2-1.2v-58.3c0-0.6,0.6-1.1,1.2-1.1h96.6c0.6,0,1.2-0.6,1.2-1.2v-27.4c0-0.6-0.6-1.2-1.2-1.2h-97.7h-33    c-0.6,0-1.1,0.6-1.1,1.2v28.6v60.7v29.7v70.5v30.1c0,0.6,0.6,1.1,1.1,1.1h33h101.7c0.6,0,1.2-0.6,1.2-1.1v-28.9    c0-0.6-0.6-1.1-1.2-1.1H974.4C973.8,309.4,973.4,309,973.4,308.2L973.4,308.2z"></path>
		<path fill="#161616" d="M2499.6,338.9l-110.3-113.7c-0.4-0.4-0.4-1.2,0-1.5l99.3-102.8c0.8-0.8,0.2-1.9-0.8-1.9h-40.7    c-0.4,0-0.6,0.2-0.8,0.4l-84.2,87.2c-0.8,0.8-1.9,0.2-1.9-0.8v-85.7c0-0.6-0.6-1.2-1.2-1.2h-31.9c-0.6,0-1.1,0.6-1.1,1.2v219.7    c0,0.6,0.6,1.2,1.1,1.2h31.9c0.6,0,1.2-0.6,1.2-1.2v-96.7c0-1,1.3-1.5,1.9-0.8l95.4,98.3c0.2,0.2,0.6,0.4,0.8,0.4h40.7    C2499.8,340.8,2500.4,339.4,2499.6,338.9L2499.6,338.9z"></path>
		
			<polygon fill="#E17726" stroke="#E17726" stroke-width="0.7801" stroke-linecap="round" stroke-linejoin="round" stroke-miterlimit="22.9292" points="    470,0.5 277,143.3 312.9,59.2   "></polygon>
		
			<polygon fill="#E27625" stroke="#E27625" stroke-width="0.7801" stroke-linecap="round" stroke-linejoin="round" stroke-miterlimit="22.9292" points="    24.8,0.5 216.1,144.7 181.9,59.2   "></polygon>
		
			<polygon fill="#E27625" stroke="#E27625" stroke-width="0.7801" stroke-linecap="round" stroke-linejoin="round" stroke-miterlimit="22.9292" points="    400.5,331.6 349.2,410.1 459.1,440.3 490.6,333.3   "></polygon>
		
			<polygon fill="#E27625" stroke="#E27625" stroke-width="0.7801" stroke-linecap="round" stroke-linejoin="round" stroke-miterlimit="22.9292" points="    4.4,333.3 35.7,440.3 145.5,410.1 94.3,331.6   "></polygon>
		
			<polygon fill="#E27625" stroke="#E27625" stroke-width="0.7801" stroke-linecap="round" stroke-linejoin="round" stroke-miterlimit="22.9292" points="    139.6,199.1 109,245.2 217.8,250.1 214.2,133   "></polygon>
		
			<polygon fill="#E27625" stroke="#E27625" stroke-width="0.7801" stroke-linecap="round" stroke-linejoin="round" stroke-miterlimit="22.9292" points="    355.3,199.1 279.5,131.7 277,250.1 385.8,245.2   "></polygon>
		
			<polygon fill="#E27625" stroke="#E27625" stroke-width="0.7801" stroke-linecap="round" stroke-linejoin="round" stroke-miterlimit="22.9292" points="    145.5,410.1 211.3,378.3 154.6,334.1   "></polygon>
		
			<polygon fill="#E27625" stroke="#E27625" stroke-width="0.7801" stroke-linecap="round" stroke-linejoin="round" stroke-miterlimit="22.9292" points="    283.5,378.3 349.2,410.1 340.2,334.1   "></polygon>
		
			<polygon fill="#D5BFB2" stroke="#D5BFB2" stroke-width="0.7801" stroke-linecap="round" stroke-linejoin="round" stroke-miterlimit="22.9292" points="    349.2,410.1 283.5,378.3 288.8,420.9 288.3,439   "></polygon>
		
			<polygon fill="#D5BFB2" stroke="#D5BFB2" stroke-width="0.7801" stroke-linecap="round" stroke-linejoin="round" stroke-miterlimit="22.9292" points="    145.5,410.1 206.6,439 206.2,420.9 211.3,378.3   "></polygon>
		
			<polygon fill="#233447" stroke="#233447" stroke-width="0.7801" stroke-linecap="round" stroke-linejoin="round" stroke-miterlimit="22.9292" points="    207.7,305.9 153.1,289.9 191.7,272.2   "></polygon>
		
			<polygon fill="#233447" stroke="#233447" stroke-width="0.7801" stroke-linecap="round" stroke-linejoin="round" stroke-miterlimit="22.9292" points="    287.1,305.9 303.2,272.2 341.9,289.9   "></polygon>
		
			<polygon fill="#CC6228" stroke="#CC6228" stroke-width="0.7801" stroke-linecap="round" stroke-linejoin="round" stroke-miterlimit="22.9292" points="    145.5,410.1 155,331.6 94.3,333.3   "></polygon>
		
			<polygon fill="#CC6228" stroke="#CC6228" stroke-width="0.7801" stroke-linecap="round" stroke-linejoin="round" stroke-miterlimit="22.9292" points="    339.8,331.6 349.2,410.1 400.5,333.3   "></polygon>
		
			<polygon fill="#CC6228" stroke="#CC6228" stroke-width="0.7801" stroke-linecap="round" stroke-linejoin="round" stroke-miterlimit="22.9292" points="    385.8,245.2 277,250.1 287.1,305.9 303.2,272.2 341.9,289.9   "></polygon>
		
			<polygon fill="#CC6228" stroke="#CC6228" stroke-width="0.7801" stroke-linecap="round" stroke-linejoin="round" stroke-miterlimit="22.9292" points="    153.1,289.9 191.7,272.2 207.7,305.9 217.8,250.1 109,245.2   "></polygon>
		
			<polygon fill="#E27525" stroke="#E27525" stroke-width="0.7801" stroke-linecap="round" stroke-linejoin="round" stroke-miterlimit="22.9292" points="    109,245.2 154.6,334.1 153.1,289.9   "></polygon>
		
			<polygon fill="#E27525" stroke="#E27525" stroke-width="0.7801" stroke-linecap="round" stroke-linejoin="round" stroke-miterlimit="22.9292" points="    341.9,289.9 340.2,334.1 385.8,245.2   "></polygon>
		
			<polygon fill="#E27525" stroke="#E27525" stroke-width="0.7801" stroke-linecap="round" stroke-linejoin="round" stroke-miterlimit="22.9292" points="    217.8,250.1 207.7,305.9 220.5,371.8 223.4,285   "></polygon>
		
			<polygon fill="#E27525" stroke="#E27525" stroke-width="0.7801" stroke-linecap="round" stroke-linejoin="round" stroke-miterlimit="22.9292" points="    277,250.1 271.7,284.8 274.3,371.8 287.1,305.9   "></polygon>
		
			<polygon fill="#F5841F" stroke="#F5841F" stroke-width="0.7801" stroke-linecap="round" stroke-linejoin="round" stroke-miterlimit="22.9292" points="    287.1,305.9 274.3,371.8 283.5,378.3 340.2,334.1 341.9,289.9   "></polygon>
		
			<polygon fill="#F5841F" stroke="#F5841F" stroke-width="0.7801" stroke-linecap="round" stroke-linejoin="round" stroke-miterlimit="22.9292" points="    153.1,289.9 154.6,334.1 211.3,378.3 220.5,371.8 207.7,305.9   "></polygon>
		
			<polygon fill="#C0AC9D" stroke="#C0AC9D" stroke-width="0.7801" stroke-linecap="round" stroke-linejoin="round" stroke-miterlimit="22.9292" points="    288.3,439 288.8,420.9 283.9,416.7 211,416.7 206.2,420.9 206.6,439 145.5,410.1 166.9,427.6 210.2,457.5 284.4,457.5 328,427.6     349.2,410.1   "></polygon>
		
			<polygon fill="#161616" stroke="#161616" stroke-width="0.7801" stroke-linecap="round" stroke-linejoin="round" stroke-miterlimit="22.9292" points="    283.5,378.3 274.3,371.8 220.5,371.8 211.3,378.3 206.2,420.9 211,416.7 283.9,416.7 288.8,420.9   "></polygon>
		
			<polygon fill="#763E1A" stroke="#763E1A" stroke-width="0.7801" stroke-linecap="round" stroke-linejoin="round" stroke-miterlimit="22.9292" points="    478.2,152.6 494.4,73.8 470,0.5 283.5,138.6 355.3,199.1 456.6,228.6 479,202.5 469.2,195.5 484.7,181.4 472.9,172.3 488.3,160.5       "></polygon>
		
			<polygon fill="#763E1A" stroke="#763E1A" stroke-width="0.7801" stroke-linecap="round" stroke-linejoin="round" stroke-miterlimit="22.9292" points="    0.4,73.8 16.8,152.6 6.3,160.5 22,172.3 10.1,181.4 25.6,195.5 15.9,202.5 38.2,228.6 139.6,199.1 211.3,138.6 24.8,0.5   "></polygon>
		
			<polygon fill="#F5841F" stroke="#F5841F" stroke-width="0.7801" stroke-linecap="round" stroke-linejoin="round" stroke-miterlimit="22.9292" points="    456.6,228.6 355.3,199.1 385.8,245.2 340.2,334.1 400.5,333.3 490.6,333.3   "></polygon>
		
			<polygon fill="#F5841F" stroke="#F5841F" stroke-width="0.7801" stroke-linecap="round" stroke-linejoin="round" stroke-miterlimit="22.9292" points="    139.6,199.1 38.2,228.6 4.4,333.3 94.3,333.3 154.6,334.1 109,245.2   "></polygon>
		
			<polygon fill="#F5841F" stroke="#F5841F" stroke-width="0.7801" stroke-linecap="round" stroke-linejoin="round" stroke-miterlimit="22.9292" points="    277,250.1 283.5,138.6 312.9,59.2 181.9,59.2 211.3,138.6 217.8,250.1 220.3,285.2 220.5,371.8 274.3,371.8 274.5,285.2   "></polygon>
	</g>
</g>
</svg>
