<?xml version="1.0" encoding="utf-8"?>
<!-- Generator: Adobe Illustrator 25.0.0, SVG Export Plug-In . SVG Version: 6.00 Build 0)  -->
<svg version="1.1" id="Layer_1" xmlns="http://www.w3.org/2000/svg" xmlns:xlink="http://www.w3.org/1999/xlink" x="0px" y="0px"
	 viewBox="0 0 2290 1232" style="enable-background:new 0 0 2290 1232;" xml:space="preserve">
<style type="text/css">
	.st0{fill:url(#SVGID_1_);}
	.st1{fill:#00D1FF;}
</style>
<g transform="translate(257.63 -97.669)">
	<g transform="matrix(.26458 0 0 .26458 -257.63 97.669)">
		
			<linearGradient id="SVGID_1_" gradientUnits="userSpaceOnUse" x1="9319.6846" y1="14160.5088" x2="9319.6846" y2="14416.5088" gradientTransform="matrix(0.1984 0 0 0.1984 -1150.1696 -776.3289)">
			<stop  offset="0" style="stop-color:#090220"/>
			<stop  offset="1" style="stop-color:#170659"/>
		</linearGradient>
		<circle class="st0" cx="699.2" cy="2396.4" r="362.8"/>
		<g>
			<path class="st1" d="M579.7,2306.2c-2.9-3.6-7.3-5.6-12-5.6h-96.9c-0.8,0-1.5-0.3-2.1-0.8c-0.5-0.5-0.8-1.1-0.8-1.8v-65.3
				c0-0.7,0.3-1.3,0.8-1.8c0.6-0.6,1.3-0.9,2.1-0.8h102.4c25.8,0,48.1,10.6,66.9,31.7l24.9,30.4l-48.5,59.1L579.7,2306.2z
				 M758.7,2261.5c18.7-20.9,41.1-31.4,67.2-31.4H928c0.7-0.1,1.4,0.2,1.9,0.6c0.5,0.5,0.7,1.2,0.6,2v65.3c0,0.7-0.2,1.3-0.6,1.8
				c-0.5,0.6-1.2,0.9-1.9,0.8h-96.9c-4.6-0.1-9,2-12,5.6l-71.4,86.9l71.7,87.5c2.9,3.3,7.2,5.3,11.6,5.2h96.9
				c0.7-0.1,1.5,0.3,1.9,0.8c0.4,0.6,0.7,1.4,0.6,2.1v65.3c0,0.7-0.2,1.3-0.6,1.8c-0.5,0.6-1.2,0.9-1.9,0.8h-102
				c-26.1,0-48.3-10.6-66.9-31.7l-59.4-72.5l-59.4,72.5c-18.7,21.1-41.1,31.7-67.2,31.7H470.8c-0.7,0.1-1.5-0.3-1.9-0.8
				c-0.5-0.6-0.7-1.4-0.6-2.1v-65.3c0-0.7,0.2-1.3,0.6-1.8c0.5-0.6,1.2-0.9,1.9-0.8h96.9c4.6,0,9-2.1,12-5.6l70.1-85.6L758.7,2261.5
				z"/>
		</g>
	</g>
</g>
<g>
	<path class="st1" d="M525.1,630.6c-7.9-7.7-17.4-11.6-28.5-11.6h-110c-2,0-3.8-0.7-5.3-2.1c-1.5-1.4-2.2-3.1-2.2-5.2v-8.9
		c0-1.9,0.7-3.6,2.2-5.1c1.5-1.4,3.2-2.1,5.3-2.1h141.8c0.4,0,0.6-0.1,0.9-0.3c0.2-0.2,0.3-0.5,0.3-0.7v-26.6c0-0.4-0.1-0.6-0.3-0.8
		c-0.2-0.2-0.5-0.3-0.9-0.3H386.6c-11.2,0-20.7,3.9-28.6,11.6c-7.9,7.7-11.8,17-11.8,28v1.7c0,11,3.9,20.4,11.8,28.1
		c7.9,7.7,17.4,11.6,28.6,11.6h110c2,0,3.7,0.7,5.1,2.1c1.5,1.4,2.2,3.1,2.2,5.1v8.9c0,2-0.7,3.8-2.2,5.1c-1.5,1.4-3.2,2.1-5.1,2.1
		H354.7c-0.3,0-0.5,0.1-0.7,0.3c-0.2,0.2-0.3,0.5-0.3,0.9v26.6c0,0.3,0.1,0.5,0.3,0.7c0.2,0.2,0.5,0.3,0.7,0.3h141.9
		c11.1,0,20.6-3.9,28.5-11.6c7.9-7.8,11.8-17.1,11.8-28v-1.7C536.9,647.6,533,638.3,525.1,630.6z"/>
	<path class="st1" d="M763.8,566.8h-30.8c-0.3,0-0.5,0.1-0.7,0.3c-0.2,0.2-0.3,0.4-0.3,0.8v33.8c0,2.9-1.5,5.1-4.5,6.7l-61.4,25.4
		l-61.4-25.4c-3-1.5-4.5-3.7-4.5-6.7v-33.8c0-0.4-0.1-0.6-0.3-0.8c-0.2-0.2-0.4-0.3-0.8-0.3h-30.8c-0.3,0-0.5,0.1-0.7,0.3
		c-0.2,0.2-0.3,0.4-0.3,0.8v38.7c0,5.8,1.6,11.1,4.8,15.8c3.2,4.8,7.5,8.3,13,10.6l64.4,27v38.6c0,0.4,0.1,0.6,0.3,0.9
		c0.2,0.2,0.5,0.3,0.9,0.3h30.8c0.3,0,0.5-0.1,0.7-0.3c0.2-0.2,0.3-0.5,0.3-0.9v-38.6l64.4-26.9c5.5-2.4,9.9-6,13-10.7
		c3.2-4.7,4.8-10,4.8-15.8v-38.9c0-0.4-0.1-0.6-0.3-0.8C764.3,566.9,764.1,566.8,763.8,566.8z"/>
	<path class="st1" d="M992.3,566.8h-30.8c-0.4,0-0.6,0.1-0.8,0.3c-0.2,0.2-0.3,0.5-0.3,0.7v103.3h-12.9c-2.4,0-4.4-1.1-6.1-3.2
		l-59.6-87.2c-6.4-9-15.2-13.6-26.5-14h-51.4c-0.4,0-0.6,0.1-0.9,0.3c-0.2,0.2-0.3,0.5-0.3,0.7v131c0,0.3,0.1,0.5,0.3,0.7
		c0.2,0.2,0.5,0.3,0.9,0.3h30.8c0.3,0,0.5-0.1,0.7-0.3c0.2-0.2,0.3-0.5,0.3-0.7V595.6h12.9c2.4,0,4.4,1.1,6.1,3.3l59.6,87.2
		c6.4,9,15.2,13.6,26.5,13.8h51.4c0.4,0,0.6-0.1,0.8-0.3c0.2-0.2,0.3-0.5,0.3-0.7v-131c0-0.3-0.1-0.5-0.3-0.7
		C992.9,566.9,992.6,566.8,992.3,566.8z"/>
	<path class="st1" d="M1214.5,566.8h-188.4c-0.4,0-0.6,0.1-0.8,0.3c-0.2,0.2-0.3,0.5-0.3,0.7v26.6c0,0.3,0.1,0.5,0.3,0.7
		c0.2,0.2,0.4,0.3,0.8,0.3h77.7v103.3c0,0.3,0.1,0.5,0.3,0.7c0.2,0.2,0.4,0.3,0.8,0.3h30.8c0.4,0,0.6-0.1,0.8-0.3
		c0.2-0.2,0.3-0.5,0.3-0.7V595.6h77.7c0.4,0,0.6-0.1,0.9-0.3c0.2-0.2,0.3-0.5,0.3-0.7v-26.6c0-0.3-0.1-0.5-0.3-0.7
		C1215.2,566.9,1214.9,566.8,1214.5,566.8z"/>
	<path class="st1" d="M1443,566.8h-30.8c-0.3,0-0.5,0.1-0.7,0.3s-0.3,0.5-0.3,0.7V619h-124.6v-51.1c0-0.3-0.1-0.5-0.3-0.7
		c-0.2-0.2-0.5-0.3-0.9-0.3h-30.8c-0.3,0-0.5,0.1-0.7,0.3c-0.2,0.2-0.3,0.5-0.3,0.7v131c0,0.3,0.1,0.5,0.3,0.7
		c0.2,0.2,0.5,0.3,0.7,0.3h30.8c0.4,0,0.6-0.1,0.9-0.3c0.2-0.2,0.3-0.5,0.3-0.7v-51.1h124.6v51.1c0,0.3,0.1,0.5,0.3,0.7
		c0.2,0.2,0.5,0.3,0.7,0.3h30.8c0.4,0,0.6-0.1,0.9-0.3c0.2-0.2,0.3-0.5,0.3-0.7v-131c0-0.3-0.1-0.5-0.3-0.7
		C1443.6,566.9,1443.3,566.8,1443,566.8z"/>
	<path class="st1" d="M1670.6,566.8h-149.2c-11.1,0-20.6,3.9-28.5,11.6c-7.9,7.7-11.8,17-11.8,28v53.9c0,11,3.9,20.4,11.8,28.1
		c7.9,7.7,17.4,11.6,28.5,11.6h149.2c0.3,0,0.5-0.1,0.7-0.3c0.2-0.2,0.3-0.5,0.3-0.7v-26.6c0-0.4-0.1-0.6-0.3-0.8
		c-0.2-0.2-0.5-0.3-0.7-0.3h-149.2c-2,0-3.8-0.7-5.2-2.1s-2.1-3.1-2.1-5.1v-16.2h156.5c0.4,0,0.6-0.1,0.8-0.3
		c0.2-0.2,0.3-0.5,0.3-0.7v-26.6c0-0.4-0.1-0.6-0.3-0.8c-0.2-0.2-0.4-0.3-0.8-0.3H1514v-16.2c0-2,0.7-3.6,2.1-5.1
		c1.4-1.4,3.2-2.1,5.2-2.1h149.2c0.3,0,0.5-0.1,0.7-0.3c0.2-0.2,0.3-0.5,0.3-0.7v-26.6c0-0.3-0.1-0.5-0.3-0.7
		C1671.1,566.9,1670.8,566.8,1670.6,566.8z"/>
	<path class="st1" d="M1897.9,566.8h-188.4c-0.4,0-0.6,0.1-0.8,0.3c-0.2,0.2-0.3,0.5-0.3,0.7v26.6c0,0.3,0.1,0.5,0.3,0.7
		c0.2,0.2,0.4,0.3,0.8,0.3h77.7v103.3c0,0.3,0.1,0.5,0.3,0.7c0.2,0.2,0.4,0.3,0.8,0.3h30.7c0.4,0,0.6-0.1,0.8-0.3
		c0.2-0.2,0.3-0.5,0.3-0.7V595.6h77.7c0.4,0,0.6-0.1,0.9-0.3c0.2-0.2,0.3-0.5,0.3-0.7v-26.6c0-0.3-0.1-0.5-0.3-0.7
		C1898.6,566.9,1898.3,566.8,1897.9,566.8z"/>
	<path class="st1" d="M1969.5,567.1c-0.2-0.2-0.4-0.3-0.8-0.3H1938c-0.4,0-0.6,0.1-0.8,0.3c-0.2,0.2-0.3,0.4-0.3,0.8v131
		c0,0.3,0.1,0.5,0.3,0.7c0.2,0.2,0.4,0.3,0.8,0.3h30.7c0.4,0,0.6-0.1,0.8-0.3c0.2-0.2,0.3-0.5,0.3-0.7v-131
		C1969.8,567.5,1969.7,567.3,1969.5,567.1z"/>
	<path class="st1" d="M2054.4,599.2c-1.3-1.5-3-2.3-4.9-2.3h-39.9c-0.4,0-0.6-0.1-0.9-0.3c-0.2-0.2-0.3-0.5-0.3-0.7v-26.6
		c0-0.3,0.1-0.5,0.3-0.7c0.2-0.2,0.5-0.3,0.9-0.3h42.2c10.6,0,19.8,4.3,27.6,12.9l10.2,12.4l-20,24.1L2054.4,599.2z M2128.2,580.9
		c7.7-8.5,17-12.8,27.7-12.8h42.1c0.4,0,0.6,0.1,0.8,0.3c0.2,0.2,0.3,0.4,0.3,0.8v26.6c0,0.3-0.1,0.5-0.3,0.7
		c-0.2,0.2-0.4,0.3-0.8,0.3H2158c-2,0-3.6,0.8-4.9,2.3l-29.4,35.4l29.6,35.7c1.3,1.4,2.9,2.1,4.8,2.1h39.9c0.4,0,0.6,0.1,0.8,0.3
		c0.2,0.2,0.3,0.5,0.3,0.9v26.6c0,0.3-0.1,0.5-0.3,0.7c-0.2,0.2-0.4,0.3-0.8,0.3h-42.1c-10.7,0-19.9-4.3-27.6-12.9l-24.5-29.6
		l-24.5,29.6c-7.7,8.6-17,12.9-27.7,12.9h-42.1c-0.4,0-0.6-0.1-0.8-0.3c-0.2-0.2-0.3-0.5-0.3-0.9v-26.6c0-0.3,0.1-0.5,0.3-0.7
		c0.2-0.2,0.4-0.3,0.8-0.3h39.9c1.9,0,3.5-0.8,4.9-2.3l28.9-34.9L2128.2,580.9z"/>
</g>
</svg>
