<svg width="132" height="25" viewBox="0 0 132 25" fill="none" xmlns="http://www.w3.org/2000/svg">
<g clip-path="url(#clip0)">
<path fill-rule="evenodd" clip-rule="evenodd" d="M40.0799 3.732C40.0799 4.45106 39.8399 5.05028 39.2399 5.52966C38.2799 6.48841 36.4799 6.48841 35.5199 5.52966C33.7199 3.97168 35.1599 0.975586 37.3199 0.975586C38.8799 0.975586 40.0799 2.17403 40.0799 3.732ZM39.5999 23.9856H35.1599V8.76544H39.5999V23.9856ZM8.64754 24.445C10.9426 24.445 13.0082 23.6403 14.5 22.1459L11.6311 19.2719C10.9426 20.0766 9.90984 20.5364 8.76229 20.5364C6.46721 20.5364 4.63115 18.8121 4.63115 16.5129C4.63115 14.2137 6.46721 12.3744 8.76229 12.3744C9.90984 12.3744 10.9426 12.8342 11.5164 13.524L14.3852 10.765C12.8934 9.3855 10.8279 8.46583 8.64754 8.46583C4.17213 8.46583 0.5 12.0295 0.5 16.5129C0.5 20.8813 4.05738 24.445 8.64754 24.445ZM23.8801 24.2852C26.2801 24.2852 28.3201 23.5662 29.8801 22.128C31.4401 20.5701 32.2801 18.6526 32.2801 16.3755C32.2801 13.9787 31.4401 12.0612 29.8801 10.623C28.3201 9.1849 26.4001 8.46583 23.8801 8.46583C21.3601 8.46583 19.3201 9.1849 17.7601 10.623C16.2001 12.0612 15.3601 13.9787 15.3601 16.3755C15.3601 18.7724 16.2001 20.6899 17.7601 22.128C19.4401 23.5662 21.4801 24.2852 23.8801 24.2852ZM21.0001 13.2596C21.8401 12.4207 22.6801 12.0612 23.8801 12.0612C25.0801 12.0612 25.9201 12.4207 26.7601 13.2596C27.4801 13.9787 27.8401 15.0573 27.8401 16.3755C27.8401 17.6938 27.4801 18.7724 26.7601 19.4915C25.9201 20.2105 25.0801 20.5701 23.8801 20.5701C22.6801 20.5701 21.7201 20.2105 21.0001 19.4915C20.2801 18.7724 19.9201 17.6938 19.9201 16.3755C19.9201 15.0573 20.2801 13.9787 21.0001 13.2596ZM57.9599 24.1055V14.6378C57.9599 10.8028 55.4399 8.40591 51.8399 8.40591C49.9199 8.40591 48.4799 9.00513 47.6399 10.3234V8.76545H43.4399V24.1055H47.8799V15.5965C47.8799 13.679 49.0799 12.4806 50.7599 12.4806C52.4399 12.4806 53.5199 13.5592 53.5199 15.4767V24.1055H57.9599ZM66.0001 10.0837C66.8401 9.00513 68.1601 8.40591 69.9601 8.40591C73.6801 8.40591 76.0801 10.8028 76.0801 14.6378V24.1055H71.6401V15.4767C71.6401 13.5592 70.5601 12.4806 68.8801 12.4806C67.2001 12.4806 66.0001 13.679 66.0001 15.5965V24.1055H61.5601V0.975586H66.0001V10.0837ZM91.3201 8.64558V10.3234C90.3601 9.00511 88.8001 8.40589 86.6401 8.52574C84.3601 8.52574 82.5601 9.2448 81.1201 10.6829C79.8001 12.1211 79.0801 14.0386 79.0801 16.4354C79.0801 18.8323 79.6801 20.7498 81.1201 22.1879C82.5601 23.6261 84.3601 24.3451 86.6401 24.3451C88.6801 24.3451 90.4801 23.5062 91.3201 22.4276V23.9856H95.5201V8.64558H91.3201ZM87.3601 20.63C85.0801 20.63 83.5201 19.1918 83.5201 16.4354C83.5201 13.679 85.0801 12.1211 87.3601 12.0012C89.5201 12.0012 91.0801 13.5592 91.0801 15.9561V16.6751C91.0801 19.1918 89.6401 20.63 87.3601 20.63ZM103.44 14.1584L108.6 8.76544H114L108 15.3569L114.36 24.1055H108.96L104.88 18.5926L103.44 20.0308V24.1055H99V0.975586H103.44V14.1584ZM123 24.3452C125.4 24.3452 127.44 23.6261 129 22.188C130.68 20.63 131.4 18.7125 131.4 16.4355C131.4 14.0386 130.56 12.1211 129 10.6829C127.44 9.24482 125.4 8.52575 123 8.52575C120.48 8.52575 118.44 9.24482 116.88 10.6829C115.32 12.1211 114.48 14.0386 114.48 16.4355C114.48 18.8323 115.32 20.7498 116.88 22.188C118.56 23.6261 120.6 24.3452 123 24.3452ZM120.12 13.3195C120.96 12.4806 121.8 12.1211 123 12.1211C124.2 12.1211 125.16 12.4806 125.88 13.3195C126.6 14.0386 126.96 15.1172 126.96 16.4355C126.96 17.7537 126.6 18.8323 125.88 19.5514C125.04 20.2705 124.2 20.63 123 20.63C121.8 20.63 120.84 20.2705 120.12 19.5514C119.4 18.8323 119.04 17.7537 119.04 16.4355C119.04 15.1172 119.4 14.0386 120.12 13.3195Z" fill="#457DF5"/>
</g>
<defs>
<clipPath id="clip0">
<rect width="132" height="23.9688" fill="white" transform="translate(0 0.975586)"/>
</clipPath>
</defs>
</svg>
