<?xml version="1.0" encoding="UTF-8" standalone="no"?>
<!-- Created with Inkscape (http://www.inkscape.org/) -->

<svg
   xmlns:dc="http://purl.org/dc/elements/1.1/"
   xmlns:cc="http://creativecommons.org/ns#"
   xmlns:rdf="http://www.w3.org/1999/02/22-rdf-syntax-ns#"
   xmlns:svg="http://www.w3.org/2000/svg"
   xmlns="http://www.w3.org/2000/svg"
   version="1.1"
   width="350"
   height="130"
   id="svg2">
  <defs
     id="defs4">
    <clipPath
       id="clipPath3045">
      <path
         d="m 68.032,1017.638 281.83,0 0,102.046 -281.83,0 0,-102.046 z"
         id="path3047" />
    </clipPath>
  </defs>
  <metadata
     id="metadata7">
    <rdf:RDF>
      <cc:Work
         rdf:about="">
        <dc:format>image/svg+xml</dc:format>
        <dc:type
           rdf:resource="http://purl.org/dc/dcmitype/StillImage" />
        <dc:title></dc:title>
      </cc:Work>
    </rdf:RDF>
  </metadata>
  <g
     transform="translate(0,-922.36218)"
     id="layer1">
    <g
       transform="matrix(1.25,0,0,-1.25,-88.604342,2323.01)"
       id="g3041">
      <g
         clip-path="url(#clipPath3045)"
         id="g3043">
        <g
           transform="translate(146.2467,1053.5322)"
           id="g3049">
          <path
             d="M 0,0 C -0.244,-0.377 -0.558,-0.702 -0.938,-0.972 -1.51,-1.287 -2.149,-1.445 -2.857,-1.445 l -0.04,0 c -1.224,0 -1.891,0.482 -1.998,1.445 L -7.18,22.532 c -0.082,0.671 0.182,1.25 0.796,1.742 0.611,0.491 1.365,0.738 2.263,0.738 1.196,0 1.85,-0.471 1.958,-1.412 L -0.49,7.123 10.321,23.6 c 0.626,0.941 1.536,1.412 2.735,1.412 0.896,0 1.508,-0.251 1.836,-0.754 0.324,-0.522 0.284,-1.098 -0.124,-1.726 L 0,0 z"
             id="path3051"
             style="fill:#231f20;fill-opacity:1;fill-rule:nonzero;stroke:none" />
        </g>
        <g
           transform="translate(166.6858,1067.2474)"
           id="g3053">
          <path
             d="m 0,0 4.895,0 c 1.333,0 2.571,0.365 3.713,1.097 1.55,0.983 2.325,2.123 2.325,3.421 0,0.836 -0.381,1.548 -1.142,2.134 C 9.028,7.237 8.092,7.531 6.976,7.531 5.615,7.531 4.365,7.165 3.222,6.432 2.08,5.7 1.358,4.81 1.06,3.766 L 0,0 z m 8.262,-12.837 c -2.327,-1.485 -4.835,-2.228 -7.528,-2.228 -2.72,0 -4.827,0.732 -6.324,2.197 -1.088,1.068 -1.632,2.292 -1.632,3.671 0,0.524 0.082,1.079 0.244,1.665 l 3.143,11.298 c 0.572,2.092 1.999,3.869 4.285,5.335 2.283,1.463 4.813,2.197 7.588,2.197 2.637,0 4.717,-0.743 6.241,-2.228 C 15.42,7.959 15.992,6.715 15.992,5.334 15.992,4.833 15.91,4.309 15.746,3.766 15.176,1.714 13.733,-0.052 11.423,-1.54 9.112,-3.024 6.595,-3.767 3.875,-3.767 l -4.895,0 -1.061,-3.765 c -0.082,-0.294 -0.122,-0.566 -0.122,-0.816 0,-0.711 0.272,-1.329 0.815,-1.853 0.762,-0.732 1.822,-1.097 3.182,-1.097 1.332,0 2.583,0.369 3.755,1.114 1.169,0.742 1.889,1.626 2.161,2.652 0.136,0.52 0.496,0.965 1.082,1.331 0.584,0.367 1.217,0.552 1.896,0.552 0.679,0 1.205,-0.185 1.573,-0.552 0.366,-0.366 0.48,-0.811 0.346,-1.331 -0.572,-2.051 -2.02,-3.82 -4.345,-5.305"
             id="path3055"
             style="fill:#231f20;fill-opacity:1;fill-rule:nonzero;stroke:none" />
        </g>
        <g
           transform="translate(189.0826,1059.7142)"
           id="g3057">
          <path
             d="m 0,0 c -0.082,-0.292 -0.122,-0.564 -0.122,-0.814 0,-0.711 0.27,-1.331 0.816,-1.854 0.76,-0.731 1.821,-1.098 3.181,-1.098 0.572,0 1.042,-0.135 1.408,-0.406 0.368,-0.273 0.551,-0.629 0.551,-1.069 0,-0.606 -0.306,-1.14 -0.917,-1.601 -0.614,-0.46 -1.312,-0.69 -2.102,-0.69 -2.719,0 -4.828,0.733 -6.324,2.198 -1.088,1.066 -1.632,2.29 -1.632,3.671 0,0.524 0.082,1.077 0.244,1.663 l 6.773,24.479 c 0.137,0.523 0.49,0.968 1.06,1.334 0.573,0.366 1.211,0.55 1.919,0.55 0.68,0 1.203,-0.184 1.57,-0.55 0.367,-0.366 0.483,-0.811 0.347,-1.334 L 0,0 z"
             id="path3059"
             style="fill:#231f20;fill-opacity:1;fill-rule:nonzero;stroke:none" />
        </g>
        <g
           transform="translate(216.6601,1071.0129)"
           id="g3061">
          <path
             d="m 0,0 c 0.082,0.25 0.124,0.502 0.124,0.752 0,0.691 -0.302,1.318 -0.9,1.884 -0.76,0.752 -1.795,1.13 -3.099,1.13 -1.358,0 -2.611,-0.367 -3.753,-1.099 C -8.77,1.935 -9.492,1.045 -9.79,0 l -3.141,-11.299 c -0.082,-0.293 -0.124,-0.565 -0.124,-0.815 0,-0.711 0.272,-1.329 0.818,-1.852 0.76,-0.733 1.82,-1.097 3.181,-1.097 1.36,0 2.617,0.369 3.775,1.114 1.152,0.741 1.868,1.625 2.14,2.65 L 0,0 z m -14.686,0 c 0.57,2.092 1.999,3.869 4.283,5.335 2.286,1.464 4.814,2.197 7.588,2.197 2.637,0 4.719,-0.743 6.244,-2.228 C 4.569,4.193 5.142,2.95 5.142,1.568 5.142,1.068 5.057,0.544 4.898,0 L 1.754,-11.299 c -0.567,-2.049 -2.01,-3.819 -4.325,-5.303 -2.312,-1.485 -4.827,-2.23 -7.546,-2.23 -2.72,0 -4.829,0.734 -6.323,2.199 -1.089,1.067 -1.632,2.291 -1.632,3.671 0,0.524 0.081,1.078 0.244,1.663 L -14.686,0 z"
             id="path3063"
             style="fill:#231f20;fill-opacity:1;fill-rule:nonzero;stroke:none" />
        </g>
        <g
           transform="translate(228.0856,1058.8995)"
           id="g3065">
          <path
             d="m 0,0 c 0,-0.711 0.269,-1.329 0.814,-1.853 0.762,-0.732 1.824,-1.097 3.182,-1.097 1.361,0 2.616,0.37 3.774,1.114 1.156,0.742 1.872,1.626 2.14,2.65 l 3.185,11.456 c 0.051,0.23 0.08,0.46 0.08,0.69 0,0.67 -0.286,1.275 -0.856,1.821 -0.791,0.732 -1.835,1.098 -3.143,1.098 -1.359,0 -2.609,-0.366 -3.75,-1.098 C 4.282,14.048 3.562,13.158 3.262,12.114 L 0.121,0.814 C 0.039,0.522 0,0.25 0,0 M 14.808,0.814 C 14.235,-1.256 12.801,-3.03 10.502,-4.504 8.206,-5.978 5.683,-6.718 2.936,-6.718 c -2.718,0 -4.829,0.734 -6.324,2.198 -1.087,1.068 -1.631,2.292 -1.631,3.672 0,0.523 0.082,1.077 0.245,1.662 l 3.141,11.3 c 0.57,2.07 2.004,3.844 4.305,5.318 2.299,1.474 4.819,2.213 7.568,2.213 1.766,0 3.301,-0.346 4.607,-1.036 l 1.839,6.685 c 0.136,0.522 0.488,0.967 1.058,1.333 0.572,0.366 1.212,0.55 1.918,0.55 0.681,0 1.203,-0.184 1.571,-0.55 0.368,-0.366 0.484,-0.811 0.348,-1.333 L 14.808,0.814 z"
             id="path3067"
             style="fill:#231f20;fill-opacity:1;fill-rule:nonzero;stroke:none" />
        </g>
        <g
           transform="translate(250.9275,1071.0129)"
           id="g3069">
          <path
             d="m 0,0 c 0.573,2.092 2.001,3.869 4.285,5.335 2.285,1.464 4.814,2.197 7.588,2.197 0.573,0 1.04,-0.137 1.409,-0.409 C 13.65,6.851 13.834,6.496 13.834,6.057 13.834,5.45 13.526,4.915 12.913,4.455 12.301,3.996 11.601,3.766 10.813,3.766 9.455,3.766 8.203,3.399 7.058,2.667 5.915,1.935 5.196,1.045 4.895,0 l -4.69,-16.948 c -0.135,-0.523 -0.489,-0.969 -1.059,-1.334 -0.574,-0.365 -1.21,-0.55 -1.92,-0.55 -0.678,0 -1.203,0.185 -1.569,0.55 -0.368,0.365 -0.482,0.811 -0.346,1.334 L 0,0 z"
             id="path3071"
             style="fill:#231f20;fill-opacity:1;fill-rule:nonzero;stroke:none" />
        </g>
        <g
           transform="translate(281.0786,1071.0129)"
           id="g3073">
          <path
             d="m 0,0 c 0.082,0.25 0.12,0.502 0.12,0.752 0,0.691 -0.298,1.318 -0.896,1.884 -0.76,0.752 -1.795,1.13 -3.099,1.13 -1.361,0 -2.613,-0.367 -3.755,-1.099 C -8.773,1.935 -9.495,1.045 -9.793,0 l -3.138,-11.299 c -0.085,-0.293 -0.124,-0.565 -0.124,-0.815 0,-0.711 0.272,-1.329 0.814,-1.852 0.764,-0.733 1.824,-1.097 3.182,-1.097 1.361,0 2.616,0.369 3.775,1.114 1.155,0.741 1.871,1.625 2.143,2.65 L 0,0 z m -14.688,0 c 0.57,2.092 1.998,3.869 4.286,5.335 2.284,1.464 4.813,2.197 7.587,2.197 2.637,0 4.715,-0.743 6.244,-2.228 C 4.569,4.193 5.139,2.95 5.139,1.568 5.139,1.068 5.057,0.544 4.895,0 L 1.754,-11.299 c -0.57,-2.049 -2.014,-3.819 -4.325,-5.303 -2.312,-1.485 -4.829,-2.23 -7.548,-2.23 -2.719,0 -4.829,0.734 -6.323,2.199 -1.089,1.067 -1.631,2.291 -1.631,3.671 0,0.524 0.08,1.078 0.244,1.663 L -14.688,0 z"
             id="path3075"
             style="fill:#231f20;fill-opacity:1;fill-rule:nonzero;stroke:none" />
        </g>
        <g
           transform="translate(290.8685,1071.0129)"
           id="g3077">
          <path
             d="m 0,0 c 0.57,2.092 2.001,3.869 4.282,5.335 2.288,1.464 4.814,2.197 7.591,2.197 2.993,0 5.193,-0.859 6.608,-2.575 2.394,1.716 5.088,2.575 8.078,2.575 2.638,0 4.717,-0.743 6.242,-2.228 1.141,-1.111 1.714,-2.354 1.714,-3.736 0,-0.5 -0.082,-1.024 -0.244,-1.568 l -4.69,-16.948 c -0.139,-0.523 -0.492,-0.969 -1.063,-1.334 -0.573,-0.365 -1.213,-0.55 -1.919,-0.55 -0.68,0 -1.2,0.185 -1.57,0.55 -0.367,0.365 -0.482,0.811 -0.346,1.334 L 29.376,0 c 0.08,0.25 0.12,0.502 0.12,0.752 0,0.691 -0.299,1.318 -0.896,1.884 -0.763,0.752 -1.795,1.13 -3.102,1.13 -1.277,0 -2.508,-0.362 -3.692,-1.084 C 20.624,1.961 19.893,1.119 19.622,0.156 L 14.89,-16.948 c -0.136,-0.523 -0.489,-0.969 -1.06,-1.334 -0.57,-0.365 -1.209,-0.55 -1.916,-0.55 -0.681,0 -1.203,0.185 -1.573,0.55 -0.364,0.365 -0.482,0.811 -0.346,1.334 l 4.732,17.104 c 0.112,0.44 0.085,0.912 -0.081,1.412 C 14.13,3.033 12.852,3.766 10.81,3.766 9.452,3.766 8.2,3.399 7.058,2.667 5.918,1.935 5.196,1.045 4.895,0 L 0.206,-16.948 c -0.136,-0.523 -0.493,-0.969 -1.064,-1.334 -0.57,-0.365 -1.209,-0.55 -1.916,-0.55 -0.678,0 -1.203,0.185 -1.572,0.55 -0.365,0.365 -0.483,0.811 -0.343,1.334 L 0,0 z"
             id="path3079"
             style="fill:#231f20;fill-opacity:1;fill-rule:nonzero;stroke:none" />
        </g>
        <g
           transform="translate(333.8694,1067.2474)"
           id="g3081">
          <path
             d="m 0,0 4.895,0 c 1.333,0 2.571,0.365 3.711,1.097 1.552,0.983 2.327,2.123 2.327,3.421 0,0.836 -0.383,1.548 -1.143,2.134 C 9.03,7.237 8.09,7.531 6.975,7.531 5.617,7.531 4.363,7.165 3.223,6.432 2.08,5.7 1.358,4.81 1.06,3.766 L 0,0 z m 8.26,-12.837 c -2.324,-1.485 -4.834,-2.228 -7.526,-2.228 -2.72,0 -4.829,0.732 -6.326,2.197 -1.086,1.068 -1.63,2.292 -1.63,3.671 0,0.524 0.082,1.079 0.244,1.665 l 3.143,11.298 c 0.57,2.092 1.998,3.869 4.285,5.335 2.285,1.463 4.81,2.197 7.583,2.197 2.641,0 4.724,-0.743 6.244,-2.228 C 15.42,7.959 15.992,6.715 15.992,5.334 15.992,4.833 15.91,4.309 15.746,3.766 15.173,1.714 13.735,-0.052 11.423,-1.54 9.11,-3.024 6.595,-3.767 3.875,-3.767 l -4.898,0 -1.06,-3.765 c -0.08,-0.294 -0.123,-0.566 -0.123,-0.816 0,-0.711 0.275,-1.329 0.818,-1.853 0.761,-0.732 1.819,-1.097 3.183,-1.097 1.331,0 2.581,0.369 3.755,1.114 1.168,0.742 1.887,1.626 2.16,2.652 0.136,0.52 0.496,0.965 1.08,1.331 0.586,0.367 1.218,0.552 1.899,0.552 0.678,0 1.201,-0.185 1.57,-0.552 0.368,-0.366 0.482,-0.811 0.346,-1.331 -0.57,-2.051 -2.018,-3.82 -4.345,-5.305"
             id="path3083"
             style="fill:#231f20;fill-opacity:1;fill-rule:nonzero;stroke:none" />
        </g>
        <g
           transform="translate(112.3445,1037.1908)"
           id="g3085">
          <path
             d="m 0,0 c 0,0.858 -0.382,1.579 -1.143,2.165 -0.761,0.585 -1.7,0.88 -2.816,0.88 -1.359,0 -2.623,-0.378 -3.793,-1.131 -1.496,-0.964 -2.243,-2.113 -2.243,-3.453 0,-0.671 0.258,-1.286 0.775,-1.851 0.816,-0.734 1.876,-1.099 3.182,-1.099 2.665,0 4.759,-0.744 6.282,-2.228 1.114,-1.087 1.673,-2.322 1.673,-3.703 0,-0.501 -0.081,-1.037 -0.244,-1.598 -0.571,-2.052 -2.014,-3.82 -4.326,-5.306 -2.311,-1.485 -4.827,-2.228 -7.546,-2.228 -2.721,0 -4.829,0.732 -6.325,2.199 -1.087,1.066 -1.631,2.29 -1.631,3.671 0,0.521 0.082,1.077 0.245,1.664 0.136,0.522 0.489,0.967 1.06,1.332 0.572,0.364 1.21,0.547 1.918,0.547 0.68,0 1.204,-0.183 1.571,-0.547 0.366,-0.365 0.482,-0.81 0.346,-1.332 -0.081,-0.295 -0.122,-0.569 -0.122,-0.819 0,-0.711 0.272,-1.329 0.816,-1.851 0.762,-0.732 1.822,-1.099 3.182,-1.099 1.305,0 2.543,0.367 3.713,1.099 1.551,0.963 2.325,2.101 2.325,3.421 0,0.857 -0.382,1.574 -1.142,2.149 -0.763,0.575 -1.7,0.862 -2.815,0.862 -2.747,0 -4.869,0.734 -6.366,2.198 -1.06,1.047 -1.59,2.249 -1.59,3.609 0,0.545 0.082,1.12 0.246,1.727 0.571,2.092 2.004,3.869 4.304,5.334 2.296,1.465 4.82,2.196 7.567,2.196 2.637,0 4.719,-0.74 6.242,-2.227 C 4.487,3.472 5.059,2.226 5.059,0.847 5.059,0.346 4.983,-0.173 4.833,-0.708 4.685,-1.241 4.323,-1.69 3.753,-2.055 3.181,-2.421 2.543,-2.607 1.836,-2.607 c -0.68,0 -1.204,0.186 -1.57,0.552 -0.37,0.365 -0.485,0.81 -0.348,1.333 C -0.028,-0.473 0,-0.23 0,0"
             id="path3087"
             style="fill:#ed1c24;fill-opacity:1;fill-rule:nonzero;stroke:none" />
        </g>
        <g
           transform="translate(122.9921,1025.1721)"
           id="g3089">
          <path
             d="m 0,0 c -0.082,-0.294 -0.124,-0.567 -0.124,-0.817 0,-0.711 0.274,-1.331 0.818,-1.853 0.76,-0.732 1.821,-1.097 3.181,-1.097 1.36,0 2.618,0.371 3.773,1.114 1.156,0.742 1.87,1.626 2.143,2.653 l 4.691,16.945 c 0.136,0.523 0.49,0.969 1.062,1.334 0.57,0.366 1.21,0.548 1.917,0.548 0.679,0 1.204,-0.182 1.57,-0.548 0.368,-0.365 0.482,-0.811 0.348,-1.334 L 14.686,0 C 14.116,-2.052 12.673,-3.82 10.362,-5.306 8.05,-6.791 5.535,-7.534 2.815,-7.534 c -2.721,0 -4.828,0.734 -6.324,2.199 -1.088,1.066 -1.632,2.29 -1.632,3.671 0,0.522 0.082,1.077 0.246,1.664 l 4.691,16.945 c 0.136,0.523 0.488,0.969 1.06,1.334 0.572,0.366 1.21,0.548 1.917,0.548 0.68,0 1.204,-0.182 1.572,-0.548 0.366,-0.365 0.482,-0.811 0.346,-1.334 L 0,0 z"
             id="path3091"
             style="fill:#ed1c24;fill-opacity:1;fill-rule:nonzero;stroke:none" />
        </g>
        <g
           transform="translate(148.0815,1042.1172)"
           id="g3093">
          <path
             d="m 0,0 c 0.136,0.522 0.488,0.969 1.061,1.333 0.571,0.368 1.209,0.549 1.916,0.549 0.68,0 1.204,-0.181 1.57,-0.549 C 4.915,0.969 5.031,0.522 4.895,0 l -6.242,-22.594 c -0.135,-0.524 -0.489,-0.969 -1.06,-1.335 -0.572,-0.368 -1.212,-0.55 -1.918,-0.55 -0.68,0 -1.203,0.182 -1.571,0.55 -0.366,0.366 -0.482,0.811 -0.346,1.335 L 0,0 z"
             id="path3095"
             style="fill:#ed1c24;fill-opacity:1;fill-rule:nonzero;stroke:none" />
        </g>
        <g
           transform="translate(171.0495,1037.1908)"
           id="g3097">
          <path
             d="m 0,0 c 0,0.858 -0.382,1.579 -1.142,2.165 -0.762,0.585 -1.699,0.88 -2.815,0.88 -1.36,0 -2.625,-0.378 -3.795,-1.131 -1.494,-0.964 -2.242,-2.113 -2.242,-3.453 0,-0.671 0.257,-1.286 0.774,-1.851 0.816,-0.734 1.878,-1.099 3.183,-1.099 2.664,0 4.759,-0.744 6.283,-2.228 1.114,-1.087 1.673,-2.322 1.673,-3.703 0,-0.501 -0.083,-1.037 -0.246,-1.598 -0.571,-2.052 -2.013,-3.82 -4.324,-5.306 -2.312,-1.485 -4.829,-2.228 -7.548,-2.228 -2.72,0 -4.827,0.732 -6.323,2.199 -1.088,1.066 -1.632,2.29 -1.632,3.671 0,0.521 0.082,1.077 0.244,1.664 0.136,0.522 0.49,0.967 1.062,1.332 0.57,0.364 1.208,0.547 1.917,0.547 0.679,0 1.203,-0.183 1.572,-0.547 0.364,-0.365 0.48,-0.81 0.344,-1.332 -0.08,-0.295 -0.12,-0.569 -0.12,-0.819 0,-0.711 0.27,-1.329 0.814,-1.851 0.762,-0.732 1.823,-1.099 3.183,-1.099 1.306,0 2.542,0.367 3.713,1.099 1.55,0.963 2.325,2.101 2.325,3.421 0,0.857 -0.381,1.574 -1.143,2.149 -0.762,0.575 -1.7,0.862 -2.814,0.862 -2.748,0 -4.87,0.734 -6.366,2.198 -1.059,1.047 -1.589,2.249 -1.589,3.609 0,0.545 0.081,1.12 0.244,1.727 0.571,2.092 2.005,3.869 4.304,5.334 2.296,1.465 4.82,2.196 7.568,2.196 2.638,0 4.718,-0.74 6.243,-2.227 C 4.489,3.472 5.059,2.226 5.059,0.847 5.059,0.346 4.983,-0.173 4.833,-0.708 4.685,-1.241 4.325,-1.69 3.755,-2.055 3.183,-2.421 2.543,-2.607 1.836,-2.607 c -0.68,0 -1.203,0.186 -1.57,0.552 -0.368,0.365 -0.484,0.81 -0.348,1.333 C -0.028,-0.473 0,-0.23 0,0"
             id="path3099"
             style="fill:#ed1c24;fill-opacity:1;fill-rule:nonzero;stroke:none" />
        </g>
        <g
           transform="translate(193.8959,1037.1908)"
           id="g3101">
          <path
             d="m 0,0 c 0,0.858 -0.382,1.579 -1.143,2.165 -0.761,0.585 -1.7,0.88 -2.816,0.88 -1.358,0 -2.623,-0.378 -3.793,-1.131 -1.496,-0.964 -2.243,-2.113 -2.243,-3.453 0,-0.671 0.258,-1.286 0.775,-1.851 0.816,-0.734 1.878,-1.099 3.183,-1.099 2.664,0 4.758,-0.744 6.281,-2.228 1.116,-1.087 1.673,-2.322 1.673,-3.703 0,-0.501 -0.081,-1.037 -0.245,-1.598 -0.572,-2.052 -2.012,-3.82 -4.323,-5.306 -2.313,-1.485 -4.829,-2.228 -7.55,-2.228 -2.718,0 -4.827,0.732 -6.321,2.199 -1.089,1.066 -1.633,2.29 -1.633,3.671 0,0.521 0.082,1.077 0.245,1.664 0.136,0.522 0.49,0.967 1.06,1.332 0.572,0.364 1.21,0.547 1.918,0.547 0.68,0 1.204,-0.183 1.571,-0.547 0.366,-0.365 0.482,-0.81 0.346,-1.332 -0.081,-0.295 -0.122,-0.569 -0.122,-0.819 0,-0.711 0.271,-1.329 0.816,-1.851 0.762,-0.732 1.822,-1.099 3.182,-1.099 1.307,0 2.543,0.367 3.713,1.099 1.551,0.963 2.325,2.101 2.325,3.421 0,0.857 -0.382,1.574 -1.142,2.149 -0.762,0.575 -1.701,0.862 -2.814,0.862 -2.748,0 -4.87,0.734 -6.366,2.198 -1.061,1.047 -1.591,2.249 -1.591,3.609 0,0.545 0.082,1.12 0.246,1.727 0.571,2.092 2.005,3.869 4.303,5.334 2.299,1.465 4.821,2.196 7.568,2.196 2.637,0 4.719,-0.74 6.242,-2.227 C 4.487,3.472 5.059,2.226 5.059,0.847 5.059,0.346 4.983,-0.173 4.835,-0.708 4.683,-1.241 4.325,-1.69 3.755,-2.055 3.183,-2.421 2.543,-2.607 1.836,-2.607 c -0.68,0 -1.204,0.186 -1.57,0.552 -0.368,0.365 -0.484,0.81 -0.348,1.333 C -0.028,-0.473 0,-0.23 0,0"
             id="path3103"
             style="fill:#ed1c24;fill-opacity:1;fill-rule:nonzero;stroke:none" />
        </g>
        <g
           transform="translate(206.6236,1032.7017)"
           id="g3105">
          <path
             d="m 0,0 4.896,0 c 1.332,0 2.57,0.365 3.713,1.099 1.552,0.982 2.324,2.124 2.324,3.421 0,0.837 -0.38,1.549 -1.142,2.135 C 9.031,7.24 8.093,7.534 6.976,7.534 5.618,7.534 4.367,7.166 3.225,6.434 2.083,5.7 1.361,4.812 1.061,3.767 L 0,0 z m 8.262,-12.835 c -2.324,-1.485 -4.833,-2.228 -7.527,-2.228 -2.72,0 -4.828,0.734 -6.324,2.198 -1.087,1.066 -1.63,2.29 -1.63,3.672 0,0.522 0.081,1.077 0.243,1.664 l 3.143,11.296 c 0.57,2.092 1.997,3.869 4.283,5.335 2.285,1.464 4.814,2.196 7.589,2.196 2.638,0 4.716,-0.742 6.241,-2.228 1.14,-1.109 1.714,-2.353 1.714,-3.735 0,-0.5 -0.085,-1.024 -0.245,-1.568 C 15.179,1.715 13.736,-0.051 11.425,-1.536 9.113,-3.024 6.596,-3.767 3.877,-3.767 l -4.897,0 -1.06,-3.762 c -0.08,-0.294 -0.122,-0.567 -0.122,-0.818 0,-0.71 0.271,-1.33 0.816,-1.852 0.76,-0.733 1.822,-1.099 3.181,-1.099 1.332,0 2.585,0.372 3.755,1.116 1.17,0.741 1.888,1.625 2.16,2.653 0.136,0.522 0.498,0.967 1.083,1.331 0.583,0.367 1.216,0.549 1.898,0.549 0.676,0 1.205,-0.182 1.57,-0.549 0.367,-0.364 0.483,-0.809 0.347,-1.331 -0.57,-2.052 -2.019,-3.82 -4.346,-5.306"
             id="path3107"
             style="fill:#ed1c24;fill-opacity:1;fill-rule:nonzero;stroke:none" />
        </g>
        <g
           transform="translate(92.3431,1097.803)"
           id="g3109">
          <path
             d="m 0,0 c 3.704,6.693 12.205,14.74 18.276,19.082 2.044,1.464 -0.064,2.8 -1.878,2.46 -3.845,-0.721 -27.208,-6.815 -30.944,-25.956 -2.149,-11.02 5.759,-17.675 8.094,-18.7 2.336,-1.024 3.522,-0.434 2.957,1.076 C -4.302,-19.889 -6.299,-11.375 0,0"
             id="path3111"
             style="fill:#231f20;fill-opacity:1;fill-rule:nonzero;stroke:none" />
        </g>
        <g
           transform="translate(74.2429,1085.8071)"
           id="g3113">
          <path
             d="m 0,0 c 0.032,-3.325 2.523,-14.717 13.429,-16.627 14.38,-2.52 32.038,5.323 41.021,19.955 6.249,10.181 7.658,16.406 8.265,18.613 0.417,1.522 2.222,2.067 2.006,-1.312 C 63.891,7.766 52.023,-38.43 15.89,-32.656 -6.211,-29.127 -2.104,-3.467 -1.924,-1.309 -1.701,1.36 -0.019,1.747 0,0"
             id="path3115"
             style="fill:#ed1c24;fill-opacity:1;fill-rule:nonzero;stroke:none" />
        </g>
      </g>
    </g>
  </g>
</svg>
