<svg width="159" height="48" viewBox="0 0 159 48" fill="none" xmlns="http://www.w3.org/2000/svg">
<path d="M25.8994 10.9813C24.6562 10.9813 23.6202 12.0173 23.6202 13.2604V16.9209C21.6173 12.846 17.7497 10.3597 13.0533 10.3597C9.32377 10.3597 6.21585 11.6719 3.72951 14.2273C1.24317 16.7827 0 20.0288 0 23.8964C0 27.7641 1.24317 30.9411 3.72951 33.5655C6.21585 36.1209 9.32377 37.4332 13.0533 37.4332C15.4015 37.4332 17.4734 36.8806 19.3382 35.6375C21.203 34.4634 22.5843 32.8749 23.6202 30.872V34.5324C23.6202 36.8116 22.7914 38.6073 21.1339 40.0576C19.4763 41.4389 17.3353 42.1296 14.5727 42.1296C11.1885 42.1296 8.35686 41.0245 6.83743 39.1598C6.35398 38.6073 5.66333 38.331 4.97268 38.331C3.10792 38.331 2.00289 40.3339 2.9698 41.9915C3.79858 43.3728 4.83455 44.4778 6.14678 45.4447C8.49499 47.1713 11.3267 48.0001 14.6418 48.0001C18.7166 48.0001 22.0317 46.7569 24.5181 44.3397C27.0044 41.8533 28.2476 38.6763 28.2476 34.6015V13.2604C28.1785 12.0173 27.1425 10.9813 25.8994 10.9813ZM20.9267 29.3526C19.131 30.872 16.9209 31.5626 14.1583 31.5626C11.3957 31.5626 9.18564 30.8029 7.45902 29.3526C5.66333 27.9022 4.76548 26.0374 4.76548 23.8964C4.76548 21.6864 5.66333 19.8216 7.45902 18.3712C9.25471 16.9209 11.4648 16.1612 14.1583 16.1612C16.8519 16.1612 19.131 16.9209 20.9267 18.3712C22.7224 19.8216 23.6202 21.6864 23.6202 23.8964C23.5512 26.1065 22.7224 27.9022 20.9267 29.3526Z" fill="#F9485E"/>
<path d="M44.1326 10.3597C40.0578 10.3597 36.6736 11.6719 33.9801 14.2964C31.2865 16.9899 29.9052 20.236 29.9052 24.1727C29.9052 28.1094 31.2175 31.4245 33.9801 34.118C36.6736 36.8116 40.0578 38.1238 44.1326 38.1238C48.1384 38.1238 51.5226 36.8116 54.2852 34.118C56.9787 31.4245 58.36 28.1785 58.36 24.1727C58.36 20.236 57.0478 16.9209 54.2852 14.2964C51.5916 11.6719 48.2075 10.3597 44.1326 10.3597ZM50.901 29.767C49.1053 31.2173 46.8952 31.977 44.2017 31.977C41.5082 31.977 39.229 31.2173 37.5024 29.767C35.7067 28.3166 34.8089 26.4518 34.8089 24.2418C34.8089 22.0317 35.7067 20.1669 37.5024 18.7166C39.2981 17.2662 41.5082 16.5065 44.2017 16.5065C46.8952 16.5065 49.1744 17.2662 50.901 18.7166C52.6967 20.1669 53.5945 22.0317 53.5945 24.2418C53.5945 26.4518 52.6276 28.3166 50.901 29.767Z" fill="#F9485E"/>
<path d="M66.993 5.93959C67.7527 6.56117 68.7887 6.9065 69.9628 6.9065C71.1369 6.9065 72.1728 6.56117 72.9326 5.93959C73.6923 5.318 74.1067 4.48922 74.1067 3.45325C74.1067 2.48634 73.6923 1.65756 72.9326 0.96691C72.1728 0.345325 71.1369 0 69.9628 0C68.7887 0 67.7527 0.345325 66.993 0.96691C66.1642 1.58849 65.8189 2.41727 65.8189 3.45325C65.8189 4.48922 66.2333 5.318 66.993 5.93959Z" fill="#F9485E"/>
<path d="M87.6433 5.93959C88.403 6.56117 89.439 6.9065 90.6131 6.9065C91.7872 6.9065 92.8232 6.56117 93.5829 5.93959C94.3426 5.318 94.757 4.48922 94.757 3.45325C94.757 2.48634 94.3426 1.65756 93.5829 0.96691C92.8232 0.345325 91.7872 0 90.6131 0C89.439 0 88.403 0.345325 87.6433 0.96691C86.8146 1.58849 86.4692 2.41727 86.4692 3.45325C86.4002 4.48922 86.8146 5.318 87.6433 5.93959Z" fill="#F9485E"/>
<path d="M117.549 10.3602C115.201 10.3602 113.129 10.9817 111.264 12.1558C109.399 13.399 108.018 14.9875 106.982 17.1285V2.34862C106.982 1.10545 105.946 0.0694752 104.703 0.0694752C103.46 0.0694752 102.424 1.10545 102.424 2.34862V35.1545C102.424 36.3977 103.46 37.4336 104.703 37.4336C105.946 37.4336 106.982 36.3977 106.982 35.1545V31.3559C108.985 35.4998 112.852 38.1243 117.549 38.1243C121.278 38.1243 124.317 36.8121 126.873 34.1185C129.359 31.425 130.602 28.1789 130.602 24.1732C130.602 20.2365 129.359 16.9213 126.873 14.2969C124.317 11.6724 121.209 10.3602 117.549 10.3602ZM123.143 29.7674C121.347 31.2178 119.137 31.9775 116.375 31.9775C113.681 31.9775 111.402 31.2178 109.675 29.7674C107.88 28.3171 106.982 26.4523 106.982 24.2422C106.982 22.0321 107.88 20.1674 109.675 18.717C111.471 17.2667 113.681 16.5069 116.375 16.5069C119.068 16.5069 121.347 17.2667 123.143 18.717C124.939 20.1674 125.837 22.0321 125.837 24.2422C125.837 26.4523 124.87 28.3171 123.143 29.7674Z" fill="#F9485E"/>
<path d="M82.6013 28.3166C82.9466 28.1094 83.361 27.9022 83.8445 27.7641C85.2258 27.2806 87.3668 26.8662 90.2675 26.5209C93.3754 26.1065 95.8618 25.2777 97.7265 23.9655C99.5913 22.6533 100.558 20.8576 100.558 18.5094C100.558 16.023 99.4531 14.0201 97.3121 12.5698C95.1711 11.1194 92.4085 10.3597 89.1625 10.3597C85.8473 10.3597 83.0847 11.1885 80.8747 12.846C80.5293 13.1223 80.2531 13.3986 79.9077 13.6748C79.6315 13.3986 79.2862 13.1223 79.0099 12.846C76.7998 11.1885 74.0372 10.3597 70.7221 10.3597C67.4761 10.3597 64.7134 11.1194 62.5724 12.5698C60.4314 14.0201 59.3264 16.023 59.3264 18.5094C59.3264 20.7885 60.2933 22.5842 62.158 23.9655C64.0228 25.2777 66.5091 26.1756 69.6171 26.5209C72.5178 26.9353 74.6588 27.2806 76.0401 27.7641C76.5236 27.9022 76.938 28.1094 77.2833 28.3166C77.8358 28.6619 78.1121 29.1454 78.1121 29.6288C78.1121 30.1123 77.8358 30.5957 77.2833 31.0101C77.007 31.2173 76.5926 31.4245 76.1092 31.5626C74.7279 32.1152 73.0012 32.3224 70.8602 32.3224C68.7192 32.3224 66.9235 31.977 65.5422 31.3554C64.7135 31.0101 64.1609 30.5267 63.8156 30.0432C63.4012 29.3526 62.6415 28.9382 61.8127 28.9382C60.0861 28.9382 58.912 30.7339 59.6717 32.3224C60.2242 33.4965 61.1221 34.5324 62.2962 35.4993C64.5753 37.295 67.407 38.1929 70.7912 38.1929C74.2444 38.1929 77.0761 37.4332 79.3552 35.9137C79.5624 35.7756 79.7696 35.6375 79.9077 35.4993C80.1149 35.6375 80.2531 35.7756 80.4603 35.9137C82.7394 37.4332 85.5711 38.1929 89.0243 38.1929C92.4776 38.1929 95.3092 37.295 97.5193 35.4993C98.6934 34.5324 99.5913 33.4965 100.144 32.3224C100.904 30.7339 99.7294 28.9382 98.0028 28.9382C97.174 28.9382 96.4143 29.3526 95.9999 30.0432C95.6546 30.5267 95.102 31.0101 94.2733 31.3554C92.892 31.977 91.0963 32.3224 88.9553 32.3224C86.8142 32.3224 85.0186 32.0461 83.7063 31.5626C83.2229 31.3554 82.8775 31.2173 82.5322 31.0101C81.9797 30.5957 81.7034 30.1813 81.7034 29.6288C81.7725 29.0763 82.0488 28.6619 82.6013 28.3166ZM79.9077 24.2418C78.1811 22.9986 75.6257 22.1698 72.2415 21.6863C66.5091 20.9266 63.9537 20.0979 63.9537 18.6475C63.9537 17.8878 64.5753 17.2662 65.8876 16.7827C67.1307 16.2993 68.7883 16.0921 70.7221 16.0921C72.1034 16.0921 73.2775 16.2302 74.3135 16.5065C75.7638 16.8518 76.8689 17.2662 77.7667 17.6806C79.2862 18.4403 79.9077 19.1309 79.9077 19.1309C79.9077 19.1309 80.5293 18.4403 82.0488 17.6806C82.8775 17.2662 84.0517 16.8518 85.502 16.5065C85.502 16.5065 85.502 16.5065 85.5711 16.5065C86.6071 16.2302 87.7812 16.0921 89.1625 16.0921C91.1653 16.0921 92.7538 16.2993 93.997 16.7827C95.2402 17.2662 95.9308 17.8878 95.9308 18.6475C95.9308 20.0979 93.3754 20.9266 87.643 21.6863C84.2588 22.1698 81.7034 22.9986 79.9077 24.2418Z" fill="#F9485E"/>
<path d="M156.57 10.5669C155.258 10.4979 154.153 11.5338 154.153 12.8461V23.2058V24.518C154.153 24.5871 154.153 24.6562 154.153 24.7943C154.153 25.0015 154.084 25.1396 154.084 25.2778V25.3468C154.015 25.554 154.015 25.7612 153.946 25.9684C153.876 26.1756 153.807 26.3828 153.738 26.5209V26.59C153.669 26.7281 153.6 26.8663 153.531 27.0044C153.462 27.0735 153.462 27.2116 153.393 27.2806C152.979 28.0404 152.357 28.731 151.597 29.3526C151.321 29.5598 151.114 29.767 150.838 29.9051C150.769 29.9051 150.769 29.9742 150.699 29.9742C150.147 30.3195 149.594 30.5958 149.042 30.803C147.315 31.3555 145.451 31.2174 144.691 31.0792C142.895 30.803 141.307 30.1123 139.994 29.0073C138.199 27.4878 137.301 25.6922 137.301 23.4821V12.9842C137.301 12.6389 137.232 12.3626 137.094 12.0863C136.956 11.8101 136.817 11.5338 136.541 11.3266C136.127 10.9122 135.505 10.636 134.815 10.636C133.502 10.636 132.397 11.741 132.397 13.0533V23.5511C132.397 27.4188 133.64 30.6648 136.127 33.2893C136.472 33.6346 136.817 33.98 137.163 34.2562C137.922 34.9469 138.82 35.4994 139.718 35.9138C144.691 37.9857 148.213 36.6044 149.594 35.8447C149.663 35.7756 149.802 35.7066 149.871 35.6375C150.009 35.5684 150.147 35.4303 150.285 35.3612C151.943 34.2562 153.255 32.7368 154.153 30.872V34.5325C154.153 36.8116 153.324 38.6073 151.666 40.0577C150.009 41.439 147.868 42.1296 145.105 42.1296C141.721 42.1296 138.889 41.0246 137.37 39.1598C136.886 38.6073 136.196 38.331 135.505 38.331C133.64 38.331 132.535 40.3339 133.502 41.9224C133.779 42.4059 134.055 42.8203 134.4 43.2347C135.022 43.9944 135.712 44.616 136.541 45.2375C138.889 46.9642 141.721 47.7929 145.105 47.7929C148.766 47.7929 151.804 46.826 154.153 44.8922C154.429 44.616 154.705 44.4088 155.051 44.1325C157.537 41.6462 158.78 38.4001 158.78 34.3253V12.9842C158.711 11.741 157.813 10.636 156.57 10.5669Z" fill="#F9485E"/>
</svg>
