<?xml version="1.0" encoding="UTF-8"?>
<svg width="10px" height="10px" viewBox="0 0 10 10" version="1.1" xmlns="http://www.w3.org/2000/svg" xmlns:xlink="http://www.w3.org/1999/xlink">
    <title>Cells/Home Copy 2</title>
    <g id="for-invision" stroke="none" stroke-width="1" fill="none" fill-rule="evenodd">
        <g id="Breadcrumbs" transform="translate(-149.000000, -322.000000)" fill="#fff">
            <g id="instances" transform="translate(135.000000, 270.000000)">
                <g id="Cells/Home-Copy-2" transform="translate(13.000000, 51.000000)">
                    <path d="M1.725,4.96178571 L5.58214286,1.65428571 C5.82271544,1.44851504 6.17728456,1.44851504 6.41785714,1.65428571 L10.275,4.96178571 C10.4178028,5.0839303 10.5,5.2624424 10.5,5.45035714 L10.5,9.65464286 C10.5,10.0096831 10.2121831,10.2975 9.85714286,10.2975 L8.14392857,10.2975 C7.78888838,10.2975 7.50107143,10.0096831 7.50107143,9.65464286 L7.50107143,8.0475 C7.50107143,7.6924598 7.21325448,7.40464286 6.85821429,7.40464286 L5.14178571,7.40464286 C4.78674552,7.40464286 4.49892857,7.6924598 4.49892857,8.0475 L4.49892857,9.65464286 C4.49892857,10.0096831 4.21111162,10.2975 3.85607143,10.2975 L2.14285714,10.2975 C1.78781695,10.2975 1.5,10.0096831 1.5,9.65464286 L1.5,5.45035714 C1.5,5.2624424 1.58219716,5.0839303 1.725,4.96178571 Z" id="Storke"></path>
                </g>
            </g>
        </g>
    </g>
</svg>
