<svg width="688" height="296" viewBox="0 0 688 296" fill="none" xmlns="http://www.w3.org/2000/svg">
<path d="M584.449 3.34611L564.327 23.2411C559.891 27.6774 559.891 34.8844 564.327 39.3206L569.929 44.9227L621.347 0.0302734H592.489C589.476 0.0302734 586.584 1.2264 584.449 3.34611Z" fill="url(#paint0_linear_2103_76232)"/>
<path d="M614.731 0.0302734L569.929 44.9227L583.556 58.5495L651.235 0.0302734H614.731Z" fill="url(#paint1_linear_2103_76232)"/>
<path d="M642.09 0.0302811L583.556 58.5495L597.183 72.1762L670.616 9.81124L664.68 3.89119C662.303 1.40809 659.003 0 655.566 0H642.09V0.0302811Z" fill="url(#paint2_linear_2103_76232)"/>
<path d="M665.089 4.28516L597.183 72.1765L610.825 85.8184L682.002 21.2126L665.089 4.28516Z" fill="url(#paint3_linear_2103_76232)"/>
<path d="M616.124 91.1169L610.825 85.8176L678.852 18.0625L684.469 23.6797C688.906 28.116 689.299 34.8839 684.863 39.3202L632.809 91.132C628.191 95.7348 620.727 95.7197 616.124 91.1169Z" fill="url(#paint4_linear_2103_76232)"/>
<path d="M133.218 78V99.312C122.274 83.76 105.282 74.256 83.106 74.256C42.498 74.256 10.53 107.376 10.53 148.56C10.53 189.744 42.498 222.864 83.106 222.864C105.282 222.864 122.274 213.36 133.218 197.808V215.376C133.218 240.432 117.09 255.12 90.306 255.12C65.25 255.12 54.594 245.328 48.258 232.944L21.474 248.496C33.57 271.536 58.05 283.344 89.73 283.344C127.458 283.344 163.746 261.744 163.746 215.376V78H133.218ZM87.426 193.776C61.218 193.776 41.634 174.48 41.634 148.56C41.634 122.64 61.218 103.344 87.426 103.344C113.634 103.344 133.218 122.64 133.218 148.56C133.218 174.48 113.634 193.776 87.426 193.776ZM224.48 163.248H339.104C339.68 159.216 340.256 154.608 340.256 150.288C340.256 108.816 310.88 74.256 267.968 74.256C222.752 74.256 191.936 107.376 191.936 150C191.936 193.2 222.752 225.744 270.272 225.744C298.496 225.744 320.096 213.936 333.344 194.352L307.712 179.376C300.8 189.456 287.84 197.232 270.56 197.232C247.52 197.232 229.376 185.712 224.48 163.248ZM224.192 137.904C228.512 116.304 244.352 102.48 267.68 102.48C286.4 102.48 304.544 113.136 308.864 137.904H224.192ZM524.873 74.256C505.577 74.256 490.313 82.032 480.809 97.008C472.457 82.608 458.633 74.256 439.913 74.256C422.057 74.256 407.945 81.168 398.729 95.28V78H367.625V222H398.729V141.36C398.729 115.152 413.129 103.344 430.697 103.344C447.689 103.344 457.769 114.576 457.769 134.736V222H488.873V141.36C488.873 115.152 501.833 103.344 520.265 103.344C537.257 103.344 548.201 114.576 548.201 134.736V222H579.305V132.72C579.305 96.72 557.417 74.256 524.873 74.256Z" fill="#23262F"/>
<defs>
<linearGradient id="paint0_linear_2103_76232" x1="560.598" y1="43.8747" x2="591.454" y2="13.0191" gradientUnits="userSpaceOnUse">
<stop stop-color="#C774FF"/>
<stop offset="1" stop-color="#D677DB"/>
</linearGradient>
<linearGradient id="paint1_linear_2103_76232" x1="589.49" y1="43.7118" x2="613.375" y2="19.6648" gradientUnits="userSpaceOnUse">
<stop stop-color="#EF7A9D"/>
<stop offset="1" stop-color="#D677DB"/>
</linearGradient>
<linearGradient id="paint2_linear_2103_76232" x1="616.598" y1="42.6829" x2="638.363" y2="22.0008" gradientUnits="userSpaceOnUse">
<stop stop-color="#EF7A9D"/>
<stop offset="1" stop-color="#FF936D"/>
</linearGradient>
<linearGradient id="paint3_linear_2103_76232" x1="611.446" y1="72.4783" x2="662.663" y2="23.2158" gradientUnits="userSpaceOnUse">
<stop stop-color="#FFC846"/>
<stop offset="1" stop-color="#FF936D"/>
</linearGradient>
<linearGradient id="paint4_linear_2103_76232" x1="628.071" y1="82.1179" x2="677.858" y2="32.7601" gradientUnits="userSpaceOnUse">
<stop stop-color="#FFC846"/>
<stop offset="1" stop-color="#FFC846"/>
</linearGradient>
</defs>
</svg>
