<?xml version="1.0" encoding="UTF-8"?>
<svg xmlns:xodm="http://www.corel.com/coreldraw/odm/2003" xmlns="http://www.w3.org/2000/svg" xmlns:xlink="http://www.w3.org/1999/xlink" version="1.1" id="Layer_1" x="0px" y="0px" viewBox="0 0 2500 289" style="enable-background:new 0 0 2500 289;" xml:space="preserve">
<style type="text/css">
	.st0{fill:#03CA9B;}
	.st1{fill:#102331;}
</style>
<g id="Layer_x0020_1">
	<g id="_2497860394640">
		<g id="Layer_x0020_1_0">
			<path class="st0" d="M2211.5,188.4c-2.5-40.9,14.7-86.4,50-121.7c76.9-76.9,237.1-66.1,238-66.1     c-0.4,0.6-117.5,170.4-256.3,186.3C2232.5,188.2,2221.9,188.6,2211.5,188.4L2211.5,188.4L2211.5,188.4L2211.5,188.4z"></path>
			<path class="st0" d="M2227.7,240.7c4,6.3,8.7,12.2,14.1,17.6c47.5,47.5,133.3,38.7,191.6-19.7c77.1-77.1,66.1-238,66.1-238     c-0.4,0.9-84.4,189.1-217.7,230.1C2263.6,236.3,2245.4,239.6,2227.7,240.7L2227.7,240.7L2227.7,240.7z"></path>
			<path id="Curve" class="st1" d="M173.4,246.4H52.3v-71.2h121.1c30.3,0,45.7,16,45.7,36.7C219.1,231.8,204,246.4,173.4,246.4z      M169.5,137H52.3V77h117.1c31.9,0,44.4,12.4,44.4,29.4C213.9,122.1,199.4,137,169.5,137L169.5,137z M200.4,155.2     c51-1.8,69.4-29.8,69.4-60.3c0-33.4-24-61.1-82.6-61.1H0v255.1h192.8c48,0,83.9-22.2,83.9-69.8     C276.7,185.3,256.7,156.6,200.4,155.2L200.4,155.2L200.4,155.2L200.4,155.2z M338.5,33.8v255.1h52.3V33.8H338.5L338.5,33.8z      M603,82.1h115.2V33.8H435.5v48.3h115.2v206.8H603C603,288.9,603,82.1,603,82.1z M762.8,33.8v255.1h52.3v-99.6h122.7v-41.8H815.2     V77.7h199.4v-44L762.8,33.8L762.8,33.8L762.8,33.8z M1056.9,33.8v255.1h52.3V33.8H1056.9L1056.9,33.8L1056.9,33.8z M1231.9,95.9     l173.4,193h59.2V33.8h-51.7v183.9L1246.4,33.8h-66.5v255.1h52V95.9C1231.9,95.9,1231.9,95.9,1231.9,95.9z M1535.2,33.8v255.1h256     V246h-203.7v-70.1h122.1v-39.6h-122.1V77.7h203.7v-44L1535.2,33.8L1535.2,33.8L1535.2,33.8z M2141.6,33.8h-69.1l-88.2,89.8     l-87.5-89.8h-70.1l123.1,125.7l-127.7,129.4h69.1l92.5-94.1l92.1,94.1h70.4l-128-129.7L2141.6,33.8z"></path>
		</g>
	</g>
</g>
</svg>
