<?xml version="1.0" encoding="UTF-8"?>
<svg xmlns:xodm="http://www.corel.com/coreldraw/odm/2003" xmlns="http://www.w3.org/2000/svg" xmlns:xlink="http://www.w3.org/1999/xlink" version="1.1" id="Layer_1" x="0px" y="0px" viewBox="0 0 2500 595" style="enable-background:new 0 0 2500 595;" xml:space="preserve">
<style type="text/css">
	.st0{fill-rule:evenodd;clip-rule:evenodd;fill:#007AFF;}
	.st1{fill:#007AFF;}
</style>
<g id="Layer_x0020_1">
	<g id="_2285168962672">
		<g>
			<path class="st0" d="M208.3,0.2l147.1,230.4l-147.1,85.8L61.1,230.5L208.3,0.2L208.3,0.2z M106.2,219.6L208.3,59.8l102.1,159.8     l-102.1,59.5L106.2,219.6L106.2,219.6z"></path>
			<path class="st1" d="M208.1,366.9L37.4,267.4l-4.7,7.3C-19.8,357-8.1,464.8,61,533.9c81.3,81.3,213,81.3,294.3,0     c69.1-69.1,80.8-176.8,28.2-259.2l-4.7-7.3L208.1,366.9L208.1,366.9L208.1,366.9z"></path>
		</g>
		<path d="M813.2,493.4v-298H874v247.2h150.7v50.8H813.2L813.2,493.4z M1310.2,493.4V193h60.9v300.5H1310.2z M1673.4,193H1784    c25,0,44,1.9,57.1,5.7c17.6,5.2,32.7,14.4,45.2,27.7c12.6,13.2,22.1,29.4,28.7,48.7c6.5,19.2,9.8,42.9,9.8,71    c0,24.8-3.1,46-9.2,63.9c-7.5,21.9-18.2,39.6-32.1,53.1c-10.5,10.3-24.7,18.3-42.5,24c-13.4,4.3-31.2,6.4-53.6,6.4h-113.9V193    L1673.4,193z M1734.2,243.7v198.9h45.1c16.9,0,29-1,36.5-2.9c9.9-2.4,18-6.6,24.4-12.5c6.5-5.9,11.8-15.5,15.8-29    c4.1-13.4,6.2-31.8,6.2-55c0-23.2-2-41-6.2-53.4c-4.1-12.5-9.8-22.1-17.1-29.1c-7.3-6.9-16.6-11.7-28-14.1    c-8.4-1.9-25-2.9-49.6-2.9H1734.2z M2208.3,345c0-30.6,4.6-56.4,13.8-77.2c6.8-15.3,16.2-29.1,28-41.3    c11.8-12.2,24.8-21.2,38.8-27.1c18.7-7.9,40.4-11.9,64.8-11.9c44.3,0,79.7,13.8,106.4,41.3c26.6,27.6,39.9,65.8,39.9,114.9    c0,48.6-13.2,86.7-39.6,114.1c-26.4,27.5-61.7,41.2-105.8,41.2c-44.7,0-80.3-13.6-106.7-41C2221.5,430.6,2208.3,393,2208.3,345    L2208.3,345z M2270.9,343c0,34.1,7.9,59.9,23.6,77.5c15.7,17.6,35.7,26.4,59.9,26.4c24.3,0,44.1-8.7,59.7-26.2    c15.5-17.5,23.3-43.6,23.3-78.5c0-34.5-7.6-60.2-22.7-77.2c-15.1-17-35.2-25.5-60.3-25.5c-25,0-45.3,8.6-60.6,25.7    C2278.6,282.5,2270.9,308.4,2270.9,343L2270.9,343z"></path>
	</g>
</g>
</svg>
