<svg width="145" height="40" viewBox="0 0 145 40" fill="none" xmlns="http://www.w3.org/2000/svg"><path fill-rule="evenodd" clip-rule="evenodd" d="M18.831.072A9.94 9.94 0 0119.993 0h.045a8.14 8.14 0 013.457.751c.588.274 1.128.663 1.66 1.045l.062.046c.35.25.326.331.045.68-.066.081-.136.16-.21.235l-.497.498c-.995.996-1.99 1.992-2.988 2.984a61.51 61.51 0 01-.777.754c-.268.259-.537.517-.801.78-.338.336-.671.676-1.005 1.017-.266.271-.531.543-.8.812a46.07 46.07 0 01-.589.58c-.253.248-.506.496-.753.749-.338.345-.672.693-1.006 1.04-.38.397-.76.793-1.147 1.185-.285.29-.577.574-.869.858-.272.265-.544.53-.811.799-.32.325-.637.654-.953.984-.277.29-.555.579-.835.865-.25.254-.502.504-.755.755-.292.29-.584.58-.871.875-.313.32-.62.647-.928.974-.232.246-.464.493-.698.737-.13.134-.263.265-.396.395-.129.125-.257.251-.382.38l-.756.793a114.835 114.835 0 01-1.774 1.837l-.599.611-.677.701-.379.395-.03.031c-.05.053-.101.105-.158.15-.362.294-.56.297-.83-.082l-.066-.092c-.373-.524-.751-1.054-1.033-1.628-.56-1.138-.942-2.336-.883-3.256.02-2.412.647-4.225 1.972-5.78.199-.234.419-.45.64-.667.115-.114.23-.228.344-.345.198-.204.395-.41.592-.616.359-.374.717-.749 1.083-1.117.423-.426.852-.848 1.281-1.27.307-.301.613-.602.918-.906.225-.224.447-.45.67-.677a74.668 74.668 0 011.639-1.625 198.415 198.415 0 002.085-2.05c.341-.34.681-.683 1.021-1.025.597-.602 1.195-1.204 1.8-1.797C15.38 1.06 16.97.293 18.83.072zm7.373 8.404c.706-.862 1.644-1.197 2.726-1.238.06-.002.12-.004.18-.004 1.148 0 2.093.432 2.913 1.278 1.67 1.721 3.375 3.41 5.083 5.095 1.152 1.136 1.348 1.383 1.727 1.968 1.023 1.575 1.25 3.019 1.302 3.403.03.22.13 1.017.013 2.056a8.696 8.696 0 01-1.4 3.849c-.265.392-.622.8-1.36 1.591a68.382 68.382 0 01-1.837 1.871c-.332.329-.67.652-1.009.976-.28.268-.56.536-.837.807-.376.369-.747.741-1.118 1.114l-.515.516a1057.779 1057.779 0 01-1.782 1.778l-.83.832c-.354.355-.707.71-1.062 1.064-.255.254-.506.513-.758.771-.592.608-1.184 1.217-1.821 1.772-1.235 1.08-2.675 1.76-4.335 1.951-.417.048-.83.073-1.24.074h-.026c-1.207-.002-2.381-.223-3.504-.747-.553-.257-1.061-.616-1.564-.97l-.164-.115c-.325-.228-.327-.405-.053-.694.322-.342.656-.672.99-1.003a74.983 74.983 0 00.68-.678c.181-.182.363-.365.547-.544.475-.463.952-.923 1.428-1.384l.341-.329c.023-.022.047-.042.07-.062.03-.025.06-.05.087-.078.186-.19.372-.382.557-.574.361-.372.722-.745 1.088-1.113.313-.316.63-.627.949-.938.206-.202.413-.404.618-.607.235-.235.466-.473.696-.712.05-.052.099-.106.147-.159a5.16 5.16 0 01.174-.188c.105-.104.209-.208.312-.313.6-.6 1.198-1.2 1.802-1.796.29-.287.584-.57.878-.853.26-.25.52-.501.778-.755l.59-.574a56.122 56.122 0 001.716-1.717c.643-.681.966-1.54 1.078-2.458.133-1.087-.189-2.079-.764-2.994-.318-.506-.73-.551-1.171-.125-.664.64-1.326 1.282-1.989 1.924l-1.028.997-.67.648c-.844.818-1.689 1.637-2.535 2.453-.317.306-.635.61-.953.913-.466.445-.933.89-1.394 1.34-.51.5-1.018 1.003-1.525 1.506-.435.433-.87.865-1.308 1.295-.295.289-.596.572-.897.854-.184.172-.367.345-.549.518-.467.446-.932.893-1.398 1.34l-.648.62c-.377.362-.844.563-1.334.704-.667.191-1.352.185-2.03.066-.711-.124-1.31-.473-1.819-.983l-1.045-1.042c-.483-.48-.966-.96-1.447-1.444-.342-.344-.33-.389-.003-.714 1.28-1.27 2.558-2.541 3.836-3.812l1.342-1.335 2.347-2.332 1.566-1.555.652-.65c.488-.486.974-.972 1.465-1.454.272-.266.547-.528.821-.79.32-.306.639-.61.953-.921.309-.305.612-.616.916-.927.246-.252.492-.504.74-.753.316-.316.634-.628.953-.94l.654-.645c.259-.256.516-.513.773-.77.386-.385.772-.77 1.161-1.152.427-.418.859-.832 1.29-1.246a382.94 382.94 0 00.65-.623c.047-.043.094-.086.133-.134zm22.948 7.754c0 .561.31 1.005.927 1.33.618.326 1.37.607 2.257.843.888.236 1.78.51 2.68.825a5.06 5.06 0 012.274 1.6c.617.753.926 1.702.926 2.848 0 1.617-.623 2.886-1.87 3.807-1.247.921-2.813 1.382-4.7 1.382-1.662 0-3.089-.348-4.28-1.045-1.19-.696-2.055-1.662-2.594-2.898l3.134-1.819c.584 1.617 1.83 2.426 3.74 2.426 1.91 0 2.864-.629 2.864-1.887 0-.539-.309-.977-.927-1.314-.618-.337-1.37-.623-2.258-.86a35.76 35.76 0 01-2.678-.825 5.162 5.162 0 01-2.274-1.567c-.618-.73-.927-1.656-.927-2.779 0-1.55.59-2.797 1.769-3.74 1.18-.944 2.645-1.415 4.397-1.415 1.393 0 2.634.309 3.723.926a6.302 6.302 0 012.51 2.578l-3.066 1.718c-.584-1.28-1.64-1.92-3.167-1.92-.696 0-1.28.151-1.752.455-.472.303-.708.747-.708 1.33zm31.673-4.65h3.84l-5.29 16.846h-3.57L72.3 17.073l-3.538 11.355h-3.571L59.9 11.579h3.841l3.268 11.625 3.538-11.625h3.47l3.505 11.625 3.302-11.625zm9.973-3.201c-.45.449-.988.674-1.617.674-.63 0-1.174-.23-1.634-.691-.46-.46-.69-1.005-.69-1.634 0-.63.224-1.174.673-1.634.449-.46 1-.691 1.65-.691.652 0 1.202.23 1.652.69.45.461.674 1.006.674 1.635s-.236 1.179-.708 1.65zM91 28.426V11.58h-3.639v16.846h3.64zm13.747-17.284c2.314 0 4.291.859 5.931 2.577 1.639 1.719 2.459 3.813 2.459 6.284 0 2.494-.82 4.594-2.459 6.3-1.64 1.708-3.617 2.562-5.931 2.562-2.56 0-4.526-.944-5.896-2.83v9.13h-3.639V11.58h3.64v2.426c1.369-1.91 3.335-2.864 5.895-2.864zm-4.38 12.736c1.011 1.01 2.28 1.516 3.808 1.516 1.527 0 2.796-.51 3.807-1.533 1.011-1.022 1.516-2.308 1.516-3.858 0-1.55-.505-2.836-1.516-3.858-1.011-1.022-2.28-1.533-3.807-1.533-1.528 0-2.797.511-3.808 1.533-1.01 1.022-1.516 2.308-1.516 3.858 0 1.55.505 2.842 1.516 3.875zm18.936-2.325c.27 1.28.888 2.263 1.854 2.948.965.685 2.145 1.028 3.537 1.028 1.932 0 3.381-.696 4.347-2.089l2.999 1.752c-1.663 2.448-4.122 3.673-7.379 3.673-2.741 0-4.953-.837-6.638-2.51-1.685-1.674-2.527-3.79-2.527-6.352 0-2.516.831-4.621 2.493-6.318 1.662-1.695 3.796-2.543 6.402-2.543 2.471 0 4.498.865 6.082 2.594 1.583 1.73 2.375 3.83 2.375 6.3 0 .383-.045.888-.134 1.517h-13.411zm-.033-2.965h9.906c-.248-1.37-.815-2.404-1.702-3.1-.887-.696-1.926-1.044-3.116-1.044-1.348 0-2.471.37-3.37 1.112-.898.741-1.471 1.752-1.718 3.032zm20.241 6.369v.46h-1.499v4.418h-.487v-4.419h-1.499v-.46h3.485zm5.157 0v4.878h-.488v-4.14l-1.708 2.858h-.069l-1.708-2.858v4.14h-.488v-4.878h.607l1.624 2.718 1.623-2.718h.607z" fill="#FF4F27"/></svg>