<?xml version="1.0" encoding="utf-8"?>
<!-- Generator: Adobe Illustrator 26.0.3, SVG Export Plug-In . SVG Version: 6.00 Build 0)  -->
<svg version="1.0" id="katman_1" xmlns="http://www.w3.org/2000/svg" xmlns:xlink="http://www.w3.org/1999/xlink" x="0px" y="0px"
	 viewBox="0 0 600 450" style="enable-background:new 0 0 600 450;" xml:space="preserve">
<style type="text/css">
	.st0{fill:#FED955;}
	.st1{fill:#9090C7;}
	.st2{fill:#4956A2;}
</style>
<rect x="78" y="222.2" class="st0" width="8.2" height="8.2"/>
<rect x="78" y="238.6" class="st0" width="8.2" height="8.2"/>
<rect x="78" y="230.4" class="st0" width="8.2" height="8.2"/>
<rect x="78" y="246.8" class="st0" width="8.2" height="8.2"/>
<rect x="110.8" y="205.8" class="st0" width="8.2" height="8.2"/>
<rect x="110.8" y="263.2" class="st0" width="8.2" height="8.2"/>
<rect x="119" y="205.8" class="st0" width="8.2" height="8.2"/>
<rect x="127.2" y="205.8" class="st1" width="8.2" height="8.2"/>
<rect x="86.2" y="205.8" class="st1" width="8.2" height="8.2"/>
<rect x="135.4" y="255" class="st1" width="8.2" height="8.2"/>
<rect x="78" y="255" class="st1" width="8.2" height="8.2"/>
<rect x="119" y="197.6" class="st1" width="8.2" height="8.2"/>
<rect x="119" y="189.4" class="st2" width="8.2" height="8.2"/>
<rect x="119" y="279.6" class="st2" width="8.2" height="8.2"/>
<rect x="119" y="271.4" class="st1" width="8.2" height="8.2"/>
<rect x="102.6" y="197.6" class="st1" width="8.2" height="8.2"/>
<rect x="102.6" y="189.4" class="st2" width="8.2" height="8.2"/>
<rect x="102.6" y="279.6" class="st2" width="8.2" height="8.2"/>
<rect x="102.6" y="271.4" class="st1" width="8.2" height="8.2"/>
<rect x="110.8" y="197.6" class="st1" width="8.2" height="8.2"/>
<rect x="110.8" y="189.4" class="st2" width="8.2" height="8.2"/>
<rect x="110.8" y="279.6" class="st2" width="8.2" height="8.2"/>
<rect x="110.8" y="271.4" class="st1" width="8.2" height="8.2"/>
<rect x="94.4" y="197.6" class="st1" width="8.2" height="8.2"/>
<rect x="94.4" y="189.4" class="st2" width="8.2" height="8.2"/>
<rect x="94.4" y="279.6" class="st2" width="8.2" height="8.2"/>
<rect x="94.4" y="271.4" class="st1" width="8.2" height="8.2"/>
<rect x="135.4" y="214" class="st1" width="8.2" height="8.2"/>
<rect x="78" y="214" class="st1" width="8.2" height="8.2"/>
<rect x="127.2" y="263.2" class="st1" width="8.2" height="8.2"/>
<rect x="86.2" y="263.2" class="st1" width="8.2" height="8.2"/>
<rect x="143.6" y="222.2" class="st1" width="8.2" height="8.2"/>
<rect x="69.8" y="222.2" class="st1" width="8.2" height="8.2"/>
<rect x="61.6" y="222.2" class="st2" width="8.2" height="8.2"/>
<rect x="69.8" y="214" class="st2" width="8.2" height="8.2"/>
<rect x="143.6" y="214" class="st2" width="8.2" height="8.2"/>
<rect x="127.2" y="271.4" class="st2" width="8.2" height="8.2"/>
<rect x="69.8" y="255" class="st2" width="8.2" height="8.2"/>
<rect x="78" y="205.8" class="st2" width="8.2" height="8.2"/>
<rect x="135.4" y="205.8" class="st2" width="8.2" height="8.2"/>
<rect x="135.4" y="263.2" class="st2" width="8.2" height="8.2"/>
<rect x="78" y="263.2" class="st2" width="8.2" height="8.2"/>
<rect x="86.2" y="197.6" class="st2" width="8.2" height="8.2"/>
<rect x="127.2" y="197.6" class="st2" width="8.2" height="8.2"/>
<rect x="143.6" y="255" class="st2" width="8.2" height="8.2"/>
<rect x="86.2" y="271.4" class="st2" width="8.2" height="8.2"/>
<rect x="151.8" y="222.2" class="st2" width="8.2" height="8.2"/>
<rect x="143.6" y="230.4" class="st1" width="8.2" height="8.2"/>
<rect x="69.8" y="230.4" class="st1" width="8.2" height="8.2"/>
<rect x="61.6" y="230.4" class="st2" width="8.2" height="8.2"/>
<rect x="151.8" y="230.4" class="st2" width="8.2" height="8.2"/>
<rect x="143.6" y="238.6" class="st1" width="8.2" height="8.2"/>
<rect x="69.8" y="238.6" class="st1" width="8.2" height="8.2"/>
<rect x="61.6" y="238.6" class="st2" width="8.2" height="8.2"/>
<rect x="151.8" y="238.6" class="st2" width="8.2" height="8.2"/>
<rect x="143.6" y="246.8" class="st1" width="8.2" height="8.2"/>
<rect x="69.8" y="246.8" class="st1" width="8.2" height="8.2"/>
<rect x="61.6" y="246.8" class="st2" width="8.2" height="8.2"/>
<rect x="151.8" y="246.8" class="st2" width="8.2" height="8.2"/>
<rect x="119" y="263.2" class="st0" width="8.2" height="8.2"/>
<rect x="110.8" y="222.2" class="st0" width="8.2" height="8.2"/>
<rect x="110.8" y="238.6" class="st0" width="8.2" height="8.2"/>
<rect x="110.8" y="246.8" class="st0" width="8.2" height="8.2"/>
<rect x="110.8" y="214" class="st0" width="8.2" height="8.2"/>
<rect x="110.8" y="255" class="st0" width="8.2" height="8.2"/>
<rect x="94.4" y="238.6" class="st0" width="8.2" height="8.2"/>
<rect x="94.4" y="230.4" class="st0" width="8.2" height="8.2"/>
<rect x="94.4" y="246.8" class="st0" width="8.2" height="8.2"/>
<rect x="94.4" y="214" class="st0" width="8.2" height="8.2"/>
<rect x="94.4" y="255" class="st0" width="8.2" height="8.2"/>
<rect x="119" y="238.6" class="st0" width="8.2" height="8.2"/>
<rect x="119" y="230.4" class="st0" width="8.2" height="8.2"/>
<rect x="119" y="246.8" class="st0" width="8.2" height="8.2"/>
<rect x="119" y="214" class="st0" width="8.2" height="8.2"/>
<rect x="119" y="255" class="st0" width="8.2" height="8.2"/>
<rect x="102.6" y="205.8" class="st0" width="8.2" height="8.2"/>
<rect x="102.6" y="263.2" class="st0" width="8.2" height="8.2"/>
<rect x="94.4" y="205.8" class="st0" width="8.2" height="8.2"/>
<rect x="94.4" y="263.2" class="st0" width="8.2" height="8.2"/>
<rect x="102.6" y="222.2" class="st0" width="8.2" height="8.2"/>
<rect x="102.6" y="238.6" class="st0" width="8.2" height="8.2"/>
<rect x="94.4" y="222.2" class="st2" width="8.2" height="8.2"/>
<rect x="110.8" y="230.4" class="st2" width="8.2" height="8.2"/>
<rect x="127.2" y="222.2" class="st2" width="8.2" height="8.2"/>
<rect x="127.2" y="238.6" class="st2" width="8.2" height="8.2"/>
<rect x="127.2" y="230.4" class="st2" width="8.2" height="8.2"/>
<rect x="127.2" y="246.8" class="st2" width="8.2" height="8.2"/>
<rect x="127.2" y="214" class="st2" width="8.2" height="8.2"/>
<rect x="127.2" y="255" class="st2" width="8.2" height="8.2"/>
<rect x="86.2" y="222.2" class="st2" width="8.2" height="8.2"/>
<rect x="86.2" y="238.6" class="st2" width="8.2" height="8.2"/>
<rect x="86.2" y="230.4" class="st2" width="8.2" height="8.2"/>
<rect x="86.2" y="246.8" class="st2" width="8.2" height="8.2"/>
<rect x="86.2" y="214" class="st2" width="8.2" height="8.2"/>
<rect x="86.2" y="255" class="st2" width="8.2" height="8.2"/>
<rect x="119" y="222.2" class="st2" width="8.2" height="8.2"/>
<rect x="102.6" y="230.4" class="st2" width="8.2" height="8.2"/>
<rect x="102.6" y="246.8" class="st0" width="8.2" height="8.2"/>
<rect x="102.6" y="214" class="st0" width="8.2" height="8.2"/>
<rect x="102.6" y="255" class="st0" width="8.2" height="8.2"/>
<rect x="135.4" y="222.2" class="st0" width="8.2" height="8.2"/>
<rect x="135.4" y="238.6" class="st0" width="8.2" height="8.2"/>
<rect x="135.4" y="230.4" class="st0" width="8.2" height="8.2"/>
<rect x="135.4" y="246.8" class="st0" width="8.2" height="8.2"/>
<path d="M182.3,232.2v-26.6h5.3v5.3h16v-5.3h5.3v26.6h-5.3v-16h-16v16H182.3z M187.6,205.5v-5.3h16v5.3H187.6z"/>
<path d="M235.6,226.9v-10.7h5.3v10.7H235.6z M235.6,210.9v-5.3h5.3v5.3H235.6z M214.3,232.2v-32h21.3v5.3h-16v5.3h16v5.3h-16v10.7
	h16v5.3H214.3z"/>
<path d="M267.6,232.2v-16h5.3v16H267.6z M267.6,210.9v-5.3h5.3v5.3H267.6z M246.3,232.2v-32h21.3v5.3h-16v5.3h16v5.3h-16v16H246.3z"
	/>
<path d="M278.2,232.2v-26.6h5.3v5.3h16v-5.3h5.3v26.6h-5.3v-16h-16v16H278.2z M283.6,205.5v-5.3h16v5.3H283.6z"/>
<path d="M315.6,232.2v-5.3h16v5.3H315.6z M331.5,226.9v-5.3h5.3v5.3H331.5z M310.2,226.9v-21.3h5.3v21.3H310.2z M331.5,210.9v-5.3
	h5.3v5.3H331.5z M315.6,205.5v-5.3h16v5.3H315.6z"/>
<path d="M342.2,232.2v-26.6h5.3v5.3h16v-5.3h5.3v26.6h-5.3v-16h-16v16H342.2z M347.5,205.5v-5.3h16v5.3H347.5z"/>
<path d="M395.5,226.9v-21.3h5.3v21.3H395.5z M374.2,232.2v-32h21.3v5.3h-16v21.3h16v5.3H374.2z"/>
<path d="M406.2,232.2v-26.6h5.3v5.3h16v-5.3h5.3v26.6h-5.3v-16h-16v16H406.2z M411.5,205.5v-5.3h16v5.3H411.5z"/>
<path d="M459.5,226.9v-10.7h5.3v10.7H459.5z M459.5,210.9v-5.3h5.3v5.3H459.5z M438.1,232.2v-32h21.3v5.3h-16v5.3h16v5.3h-16v10.7
	h16v5.3H438.1z"/>
<path d="M491.4,232.2v-16h5.3v16H491.4z M491.4,210.9v-5.3h5.3v5.3H491.4z M470.1,232.2v-32h21.3v5.3h-16v5.3h16v5.3h-16v16H470.1z"
	/>
<path d="M502.1,232.2v-26.6h5.3v5.3h16v-5.3h5.3v26.6h-5.3v-16h-16v16H502.1z M507.4,205.5v-5.3h16v5.3H507.4z"/>
<path d="M534.1,232.2v-10.7h10.7v10.7H534.1z"/>
<path d="M193,258.8v-5.3h5.3v5.3H193z M182.3,274.8v-32h5.3v5.3h5.3v5.3h-5.3v21.3H182.3z M203.6,274.8v-21.3h-5.3v-5.3h5.3v-5.3
	h5.3v32H203.6z"/>
<path d="M219.6,274.8v-5.3h16v5.3H219.6z M214.3,269.5v-21.3h5.3v21.3H214.3z M235.6,269.5v-21.3h5.3v21.3H235.6z M219.6,248.2v-5.3
	h16v5.3H219.6z"/>
<path d="M256.9,258.8v-5.3h5.3v5.3H256.9z M246.3,274.8v-32h5.3v5.3h5.3v5.3h-5.3v21.3H246.3z M267.6,274.8v-5.3h-5.3v-10.7h5.3v-16
	h5.3v32H267.6z"/>
<path d="M278.2,274.8v-32h21.3v5.3h-16v5.3h10.7v5.3h-10.7v10.7h16v5.3H278.2z"/>
<path d="M315.6,274.8v-16h5.3v16H315.6z M310.2,258.8v-5.3h5.3v5.3H310.2z M320.9,258.8v-5.3h5.3v5.3H320.9z M304.9,253.5v-10.7h5.3
	v10.7H304.9z M326.2,253.5v-10.7h5.3v10.7H326.2z"/>
</svg>
