<?xml version="1.0" encoding="UTF-8"?>
<!-- Created with Inkscape (http://www.inkscape.org/) -->
<svg id="svg8" width="2300pt" height="750pt" version="1.1" viewBox="0 0 2300 750" xmlns="http://www.w3.org/2000/svg" xmlns:cc="http://creativecommons.org/ns#" xmlns:dc="http://purl.org/dc/elements/1.1/" xmlns:rdf="http://www.w3.org/1999/02/22-rdf-syntax-ns#">
 <metadata id="metadata5">
  <rdf:RDF>
   <cc:Work rdf:about="">
    <dc:format>image/svg+xml</dc:format>
    <dc:type rdf:resource="http://purl.org/dc/dcmitype/StillImage"/>
    <dc:title/>
   </cc:Work>
  </rdf:RDF>
 </metadata>
 <g id="layer1" transform="translate(130.54 515.7)">
  <g id="g2389" transform="matrix(27.821 0 0 27.821 3501.3 -6284.4)">
   <path id="path2337" transform="scale(.75)" d="m-112.74 289.43c-1.0907 5e-3 -1.9835 0.3577-2.6875 1.0684-0.80934 0.82134-1.2148 1.9842-1.2148 3.4922 3e-3 0.77585 0.11419 1.4602 0.33203 2.0527 4.1e-4 1e-3 -4.2e-4 3e-3 0 4e-3h2e-3c0.17457 0.47291 0.41931 0.88662 0.73438 1.2402 0.71599 0.79866 1.6896 1.1973 2.9336 1.1973 1.0093-5e-3 1.8307-0.2981 2.4707-0.88476 0.46934-0.432 0.80629-0.9474 1.0156-1.5527 0.0813-0.23466 0.14483-0.48538 0.1875-0.74804h-1.791c-0.0827 0.3-0.17777 0.54938-0.28711 0.74804-0.0533 0.0973-0.10992 0.18253-0.16992 0.25586-0.33333 0.416-0.81588 0.62109-1.4492 0.6211-0.62267 0-1.1326-0.24133-1.5312-0.72266-0.04-0.0493-0.0792-0.0996-0.11523-0.1543-0.32267-0.48133-0.48438-1.158-0.48438-2.0273 5e-3 -0.97467 0.19432-1.72 0.57031-2.248 0.38134-0.53467 0.89736-0.79883 1.5547-0.79883 0.64534 0 1.1316 0.18846 1.4609 0.56446 0.188 0.21733 0.33384 0.52683 0.45117 0.9375h1.8066c-0.0293-0.54534-0.22832-1.08-0.59765-1.6133-0.67467-0.95734-1.7354-1.4316-3.1914-1.4316z" fill-rule="evenodd"/>
   <path id="path2335" transform="scale(.75)" d="m-103.36 289.33c-1.2373 5e-3 -2.1833 0.34044-2.834 1.0098-0.88 0.79867-1.3145 1.9844-1.3145 3.5684 3e-3 0.816 0.12267 1.528 0.36133 2.1387 0.21734 0.56 0.53446 1.0357 0.95313 1.4277 0.65733 0.67466 1.602 1.0098 2.834 1.0098 1.2387-5e-3 2.182-0.34043 2.834-1.0098 0.41466-0.396 0.73188-0.8704 0.94922-1.4277 0.23867-0.61466 0.35938-1.3253 0.35938-2.1387-0.0053-1.5907-0.44059-2.7764-1.3086-3.5684-0.65734-0.67467-1.602-1.0098-2.834-1.0098zm0 1.5313c0.72133 5e-3 1.2852 0.27082 1.7012 0.79882 0.42267 0.53467 0.63477 1.28 0.63477 2.248 0 0.90533-0.1835 1.6187-0.54883 2.1387-0.028 0.04-0.0553 0.076-0.0859 0.11328-0.42133 0.528-0.98517 0.79297-1.7012 0.79297-0.72133 0-1.2922-0.26497-1.7148-0.79297-0.0293-0.0373-0.0579-0.0733-0.0859-0.11328-0.37067-0.52-0.55273-1.2333-0.55273-2.1387 5e-3 -0.97467 0.216-1.7259 0.63867-2.2539 0.428-0.528 0.99884-0.79296 1.7148-0.79296z" fill-rule="evenodd"/>
   <path id="path2333" transform="scale(.75)" d="m-97.463 289.59v8.6504h1.6855v-6.1445l3.5312 6.1445h1.8086v-8.6504h-1.6855v6.0391l-3.4434-6.0391z" fill-rule="evenodd"/>
   <path id="path2329" transform="scale(.75)" d="m-88.508 289.59 2.9219 8.6504h1.707l2.9531-8.6504h-1.8789l-1.8945 6.5664-1.877-6.5664z" fill-rule="evenodd"/>
   <path id="path2327" transform="scale(.75)" d="m-79.152 289.59v8.6504h6.5547v-1.5547h-4.7871v-2.2246h4.1992v-1.502h-4.1992v-1.8359h4.5762v-1.5332z" fill-rule="evenodd"/>
   <path id="path2325" transform="scale(.75)" d="m-71.367 289.59 2.6445 4.2422-2.7812 4.4082h2.1016l1.7383-2.9453 1.6426 2.9453h2.1934l-2.8105-4.4785 2.6465-4.1719h-2.0879l-1.584 2.8105-1.5449-2.8105z" fill-rule="evenodd"/>
   <path id="path2156" d="m-117.74 207.35c-0.93573 0.0632-1.8437 0.21873-2.7188 0.45996h10.544c0.99534-0.25572 2.0312-0.40505 3.1011-0.42481v-0.0352z"/>
   <path id="path2154" d="m-122.74 208.66c-0.3655 0.17577-0.72117 0.36648-1.0679 0.57276h10.433c0.35183-0.20727 0.71414-0.39749 1.0854-0.57276z"/>
   <path id="path2152" d="m-126.04 210.89c-0.2619 0.23866-0.51602 0.48464-0.75879 0.74267h10.427c0.242-0.25791 0.49446-0.50442 0.75586-0.74267z"/>
   <path id="path2150" d="m-128.15 213.29c-0.2769 0.40466-0.53294 0.82411-0.76612 1.2583h10.446c0.22935-0.43289 0.47647-0.85496 0.75-1.2583z"/>
   <path id="path2148" d="m-129.57 215.98c-0.2488 0.62669-0.45106 1.2758-0.60644 1.9438h10.468c0.14819-0.66877 0.35116-1.3164 0.59473-1.9438z"/>
   <path id="path2146" d="m-130.37 218.95c-0.0973 0.63578-0.16134 1.2825-0.16846 1.9438h10.507c-6e-5 -0.0178-3e-3 -0.0349-3e-3 -0.0527 0-0.64366 0.0605-1.2714 0.14796-1.8911z"/>
   <path id="path2144" d="m-130.51 221.7c0.0415 0.88201 0.16191 1.7414 0.36182 2.5723h10.573c-0.21816-0.82957-0.35743-1.6886-0.41309-2.5723z"/>
   <path id="path2142" d="m-129.93 225.13c0.26636 0.85866 0.61617 1.6806 1.0371 2.458h10.68c-0.44937-0.77476-0.82375-1.5957-1.1133-2.458z"/>
   <path id="path2140" d="m-128.38 228.45c0.68072 1.0636 1.5048 2.0225 2.4434 2.8594h10.885c-1.0094-0.82082-1.8986-1.7835-2.6353-2.8594z"/>
   <path id="path24" d="m-125.33 231.82c1.4351 1.1395 3.1025 1.9922 4.9204 2.4873h13.444c-2.7533-0.0833-5.2962-0.989-7.396-2.4873z"/>
   <path id="path2082" d="m-106.27 208.28c-2.0195 0-3.9207 0.48649-5.6104 1.3315 0.40748 0.27067 0.79705 0.56679 1.1719 0.8789h11.553c-2.0223-1.3922-4.471-2.2104-7.1147-2.2104z"/>
   <path id="path2080" d="m-110.12 211.01c0.97972 0.91548 1.8219 1.9737 2.4946 3.1436h11.981c-0.75781-1.201-1.7089-2.2637-2.8169-3.1436z"/>
   <path id="path2076" d="m-107.38 214.61c0.48053 0.91608 0.86158 1.8917 1.1221 2.9165h12.092c-0.28184-1.0316-0.68733-2.0094-1.207-2.9165z"/>
   <path id="path2072" d="m-106.28 224.27c-0.17627 0.67111-0.40808 1.3193-0.68115 1.9453h12.04c0.29494-0.62293 0.54196-1.271 0.73242-1.9453z"/>
   <path id="path2068" d="m-107.72 227.7c-0.25845 0.43524-0.54094 0.85488-0.84522 1.2568h11.887c0.33718-0.39829 0.64845-0.8182 0.93458-1.2568z"/>
   <path id="path2064" d="m-109.82 230.39c-0.32388 0.32229-0.66448 0.62719-1.0195 0.91552h11.53c0.41994-0.28004 0.81754-0.58826 1.1997-0.91552z"/>
   <path id="path2060" d="m-110.48 232.68c1.3152 0.47147 2.7298 0.73388 4.2085 0.73388 1.4758 0 2.885-0.26726 4.1997-0.73388z"/>
  </g>
 </g>
</svg>
