<svg width="486" height="105" viewBox="0 0 486 105" fill="none" xmlns="http://www.w3.org/2000/svg">
<path d="M146.397 2.37598L132.104 52.1763C130.227 58.6924 128.735 65.3013 127.628 72.0038C127.628 72.0502 127.628 72.0965 127.628 72.0965H127.195C126.81 68.3734 125.799 64.6499 125.173 61.485L109.437 2.37598H77.2407L61.6003 61.4386C60.9746 64.6035 59.9641 68.3266 59.5788 72.0502H59.1458C59.1458 72.0038 59.1458 71.957 59.1458 71.957C58.0389 65.2549 56.5472 58.6461 54.6702 52.1299L40.4251 2.37598H17.6138L24.3032 25.7869H0V42.5422H29.0676L33.8319 59.2043H0V76.0065H38.5963L46.2484 102.862H73.4871L91.9188 32.4425C92.4963 29.8361 93.0257 26.997 93.1701 24.9956H93.6032C93.7476 26.9504 94.277 29.8361 94.8545 32.4425L113.287 102.862H140.525L169.208 2.37598H146.397Z" fill="#053F33"/>
<path d="M206.649 2.37598H182.393V102.862H206.649V2.37598Z" fill="#053F33"/>
<path d="M225.13 2.37598V102.862H247.411V22.2962H284.371V2.37598H225.13Z" fill="#053F33"/>
<path d="M381.874 31.0439C379.949 24.9468 377.062 19.5944 373.212 14.9867C369.361 10.379 364.453 6.70211 358.485 4.0492C352.566 1.34974 345.058 0 336.973 0C329.418 0 322.199 1.25665 316.232 3.76995C310.264 6.28324 305.211 9.77392 301.12 14.3351C297.029 18.8963 293.853 24.3418 291.688 30.7646C289.522 37.1875 288.415 44.3551 288.415 52.3136C288.415 60.3658 289.522 67.6729 291.784 74.1423C294.046 80.6116 297.27 86.1039 301.409 90.6649C305.596 95.2263 310.697 98.7166 316.713 101.23C322.728 103.743 330.091 105 337.743 105C347.417 105 356.416 103.371 363.779 100.066C371.142 96.8087 376.917 92.2473 381.152 86.4763L367.437 71.6288C364.26 75.5851 360.651 78.7964 356.608 81.3562C352.566 83.9164 346.887 85.1729 340.535 85.1729C332.209 85.1729 324.942 82.9854 320.707 78.6104C316.761 74.5146 314.643 69.1622 314.354 62.5533H384.617L384.761 50.5916C384.761 43.6569 383.799 37.1409 381.874 31.0439ZM360.41 42.4003H314.354V41.8883C314.354 34.9534 316.327 31.2766 320.322 26.9016C324.316 22.5266 330.621 20.0599 337.406 20.0599C344.192 20.0599 350.496 22.5266 354.491 26.9016C358.485 31.2766 360.458 34.9534 360.458 41.8883V42.4003H360.41Z" fill="#053F33"/>
<path d="M383.944 102.862L419.46 51.7112L384.906 2.37598H413.974L435.39 35.5143H436.208L457.383 2.37598H484.476L449.344 52.0836L484.862 102.815H455.794L433.802 68.0475H432.984L411.039 102.862H383.944Z" fill="#053F33"/>
</svg>
