<?xml version="1.0" encoding="utf-8"?>
<!-- Generator: Adobe Illustrator 25.0.1, SVG Export Plug-In . SVG Version: 6.00 Build 0)  -->
<svg version="1.1" id="Layer_1" xmlns="http://www.w3.org/2000/svg" xmlns:xlink="http://www.w3.org/1999/xlink" x="0px" y="0px"
	 viewBox="0 0 1132.82 260.34" style="enable-background:new 0 0 1132.82 260.34;" xml:space="preserve">
<style type="text/css">
	.st0{fill:#1D4AA3;}
	.st1{fill:#FF5588;}
	.st2{fill:#FFFFFF;}
</style>
<g>
	<g>
		<path class="st0" d="M216.54,260.34H43.81C19.59,260.34,0,240.76,0,216.54V43.81C0,19.59,19.59,0,43.81,0h172.73
			c24.22,0,43.81,19.59,43.81,43.81v172.73C260.52,240.76,240.76,260.34,216.54,260.34z"/>
		<g>
			<path class="st1" d="M213.51,173.62V88.86c0-2.85-1.6-5.7-4.1-7.12l-73.37-42.38c-2.49-1.42-5.7-1.42-8.19,0L54.31,81.91
				c-2.49,1.42-4.1,4.1-4.1,7.12v84.76c0,2.85,1.6,5.7,4.1,7.12l73.37,42.38c2.49,1.42,5.7,1.42,8.19,0l73.37-42.38
				C211.91,179.32,213.51,176.65,213.51,173.62z"/>
			<path class="st2" d="M159.2,151.36l20.3-53.6c0.36-0.71,0.18-1.6-0.36-2.31c-0.53-0.71-1.25-1.07-2.14-1.07h-6.94l-0.18-0.18
				l-23.86-24.04c-0.53-0.53-1.07-0.71-1.78-0.71s-1.42,0.36-1.78,0.71l-9.44,9.44l-9.44-9.44c-1.07-1.07-2.67-1.07-3.74,0
				L95.98,94.02L95.8,94.2h-5.52l-6.05-24.22c0,0,0,0,0-0.18c-0.53-1.42-0.89-3.03-1.6-4.45l-4.45,2.67
				c0.36,0.89,0.71,1.96,1.25,3.21l22.44,91c1.25,4.63,2.49,9.62,7.84,11.93c-1.78,1.96-2.67,4.45-2.67,7.3
				c0,6.05,4.99,11.04,11.04,11.04c6.05,0,11.04-4.99,11.04-11.04c0-2.14-0.71-4.1-1.78-5.88h17.99c-1.07,1.78-1.78,3.74-1.78,5.88
				c0,6.05,4.99,11.04,11.04,11.04c6.05,0,11.04-4.99,11.04-11.04c0-2.85-1.07-5.52-3.03-7.48c0.18-0.36,0.18-0.53,0.18-0.89
				c0-1.42-1.25-2.67-2.67-2.67h-43.09c-7.84,0-8.73-3.38-10.15-9.44l-1.96-8.01h52C157.77,152.97,158.84,152.25,159.2,151.36z
				 M154.57,175.58c3.21,0,5.88,2.67,5.88,5.88s-2.67,5.88-5.88,5.88c-3.21,0-5.88-2.67-5.88-5.88
				C148.69,178.07,151.18,175.58,154.57,175.58z M117.88,175.58c3.21,0,5.88,2.67,5.88,5.88s-2.67,5.88-5.88,5.88
				c-3.21,0-5.88-2.67-5.88-5.88C112.01,178.07,114.68,175.58,117.88,175.58z M144.24,75.68l18.52,18.52h-15.31l-0.18-0.18
				l-10.68-10.68L144.24,75.68z M121.62,75.68l9.44,9.44c0,0,0,0,0,0.18c0,0,0,0,0.18,0l9.08,9.08H103.1L121.62,75.68z
				 M103.46,147.8L91.53,99.37h81.74l-18.34,48.44H103.46z"/>
			<path class="st1" d="M82.63,65.53l-4.45,2.67c-1.78-3.92-4.27-5.34-9.08-5.34H55.92v0.18c0,3.03-2.49,5.7-5.7,5.7
				c-3.03,0-5.7-2.49-5.7-5.7c0-3.03,2.49-5.7,5.7-5.7c0.53,0,1.07,0,1.6,0.18h17.1C76.75,57.7,80.49,61.08,82.63,65.53z"/>
		</g>
	</g>
	<g>
		<polygon points="332.82,189.35 411.41,189.35 411.41,166.45 357.26,166.45 357.26,137.4 406.35,137.4 406.35,115.6 357.26,115.6 
			357.26,86.98 411.41,86.98 411.41,63.87 332.82,63.87 		"/>
		<path d="M504.75,175.7v-42.93c0-4.4-0.66-8.59-1.98-12.55c-1.32-3.96-3.52-7.48-6.6-10.57c-3.08-3.08-6.82-5.5-11.67-7.26
			c-4.84-1.76-10.79-2.64-17.61-2.64c-5.94,0-11.01,0.88-15.63,2.64c-4.4,1.76-8.37,3.96-11.23,6.6c-3.08,2.64-5.5,5.72-7.26,9.25
			c-1.76,3.52-2.86,6.82-3.08,10.35l20.91,4.4c0.44-3.74,1.98-7.04,4.62-9.91c2.86-2.86,6.82-4.18,11.89-4.18s8.59,1.1,11.01,3.3
			c2.42,2.2,3.52,4.84,3.52,7.93c0,1.54-0.44,2.86-1.32,3.96c-0.88,1.1-2.64,1.76-5.06,2.2l-21.35,3.08
			c-3.74,0.66-7.04,1.54-10.13,2.86c-3.08,1.32-5.94,3.08-8.15,5.28c-2.42,2.2-4.18,4.84-5.5,7.93c-1.32,3.08-1.98,6.38-1.98,10.35
			c0,3.52,0.66,6.6,1.98,9.91c1.32,3.08,3.3,5.94,5.94,8.37c2.64,2.42,5.72,4.4,9.47,5.94c3.74,1.54,7.93,2.2,12.55,2.2
			c6.38,0,11.89-1.32,16.07-3.96c4.18-2.64,7.48-5.5,9.69-9.03c0,1.76,0,3.52,0.22,5.5c0.22,1.98,0.44,3.74,0.66,4.84h21.57
			c-0.22-1.54-0.44-3.52-0.66-6.38C504.75,180.54,504.75,177.9,504.75,175.7z M481.64,154.13c0,3.96-0.44,7.04-1.54,9.69
			c-1.1,2.64-2.42,4.62-4.18,6.16s-3.74,2.64-6.16,3.3c-2.2,0.66-4.62,0.88-7.26,0.88c-3.74,0-6.6-1.1-8.59-3.08
			c-1.98-1.98-2.86-4.4-2.86-7.04c0-3.52,1.1-5.94,3.08-7.71c1.98-1.76,4.62-2.86,7.71-3.3l19.59-3.08L481.64,154.13L481.64,154.13z
			"/>
		<path d="M565.29,136.74l-12.33-2.64c-2.42-0.44-4.18-1.32-5.72-2.64c-1.54-1.32-2.2-3.08-2.2-5.06c0-2.42,1.1-4.62,3.3-6.16
			c2.2-1.76,4.84-2.42,7.93-2.42c2.42,0,4.62,0.44,6.38,1.1s3.08,1.76,4.4,2.86c1.1,1.1,1.98,2.42,2.64,3.74
			c0.44,1.32,0.88,2.64,1.1,3.96l19.59-4.4c-0.22-2.42-1.1-5.06-2.2-7.93c-1.32-2.86-3.3-5.72-5.94-8.15
			c-2.64-2.64-6.16-4.84-10.35-6.38c-4.18-1.76-9.47-2.64-15.63-2.64c-4.62,0-9.03,0.66-12.99,2.2c-3.96,1.54-7.48,3.52-10.35,6.16
			c-2.86,2.64-5.06,5.5-6.82,9.03c-1.76,3.52-2.42,7.26-2.42,11.01c0,6.16,1.98,11.45,5.94,16.29c3.96,4.62,10.13,7.93,18.49,9.91
			l11.45,2.64c3.52,0.66,5.94,1.76,7.26,3.3c1.32,1.54,2.2,3.3,2.2,5.28c0,2.42-0.88,4.4-2.86,6.16c-1.98,1.76-4.84,2.64-8.59,2.64
			c-5.28,0-9.03-1.32-11.67-3.96c-2.64-2.64-3.96-5.72-4.18-9.25l-20.25,4.4c0.22,2.42,1.1,5.28,2.42,8.37
			c1.32,3.08,3.52,5.94,6.38,8.81c2.86,2.64,6.38,5.06,11.01,6.82c4.4,1.98,10.13,2.86,16.73,2.86c5.72,0,10.57-0.88,14.97-2.42
			c4.18-1.76,7.71-3.74,10.57-6.6c2.86-2.64,4.84-5.72,6.38-9.25c1.32-3.52,1.98-6.82,1.98-10.35c0-6.38-2.2-11.89-6.38-16.73
			C580.26,141.8,573.66,138.5,565.29,136.74z"/>
		<polygon points="646.74,153.25 623.63,102.39 597.21,102.39 634.2,178.34 613.72,223.69 638.6,223.69 693.41,102.39 
			668.32,102.39 		"/>
		<path d="M786.76,129.91c-2.86-3.3-6.6-5.94-11.01-8.37c-4.4-2.42-9.47-3.96-14.97-5.06l-17.61-3.3
			c-4.62-0.88-7.93-2.64-10.35-5.28c-2.2-2.64-3.3-5.5-3.3-9.03c0-2.2,0.44-4.18,1.32-5.94c0.88-1.98,2.2-3.52,3.96-5.06
			s3.74-2.64,6.16-3.52c2.42-0.88,5.06-1.32,8.15-1.32c3.96,0,7.48,0.66,10.13,1.76c2.86,1.1,5.06,2.64,6.82,4.4
			c1.76,1.76,3.08,3.74,3.96,5.72c0.88,1.98,1.54,3.96,1.76,5.72l22.01-6.82c-0.66-3.52-1.98-7.26-3.96-11.01
			c-1.98-3.74-4.62-7.26-8.15-10.57c-3.52-3.08-7.93-5.72-13.43-7.93c-5.28-1.98-11.89-3.08-19.37-3.08
			c-5.94,0-11.45,1.1-16.73,3.08c-5.28,1.98-9.91,4.84-14.09,8.37c-3.96,3.52-7.26,7.71-9.47,12.55s-3.52,9.91-3.52,15.41
			c0,9.47,3.08,17.39,9.03,23.56c5.94,6.16,13.87,10.35,24,12.33l17.61,3.52c5.06,0.88,8.81,2.64,11.23,5.5
			c2.64,2.64,3.96,5.72,3.96,9.47c0,4.4-1.76,8.15-5.28,11.01c-3.52,2.86-8.59,4.4-15.19,4.4c-4.4,0-8.37-0.66-11.67-1.98
			c-3.3-1.32-6.16-3.08-8.37-5.28s-3.96-4.62-5.28-7.48s-1.98-5.72-2.2-8.81l-22.45,5.94c0.44,4.4,1.76,9.03,3.96,13.65
			c2.2,4.62,5.28,8.81,9.25,12.55c3.96,3.74,9.03,6.82,15.19,9.25c5.94,2.42,13.21,3.52,21.57,3.52c7.26,0,13.87-1.1,19.37-3.3
			s10.35-5.06,14.09-8.81c3.74-3.52,6.82-7.71,8.81-12.33c1.98-4.62,3.08-9.47,3.08-14.31c0-4.4-0.66-8.59-2.2-12.55
			C791.6,136.74,789.4,132.99,786.76,129.91z"/>
		<path d="M844.43,76.2H823.3V88.3c0,3.96-1.1,7.26-3.3,9.91s-5.5,3.96-10.13,3.96h-4.4v20.91h15.85v40.73
			c0,8.59,2.42,15.19,7.48,19.81c5.06,4.62,11.67,7.04,20.25,7.04c3.52,0,6.16-0.22,8.37-0.66c2.2-0.44,3.74-0.88,4.84-1.32v-19.37
			c-0.66,0.22-1.54,0.44-3.08,0.44c-1.32,0.22-2.86,0.22-4.18,0.22c-3.52,0-5.94-0.66-7.71-2.2s-2.64-4.18-2.64-7.93v-36.54h17.61
			v-20.91h-17.61L844.43,76.2L844.43,76.2L844.43,76.2z"/>
		<path d="M952.96,112.74c-3.96-3.96-8.81-7.26-14.53-9.47c-5.5-2.2-11.67-3.52-18.05-3.52s-12.55,1.1-18.05,3.52
			c-5.5,2.2-10.35,5.5-14.53,9.47c-3.96,3.96-7.26,9.03-9.47,14.53c-2.2,5.72-3.52,11.89-3.52,18.49c0,6.82,1.1,12.99,3.52,18.49
			c2.2,5.5,5.5,10.57,9.47,14.53c3.96,4.18,8.81,7.26,14.53,9.69c5.5,2.2,11.67,3.52,18.05,3.52s12.55-1.1,18.05-3.52
			c5.5-2.2,10.35-5.5,14.53-9.69c3.96-4.18,7.26-9.03,9.47-14.53c2.2-5.5,3.52-11.67,3.52-18.49c0-6.82-1.1-12.99-3.52-18.49
			C960.23,121.55,956.71,116.7,952.96,112.74z M940.64,156.77c-1.32,3.08-2.86,5.72-4.84,7.71c-1.98,1.98-4.4,3.52-7.04,4.62
			c-2.64,1.1-5.5,1.54-8.37,1.54s-5.5-0.44-8.37-1.54c-2.64-1.1-5.06-2.64-7.04-4.62c-1.98-1.98-3.52-4.62-4.84-7.71
			c-1.32-3.08-1.76-6.6-1.76-10.79s0.66-7.71,1.76-10.79c1.32-3.08,2.86-5.72,4.84-7.71c1.98-1.98,4.4-3.52,7.04-4.62
			c2.64-1.1,5.5-1.54,8.37-1.54s5.5,0.44,8.37,1.54c2.64,1.1,5.06,2.64,7.04,4.62c1.98,1.98,3.52,4.62,4.84,7.71
			c1.32,3.08,1.76,6.6,1.76,10.79C942.4,149.94,941.74,153.69,940.64,156.77z"/>
		<path d="M1032.21,101.51c-1.98,0-3.96,0.22-6.38,0.44c-2.2,0.44-4.62,1.1-6.82,1.98c-2.2,0.88-4.4,2.42-6.6,4.18
			c-1.98,1.76-3.74,4.18-5.06,7.04v-12.99h-22.89v87.18H1008V149.5c0-4.62,0.66-8.59,1.76-11.67c1.32-3.08,2.86-5.72,4.84-7.48
			c1.98-1.98,4.4-3.3,7.04-3.96c2.64-0.88,5.5-1.32,8.59-1.32c2.42,0,4.62,0.22,7.04,0.66v-23.78c-0.88-0.22-1.76-0.22-2.64-0.22
			C1033.76,101.73,1033.1,101.51,1032.21,101.51z"/>
		<path d="M1121.37,111.64c-7.48-7.93-18.05-12.11-31.7-12.11c-5.5,0-11.01,1.1-16.07,3.3c-5.28,2.2-9.69,5.28-13.65,9.25
			s-7.04,8.81-9.47,14.53s-3.52,11.89-3.52,18.93c0,7.26,1.1,13.87,3.52,19.59c2.42,5.72,5.72,10.79,9.91,14.75
			c4.18,3.96,8.81,7.04,14.31,9.03c5.5,1.98,11.23,3.08,17.17,3.08c5.28,0,10.13-0.66,14.53-2.2c4.4-1.54,8.37-3.52,11.67-5.94
			c3.3-2.42,6.16-5.5,8.37-8.81c2.2-3.3,3.96-6.82,5.06-10.79l-19.59-5.94c-1.32,3.96-3.74,7.04-6.82,9.47
			c-3.08,2.42-7.48,3.74-12.99,3.74c-2.86,0-5.72-0.44-8.37-1.54c-2.64-1.1-4.84-2.42-6.82-4.18c-1.98-1.76-3.52-3.96-4.84-6.38
			c-1.32-2.42-1.98-5.06-1.98-7.93h62.3c0-0.22,0-1.1,0.22-2.64s0.22-3.08,0.22-4.62C1132.38,130.79,1128.86,119.78,1121.37,111.64z
			 M1070.52,135.85c0.22-1.98,0.66-3.96,1.54-5.94c0.88-1.98,2.2-3.74,3.74-5.5c1.76-1.54,3.74-3.08,5.94-3.96
			c2.42-1.1,5.06-1.54,8.15-1.54c3.3,0,6.16,0.44,8.59,1.54c2.42,1.1,4.4,2.2,5.94,3.96c1.54,1.54,2.86,3.52,3.52,5.5
			c0.66,1.98,1.1,4.18,1.32,6.38h-38.75L1070.52,135.85L1070.52,135.85z"/>
	</g>
</g>
</svg>
