<svg width="165" height="41" viewBox="0 0 165 41" fill="none" xmlns="http://www.w3.org/2000/svg">
<path fill-rule="evenodd" clip-rule="evenodd" d="M24.8929 15.9607C24.8929 16.2536 25.1857 16.5464 25.1857 16.6929C25.3321 16.9857 25.625 17.425 25.7714 17.7179C25.9179 18.0107 26.2107 18.45 26.3571 18.7429C26.65 19.1821 26.7964 19.6214 27.0893 20.0607C27.2357 20.2071 27.2357 20.5 27.3821 20.6464C27.5286 21.0857 27.3821 21.3786 27.0893 21.6714C26.7964 21.9643 26.5036 22.1107 26.2107 22.1107C25.9179 22.1107 25.625 22.2571 25.3321 22.55C25.0393 22.8429 25.0393 22.9893 25.3321 23.2821C25.4786 23.575 25.7714 23.8679 25.9179 24.1607L26.0643 24.3071C26.2107 24.6 26.0643 25.0393 25.7714 25.3321C25.625 25.4786 25.4786 25.4786 25.3321 25.625C25.1857 25.7714 25.1857 25.7714 25.3321 25.9179C25.4786 26.2107 25.7714 26.5036 25.7714 26.9429C25.7714 27.2357 25.625 27.3821 25.4786 27.5286C25.1857 27.675 24.7464 27.8214 24.4536 27.9679C24.0143 28.1143 23.8679 28.5536 24.1607 28.9929C24.4536 29.4321 24.6 29.8714 24.4536 30.4571C24.4536 30.75 24.3071 30.8964 24.1607 31.1893C24.0143 31.4821 23.7214 31.775 23.4286 32.0679C23.2821 32.2143 23.1357 32.3607 22.8429 32.3607C22.6964 32.3607 22.4036 32.5071 22.2571 32.5071C21.6714 32.6536 21.2321 32.8 20.6464 32.8C20.2071 32.8 19.7679 32.9464 19.475 32.9464C19.1821 32.9464 19.0357 32.9464 18.7429 32.9464C17.8643 33.0929 16.9857 33.0929 15.9607 33.0929C15.6679 33.0929 15.375 33.2393 15.0821 33.2393C14.7893 33.3857 14.6429 33.5321 14.35 33.6786C14.2036 33.6786 14.2036 33.825 14.0571 33.9714C13.9107 34.1179 13.9107 34.4107 13.7643 34.5571C13.325 34.9964 13.1786 35.2893 13.0321 35.5821C12.8857 35.875 12.7393 36.1679 12.5929 36.3143C12.3 36.9 12.0071 37.4857 11.7143 38.0714C11.5679 38.3643 11.4214 38.8036 11.1286 39.0964C10.8357 39.5357 10.6893 40.1214 10.3964 40.5607L10.25 40.7071C10.25 39.3893 10.25 38.2179 10.25 36.9C10.25 35.5821 10.25 34.4107 10.25 33.0929C10.3964 33.0929 10.5429 33.0929 10.5429 33.0929C10.8357 33.0929 11.1286 33.0929 11.4214 33.0929C11.7143 33.0929 11.7143 33.0929 11.7143 32.8C11.7143 32.0679 11.7143 31.3357 11.7143 30.75V30.4571C11.8607 30.3107 12.0071 30.3107 12.1536 30.3107C13.325 30.3107 14.35 30.3107 15.5214 30.3107C15.6679 30.3107 15.9607 30.3107 16.1071 30.3107C16.2536 30.6036 16.4 30.75 16.5464 30.8964C16.9857 31.3357 17.5714 31.4821 18.1571 31.1893C18.45 31.0429 18.7429 30.75 18.8893 30.4571C19.1821 30.0179 19.0357 29.4321 18.7429 28.9929C18.5964 28.7 18.3036 28.5536 18.0107 28.5536C17.7179 28.4071 17.5714 28.4071 17.2786 28.5536C16.9857 28.7 16.6929 28.8464 16.5464 29.1393C16.4 29.2857 16.4 29.4321 16.4 29.4321C16.4 29.5786 16.2536 29.5786 16.1071 29.5786C15.9607 29.5786 15.8143 29.5786 15.5214 29.5786C13.9107 29.5786 12.1536 29.5786 10.5429 29.5786C10.25 29.5786 10.25 29.5786 10.25 29.2857C10.25 28.8464 10.25 28.4071 10.25 27.9679C10.25 27.675 10.25 27.675 10.6893 27.675C11.275 27.675 11.8607 27.675 12.3 27.675C12.4464 27.675 12.4464 27.675 12.5929 27.675V27.3821C12.5929 26.5036 12.5929 25.625 12.5929 24.8929C12.5929 24.7464 12.5929 24.7464 12.4464 24.7464C11.8607 24.7464 11.1286 24.7464 10.5429 24.7464C10.3964 24.7464 10.3964 24.7464 10.25 24.7464V23.1357C10.3964 23.1357 10.5429 23.1357 10.6893 23.1357C11.8607 23.1357 13.0321 23.1357 14.35 23.1357C15.5214 23.1357 16.5464 23.1357 17.7179 23.1357C18.3036 23.1357 18.8893 23.1357 19.475 23.1357C19.6214 23.1357 19.7679 23.1357 19.9143 23.2821C20.0607 23.4286 20.2071 23.7214 20.3536 23.8679C20.6464 24.0143 21.0857 24.1607 21.525 24.0143C21.8179 23.8679 21.9643 23.8679 22.2571 23.7214C22.6964 23.2821 22.8429 22.4036 22.4036 21.9643C22.2571 21.8179 22.1107 21.6714 21.9643 21.525C21.525 21.3786 21.0857 21.2321 20.6464 21.3786C20.3536 21.525 20.2071 21.6714 19.9143 21.9643C19.9143 22.1107 19.7679 22.1107 19.7679 22.2571C19.6214 22.2571 13.7643 22.2571 13.4714 22.2571C13.4714 22.1107 13.4714 21.9643 13.4714 21.9643C13.4714 20.9393 13.4714 20.0607 13.4714 19.0357V18.8893C13.4714 18.7429 13.4714 18.5964 13.1786 18.5964C12.3 18.5964 11.5679 18.5964 10.6893 18.5964H10.25C10.25 18.45 10.25 18.45 10.25 18.3036C10.25 17.8643 10.25 17.425 10.25 17.1321C10.25 16.6929 10.25 16.4 10.25 15.9607C10.25 15.8143 10.25 15.8143 10.25 15.6679C10.3964 15.6679 10.3964 15.6679 10.5429 15.6679C12.8857 15.6679 15.375 15.6679 17.7179 15.6679C17.8643 15.6679 18.0107 15.6679 18.1571 15.9607C18.3036 16.1071 18.45 16.2536 18.5964 16.5464C18.5964 16.5464 18.7429 16.6929 18.8893 16.6929C19.475 16.8393 19.9143 16.8393 20.3536 16.4C20.6464 16.1071 20.9393 15.6679 20.9393 15.2286C20.9393 14.9357 20.7929 14.7893 20.7929 14.6429C20.5 14.2036 20.3536 14.0571 19.9143 13.9107C19.7679 13.7643 19.475 13.7643 19.1821 13.9107H19.0357C18.8893 13.9107 18.7429 14.0571 18.7429 14.0571C18.7429 14.0571 18.5964 14.0571 18.5964 14.2036C18.5964 14.2036 18.5964 14.2036 18.45 14.2036C18.3036 14.35 18.1571 14.6429 18.1571 14.7893H12.3C12.3 14.6429 12.3 14.6429 12.3 14.4964C12.3 14.0571 12.3 13.6179 12.3 13.1786C12.3 12.8857 12.3 12.8857 12.0071 12.8857C11.4214 12.8857 10.9821 12.8857 10.3964 12.8857H10.1036C10.1036 12.5929 9.95714 10.3964 10.1036 10.25C10.25 10.25 10.25 10.25 10.3964 10.25C11.5679 10.25 12.7393 10.25 13.9107 10.25H14.0571C14.35 10.25 14.35 10.25 14.35 9.95714C14.35 9.51786 14.35 8.93214 14.35 8.49286V8.34643H14.4964C14.9357 8.34643 15.5214 8.34643 15.9607 8.34643C16.1071 8.34643 16.1071 8.34643 16.2536 8.49286C16.4 8.63929 16.4 8.93214 16.6929 9.07857C17.1321 9.37143 17.5714 9.51786 18.0107 9.37143C18.3036 9.225 18.5964 9.07857 18.7429 8.78571C18.7429 8.78571 18.7429 8.78571 18.7429 8.63929C19.0357 8.2 19.0357 7.76071 18.8893 7.32143C18.7429 7.02857 18.5964 6.88214 18.45 6.73571C18.3036 6.58929 18.0107 6.44286 17.7179 6.44286C17.425 6.44286 17.2786 6.44286 16.9857 6.58929C16.5464 6.88214 16.2536 7.175 16.1071 7.61429H13.4714C13.4714 6.44286 13.4714 5.27143 13.4714 4.1C13.6179 4.1 13.7643 4.1 13.9107 4.1C14.7893 4.1 15.8143 4.1 16.6929 4.1H16.8393C16.9857 4.1 16.9857 4.1 16.9857 3.95357C16.9857 3.80714 16.9857 3.80714 16.9857 3.66071C16.9857 2.48929 16.9857 1.46429 16.9857 0.292857V0C17.1321 0 17.1321 0 17.2786 0C18.0107 0 18.7429 0 19.475 0C19.7679 0 19.9143 0.146429 20.0607 0.146429C20.3536 0.292857 20.6464 0.585714 20.7929 0.732143C21.0857 1.025 21.3786 1.31786 21.6714 1.61071C21.9643 1.90357 22.1107 2.19643 22.4036 2.48929C22.55 2.78214 22.8429 3.075 22.8429 3.51429C22.8429 3.80714 22.9893 3.95357 22.9893 4.24643L23.1357 4.39286C23.2821 4.53929 23.2821 4.53929 23.4286 4.68571C23.575 4.83214 23.8679 5.125 24.0143 5.41786C24.1607 5.71071 24.4536 6.00357 24.4536 6.29643C24.6 6.44286 24.7464 6.88214 24.8929 7.175C25.0393 7.46786 25.0393 7.76071 25.1857 8.05357V8.2C25.1857 8.49286 25.1857 8.93214 25.1857 9.225C25.1857 10.3964 25.1857 11.7143 25.1857 12.8857C25.1857 13.0321 25.1857 13.325 25.0393 13.4714C25.0393 13.6179 25.0393 13.7643 24.8929 13.7643C24.8929 14.0571 24.8929 14.2036 24.7464 14.4964C24.6 14.7893 24.7464 15.0821 24.7464 15.375L24.8929 15.9607ZM5.56429 32.2143V28.5536C5.71071 28.5536 8.93214 28.5536 9.225 28.5536C9.225 28.7 9.225 31.9214 9.225 32.2143H9.07857C8.05357 32.2143 6.88214 32.2143 5.85714 32.2143C5.71071 32.2143 5.71071 32.2143 5.56429 32.2143ZM4.83214 12.4464V9.225C4.83214 9.225 4.83214 9.225 4.97857 9.225C5.125 9.37143 5.41786 9.225 5.56429 9.225C6.29643 9.225 7.175 9.225 7.90714 9.225C8.05357 9.225 8.05357 9.225 8.2 9.225V12.4464C7.90714 12.5929 4.97857 12.5929 4.83214 12.4464ZM15.6679 3.075H12.7393C12.7393 2.92857 12.5929 0.439286 12.7393 0.146429C12.8857 0.146429 15.375 0.146429 15.6679 0.146429C15.8143 1.17143 15.6679 2.05 15.6679 3.075ZM12.1536 4.97857V7.76071C12.0071 7.76071 9.66429 7.76071 9.37143 7.76071V4.97857H12.1536ZM7.76071 18.45H5.125C5.125 18.3036 4.97857 16.1071 5.125 15.8143C5.27143 15.8143 7.46786 15.8143 7.61429 15.8143C7.76071 16.1071 7.76071 18.3036 7.76071 18.45ZM8.05357 20.7929V22.9893C7.90714 22.9893 6.00357 23.1357 5.71071 22.9893C5.71071 22.8429 5.71071 20.9393 5.71071 20.7929C5.85714 20.7929 7.76071 20.7929 8.05357 20.7929ZM8.63929 34.2643V36.4607C8.49286 36.4607 8.49286 36.4607 8.34643 36.4607C7.90714 36.4607 7.46786 36.4607 7.02857 36.4607C6.88214 36.4607 6.73571 36.4607 6.44286 36.4607C6.44286 36.3143 6.29643 34.5571 6.44286 34.2643C6.73571 34.2643 8.34643 34.2643 8.63929 34.2643ZM0.878571 27.0893V25.0393C1.61071 25.0393 2.19643 25.0393 2.92857 25.0393C2.92857 25.1857 2.92857 26.9429 2.92857 27.0893H0.878571ZM9.66429 19.7679H11.5679C11.5679 19.9143 11.5679 21.525 11.5679 21.8179H9.66429C9.66429 21.2321 9.66429 20.5 9.66429 19.7679ZM0 14.9357H1.61071V16.5464H1.46429C1.025 16.5464 0.585714 16.5464 0.146429 16.5464C0 16.5464 0 16.5464 0 16.4C0 15.9607 0 15.5214 0 14.9357C0 14.9357 0 15.0821 0 14.9357ZM2.34286 19.475V21.0857H0.732143V20.9393C0.732143 20.5 0.732143 20.0607 0.732143 19.6214C0.732143 19.475 0.732143 19.475 0.878571 19.475C1.31786 19.475 1.75714 19.475 2.34286 19.475C2.34286 19.475 2.19643 19.475 2.34286 19.475ZM8.05357 24.6V26.2107C7.90714 26.2107 6.73571 26.3571 6.44286 26.2107V24.6H8.05357ZM44.6607 30.75C43.05 30.75 41.7321 30.4571 40.5607 30.0179C39.3893 29.5786 38.2179 28.8464 37.4857 27.9679C36.6071 27.0893 36.0214 25.9179 35.5821 24.6C35.1429 23.2821 34.85 21.6714 34.85 20.0607C34.85 18.45 35.1429 16.8393 35.5821 15.5214C36.1679 14.2036 36.9 13.0321 37.7786 12.1536C38.6571 11.275 39.8286 10.5429 41 10.1036C42.1714 9.66429 43.4893 9.37143 44.9536 9.37143C45.8321 9.37143 46.5643 9.37143 47.2964 9.51786C48.0286 9.66429 48.6143 9.81071 49.0536 9.95714C49.6393 10.1036 49.9321 10.25 50.3714 10.3964C50.6643 10.5429 50.9571 10.6893 51.1036 10.8357L49.7857 13.7643C49.3464 13.4714 48.6143 13.1786 47.7357 12.8857C46.8571 12.5929 45.8321 12.4464 44.8071 12.4464C43.9286 12.4464 43.05 12.5929 42.3179 12.8857C41.5857 13.1786 40.8536 13.6179 40.2679 14.2036C39.6821 14.7893 39.2429 15.5214 38.95 16.5464C38.6571 17.425 38.5107 18.5964 38.5107 19.7679C38.5107 20.7929 38.6571 21.8179 38.95 22.8429C39.2429 23.7214 39.5357 24.6 40.1214 25.1857C40.7071 25.9179 41.2929 26.3571 42.025 26.7964C42.7571 27.2357 43.7821 27.3821 44.9536 27.3821C46.2714 27.3821 47.2964 27.2357 48.175 26.9429C49.0536 26.65 49.6393 26.3571 50.0786 26.2107L51.1036 29.2857C50.8107 29.4321 50.5179 29.5786 50.0786 29.725C49.6393 29.8714 49.2 30.0179 48.6143 30.1643C48.175 30.4571 47.5893 30.6036 46.8571 30.6036C46.125 30.75 45.3929 30.75 44.6607 30.75ZM62.8179 22.55C62.8179 20.9393 62.525 19.7679 61.7929 18.8893C61.0607 18.0107 60.1821 17.5714 59.0107 17.5714C57.8393 17.5714 56.9607 18.0107 56.2286 18.8893C55.4964 19.7679 55.2036 21.0857 55.2036 22.55C55.2036 24.1607 55.4964 25.3321 56.2286 26.2107C56.9607 27.0893 57.8393 27.5286 59.0107 27.5286C60.1821 27.5286 61.0607 27.0893 61.7929 26.2107C62.525 25.3321 62.8179 24.1607 62.8179 22.55ZM66.4786 22.55C66.4786 23.7214 66.3321 24.8929 65.8929 25.9179C65.6 26.9429 65.0143 27.8214 64.4286 28.5536C63.8429 29.2857 62.9643 29.8714 62.0857 30.1643C61.2071 30.6036 60.1821 30.75 59.0107 30.75C57.8393 30.75 56.8143 30.6036 55.9357 30.1643C55.0571 29.725 54.1786 29.1393 53.5929 28.5536C53.0071 27.8214 52.4214 26.9429 52.1286 25.9179C51.6893 24.8929 51.5429 23.7214 51.5429 22.55C51.5429 21.3786 51.6893 20.2071 52.1286 19.1821C52.5679 18.1571 53.0071 17.2786 53.7393 16.5464C54.4714 15.8143 55.2036 15.2286 56.0821 14.9357C56.9607 14.4964 57.9857 14.35 59.1571 14.35C60.1821 14.35 61.2071 14.4964 62.2321 14.9357C63.1107 15.375 63.9893 15.8143 64.575 16.5464C65.1607 17.2786 65.7464 18.1571 66.0393 19.1821C66.3321 20.2071 66.4786 21.2321 66.4786 22.55ZM68.675 30.3107V14.7893H72.3357V30.3107H68.675V30.3107ZM72.775 10.25C72.775 10.9821 72.6286 11.4214 72.1893 11.8607C71.75 12.3 71.1643 12.4464 70.5786 12.4464C69.9929 12.4464 69.4071 12.3 68.9679 11.8607C68.5286 11.4214 68.3821 10.9821 68.3821 10.25C68.3821 9.51786 68.5286 9.07857 68.9679 8.63929C69.4071 8.2 69.9929 8.05357 70.5786 8.05357C71.1643 8.05357 71.75 8.2 72.1893 8.63929C72.4821 8.93214 72.775 9.51786 72.775 10.25ZM75.4107 15.2286C76.1429 15.0821 77.0214 14.7893 78.1929 14.6429C79.2179 14.4964 80.5357 14.4964 81.8536 14.4964C83.1714 14.4964 84.1964 14.6429 85.075 15.0821C85.9536 15.375 86.5393 15.9607 87.125 16.5464C87.5643 17.1321 88.0036 17.8643 88.15 18.7429C88.2964 19.6214 88.4429 20.6464 88.4429 21.6714V30.4571H84.9286V22.2571C84.9286 21.3786 84.9286 20.6464 84.7821 20.0607C84.6357 19.475 84.4893 19.0357 84.1964 18.5964C83.9036 18.1571 83.6107 18.0107 83.1714 17.8643C82.7321 17.7179 82.2929 17.5714 81.5607 17.5714C81.1214 17.5714 80.6821 17.5714 80.0964 17.7179C79.6571 17.7179 79.2179 17.8643 78.925 17.8643V30.4571H75.2643V15.2286H75.4107ZM91.6643 15.5214C92.25 15.375 92.9821 15.2286 93.8607 14.9357C94.7393 14.7893 95.9107 14.6429 97.5214 14.6429C99.425 14.6429 100.889 15.2286 101.768 16.4C101.914 16.2536 102.061 16.2536 102.354 15.9607C102.646 15.8143 102.939 15.5214 103.379 15.375C103.818 15.2286 104.257 14.9357 104.843 14.9357C105.429 14.7893 106.014 14.7893 106.746 14.7893C107.918 14.7893 108.796 14.9357 109.529 15.375C110.261 15.6679 110.846 16.2536 111.139 16.8393C111.579 17.425 111.871 18.1571 111.871 19.0357C112.018 19.9143 112.018 20.7929 112.018 21.9643V30.6036H110.114V22.55C110.114 21.525 110.114 20.6464 109.968 19.9143C109.821 19.1821 109.675 18.5964 109.382 18.0107C109.089 17.5714 108.796 17.1321 108.211 16.8393C107.771 16.5464 107.039 16.4 106.307 16.4C105.721 16.4 105.136 16.4 104.696 16.5464C104.257 16.6929 103.818 16.8393 103.379 16.9857C103.086 17.1321 102.793 17.2786 102.5 17.425C102.207 17.5714 102.061 17.7179 102.061 17.7179C102.207 18.3036 102.354 18.7429 102.5 19.475C102.646 20.0607 102.646 20.7929 102.646 21.525V30.3107H101.036V22.2571C101.036 21.2321 101.036 20.3536 100.889 19.6214C100.743 18.8893 100.596 18.3036 100.304 17.7179C100.011 17.2786 99.5714 16.8393 99.1321 16.5464C98.6929 16.2536 97.9607 16.1071 97.0821 16.1071C96.2036 16.1071 95.325 16.1071 94.7393 16.2536C94.1536 16.4 93.7143 16.4 93.5679 16.5464V30.0179H91.6643V15.5214V15.5214ZM120.657 28.9929C121.389 28.9929 122.121 28.9929 122.707 28.8464C123.293 28.8464 123.732 28.7 124.171 28.7V23.2821C124.025 23.1357 123.586 23.1357 123.146 22.9893C122.707 22.8429 121.975 22.8429 121.243 22.8429C120.804 22.8429 120.218 22.8429 119.779 22.9893C119.193 22.9893 118.754 23.1357 118.314 23.4286C117.875 23.7214 117.582 24.0143 117.289 24.3071C116.996 24.7464 116.85 25.1857 116.85 25.9179C116.85 26.5036 116.996 26.9429 117.143 27.3821C117.289 27.8214 117.582 28.1143 117.875 28.4071C118.168 28.7 118.607 28.8464 119.193 28.9929C119.486 28.8464 120.071 28.9929 120.657 28.9929ZM120.511 14.6429C121.536 14.6429 122.414 14.7893 123.146 15.0821C123.879 15.375 124.464 15.8143 124.904 16.2536C125.343 16.6929 125.636 17.425 125.929 18.0107C126.075 18.7429 126.221 19.475 126.221 20.2071V29.8714C126.075 29.8714 125.782 30.0179 125.343 30.0179C124.904 30.0179 124.464 30.1643 124.025 30.3107C123.586 30.4571 123 30.4571 122.414 30.4571C121.829 30.4571 121.243 30.6036 120.511 30.6036C119.632 30.6036 118.9 30.4571 118.314 30.3107C117.582 30.1643 116.996 29.8714 116.557 29.4321C116.118 28.9929 115.679 28.5536 115.386 27.9679C115.093 27.3821 114.946 26.65 114.946 25.7714C114.946 24.8929 115.093 24.1607 115.386 23.575C115.679 22.9893 116.118 22.55 116.704 22.1107C117.289 21.6714 118.021 21.3786 118.754 21.2321C119.486 21.0857 120.364 20.9393 121.389 20.9393C121.682 20.9393 121.975 20.9393 122.268 20.9393C122.561 20.9393 122.854 20.9393 123.146 21.0857C123.439 21.0857 123.732 21.2321 123.879 21.2321C124.025 21.2321 124.171 21.3786 124.318 21.3786V20.3536C124.318 19.7679 124.318 19.3286 124.171 18.7429C124.025 18.3036 123.879 17.7179 123.586 17.425C123.293 16.9857 123 16.6929 122.414 16.4C121.975 16.1071 121.243 15.9607 120.511 15.9607C119.339 15.9607 118.607 16.1071 118.021 16.2536C117.436 16.4 116.996 16.5464 116.85 16.6929L116.557 14.9357C116.85 14.7893 117.436 14.6429 118.168 14.4964C118.754 14.6429 119.486 14.6429 120.511 14.6429ZM129.589 15.5214C130.175 15.375 130.907 15.2286 131.786 14.9357C132.664 14.7893 133.836 14.6429 135.446 14.6429C137.35 14.6429 138.814 15.2286 139.693 16.4C139.839 16.2536 139.986 16.2536 140.279 15.9607C140.571 15.8143 140.864 15.5214 141.304 15.375C141.743 15.2286 142.182 14.9357 142.768 14.9357C143.354 14.7893 143.939 14.7893 144.671 14.7893C145.843 14.7893 146.721 14.9357 147.454 15.375C148.186 15.6679 148.771 16.2536 149.064 16.8393C149.504 17.425 149.796 18.1571 149.796 19.0357C149.943 19.9143 149.943 20.7929 149.943 21.9643V30.6036H148.039V22.55C148.039 21.525 148.039 20.6464 147.893 19.9143C147.746 19.1821 147.6 18.5964 147.307 18.0107C147.014 17.5714 146.721 17.1321 146.136 16.8393C145.696 16.5464 144.964 16.4 144.232 16.4C143.646 16.4 143.061 16.4 142.621 16.5464C142.182 16.6929 141.743 16.8393 141.304 16.9857C141.011 17.1321 140.718 17.2786 140.425 17.425C140.132 17.5714 139.986 17.7179 139.986 17.7179C140.132 18.3036 140.279 18.7429 140.425 19.475C140.571 20.0607 140.571 20.7929 140.571 21.525V30.3107H138.668V22.2571C138.668 21.2321 138.668 20.3536 138.521 19.6214C138.375 18.8893 138.229 18.3036 137.936 17.7179C137.643 17.2786 137.204 16.8393 136.764 16.5464C136.325 16.2536 135.593 16.1071 134.714 16.1071C133.836 16.1071 132.957 16.1071 132.371 16.2536C131.786 16.4 131.346 16.4 131.2 16.5464V30.0179H129.296V15.5214H129.589ZM158.582 28.9929C159.314 28.9929 160.046 28.9929 160.632 28.8464C161.218 28.8464 161.657 28.7 162.096 28.7V23.2821C161.95 23.1357 161.511 23.1357 161.071 22.9893C160.632 22.8429 159.9 22.8429 159.168 22.8429C158.729 22.8429 158.143 22.8429 157.704 22.9893C157.118 22.9893 156.679 23.1357 156.239 23.4286C155.8 23.7214 155.507 24.0143 155.214 24.3071C154.921 24.7464 154.775 25.1857 154.775 25.9179C154.775 26.5036 154.921 26.9429 155.068 27.3821C155.214 27.8214 155.507 28.1143 155.8 28.4071C156.093 28.7 156.532 28.8464 157.118 28.9929C157.411 28.8464 157.996 28.9929 158.582 28.9929ZM158.436 14.6429C159.461 14.6429 160.339 14.7893 161.071 15.0821C161.804 15.375 162.389 15.8143 162.829 16.2536C163.268 16.6929 163.561 17.425 163.854 18.0107C164 18.7429 164.146 19.475 164.146 20.2071V29.8714C164 29.8714 163.707 30.0179 163.268 30.0179C162.829 30.0179 162.389 30.1643 161.95 30.3107C161.511 30.4571 160.925 30.4571 160.339 30.4571C159.754 30.4571 159.168 30.6036 158.436 30.6036C157.557 30.6036 156.825 30.4571 156.239 30.3107C155.507 30.1643 154.921 29.8714 154.482 29.4321C154.043 28.9929 153.604 28.5536 153.311 27.9679C153.018 27.3821 152.871 26.65 152.871 25.7714C152.871 24.8929 153.018 24.1607 153.311 23.575C153.604 22.9893 154.043 22.55 154.629 22.1107C155.214 21.6714 155.946 21.3786 156.679 21.2321C157.411 21.0857 158.289 20.9393 159.314 20.9393C159.607 20.9393 159.9 20.9393 160.193 20.9393C160.486 20.9393 160.779 20.9393 161.071 21.0857C161.364 21.0857 161.657 21.2321 161.804 21.2321C161.95 21.2321 162.096 21.3786 162.243 21.3786V20.3536C162.243 19.7679 162.243 19.3286 162.096 18.7429C161.95 18.3036 161.804 17.7179 161.511 17.425C161.218 16.9857 160.925 16.6929 160.339 16.4C159.9 16.1071 159.168 15.9607 158.436 15.9607C157.264 15.9607 156.532 16.1071 155.946 16.2536C155.361 16.4 154.921 16.5464 154.775 16.6929L154.482 14.9357C154.775 14.7893 155.361 14.6429 156.093 14.4964C156.532 14.6429 157.411 14.6429 158.436 14.6429Z" fill="#09369C"/>
</svg>
