<svg width="246" height="28" viewBox="0 0 246 28" fill="none" xmlns="http://www.w3.org/2000/svg">
<path d="M21.6355 26.8926H15.7825C15.4368 26.2258 15.2145 25.4849 15.1157 24.6699C14.9923 23.7562 14.9305 22.5214 14.9305 20.9655C14.9305 18.0514 13.5228 16.5943 10.7075 16.5943H5.15084V26.8926H0.149868V0.961604H12.856C15.4738 0.961604 17.5483 1.6531 19.0795 3.03608C20.6106 4.39437 21.3762 6.13545 21.3762 8.25932C21.3762 9.81518 20.907 11.2105 19.9685 12.4453C19.0548 13.6554 17.82 14.5445 16.2641 15.1125C18.8078 15.9522 20.1538 17.8785 20.3019 20.8914C20.376 22.4226 20.4995 23.5709 20.6724 24.3365C20.8453 25.0774 21.1663 25.7319 21.6355 26.2999V26.8926ZM5.15084 11.9637H12.5597C13.7698 11.9637 14.7083 11.6797 15.3751 11.1117C16.0419 10.519 16.3752 9.72874 16.3752 8.7409C16.3752 7.75305 16.0419 6.98747 15.3751 6.44415C14.733 5.87614 13.7945 5.59213 12.5597 5.59213H5.15084V11.9637ZM24.0576 26.8926L34.5041 0.961604H41.5795L51.989 26.8926H46.4694L44.2097 21.0396H31.8369L29.6142 26.8926H24.0576ZM33.578 16.5202H42.5056L38.0233 4.92534L33.578 16.5202ZM65.5257 27.263C61.8954 27.3124 58.8207 26.0653 56.3017 23.5216C53.8074 20.9532 52.5849 17.755 52.6343 13.9271C52.5602 10.2227 53.8321 7.06156 56.4499 4.44376C59.0924 1.80127 62.2658 0.517073 65.9703 0.591162C69.3289 0.591162 72.0826 1.40613 74.2311 3.03608C76.4044 4.64133 77.8368 6.83929 78.5283 9.62996L73.6384 11.1858C73.2433 9.28421 72.3789 7.81479 71.0453 6.77755C69.7117 5.74031 68.0447 5.22169 66.0443 5.22169C63.6982 5.22169 61.7225 6.04901 60.1173 7.70366C58.5367 9.3336 57.7464 11.4081 57.7464 13.9271C57.7464 16.4955 58.512 18.5947 60.0432 20.2246C61.5743 21.8299 63.55 22.6325 65.9703 22.6325C67.8719 22.6325 69.403 22.1015 70.5637 21.0396C71.7492 19.9777 72.4777 18.8046 72.7494 17.5204H62.2658V13.1862H79.0839V26.8926H74.7497V21.5212C73.0457 25.3491 69.971 27.263 65.5257 27.263ZM83.9596 0.961604H103.445V5.59213H88.9606V11.2229H102.334V15.8534H88.9606V22.262H103.815V26.8926H83.9596V0.961604ZM139.185 0.961604V5.59213H130.035V26.8926H125.034V5.59213H115.847V0.961604H139.185ZM164.474 26.8926H158.621C158.276 26.2258 158.053 25.4849 157.955 24.6699C157.831 23.7562 157.769 22.5214 157.769 20.9655C157.769 18.0514 156.362 16.5943 153.546 16.5943H147.99V26.8926H142.989V0.961604H155.695C158.313 0.961604 160.387 1.6531 161.918 3.03608C163.449 4.39437 164.215 6.13545 164.215 8.25932C164.215 9.81518 163.746 11.2105 162.807 12.4453C161.894 13.6554 160.659 14.5445 159.103 15.1125C161.647 15.9522 162.993 17.8785 163.141 20.8914C163.215 22.4226 163.338 23.5709 163.511 24.3365C163.684 25.0774 164.005 25.7319 164.474 26.2999V26.8926ZM147.99 11.9637H155.399C156.609 11.9637 157.547 11.6797 158.214 11.1117C158.881 10.519 159.214 9.72874 159.214 8.7409C159.214 7.75305 158.881 6.98747 158.214 6.44415C157.572 5.87614 156.633 5.59213 155.399 5.59213H147.99V11.9637ZM166.896 26.8926L177.343 0.961604H184.418L194.828 26.8926H189.308L187.049 21.0396H174.676L172.453 26.8926H166.896ZM176.417 16.5202H185.344L180.862 4.92534L176.417 16.5202ZM198.138 26.8926V0.961604H208.14C212.363 0.961604 215.66 2.15937 218.031 4.5549C220.402 6.92573 221.587 10.1115 221.587 14.1123C221.587 17.8661 220.39 20.9408 217.994 23.3363C215.599 25.7072 212.351 26.8926 208.251 26.8926H198.138ZM203.139 5.481V22.3361H208.14C210.832 22.3361 212.907 21.5706 214.364 20.0394C215.845 18.5082 216.586 16.5325 216.586 14.1123C216.586 11.4204 215.845 9.30891 214.364 7.77775C212.907 6.24658 210.807 5.481 208.066 5.481H203.139ZM225.966 0.961604H245.452V5.59213H230.967V11.2229H244.34V15.8534H230.967V22.262H245.822V26.8926H225.966V0.961604Z" fill="url(#paint0_linear_2419_107236)"/>
<defs>
<linearGradient id="paint0_linear_2419_107236" x1="-3.66646" y1="-7.48866" x2="135.147" y2="143.012" gradientUnits="userSpaceOnUse">
<stop stop-color="#70FFDE"/>
<stop offset="1" stop-color="#9852FF"/>
</linearGradient>
</defs>
</svg>
