<?xml version="1.0" encoding="utf-8"?>
<!-- Generator: Adobe Illustrator 25.0.1, SVG Export Plug-In . SVG Version: 6.00 Build 0)  -->
<svg version="1.0" id="katman_1" xmlns="http://www.w3.org/2000/svg" xmlns:xlink="http://www.w3.org/1999/xlink" x="0px" y="0px"
	 viewBox="0 0 178.4 110.8" style="enable-background:new 0 0 178.4 110.8;" xml:space="preserve">
<style type="text/css">
	.st0{fill:#006AE3;}
	.st1{fill:#FFFFFF;}
	.st2{fill:#3C3C3B;}
</style>
<path class="st0" d="M14.2,55.4c0-13.3,10.7-24,24-24s24,10.7,24,24s-10.7,24-24,24S14.2,68.7,14.2,55.4z"/>
<path class="st1" d="M37.2,65.5v-20h2.2v20H37.2z"/>
<path class="st1" d="M48.3,52.2L41.6,54l-1.5-7l2-0.5l0.8,3.3c0,0,1.8-3-0.6-6.1c-1.4-1.6-2.1-1.7-3.7-1.9c-1.4-0.2-4.7,0.3-5.6,4.1
	c-0.4,2.5,0.1,4.3,3.2,6.7L36,55.3c0,0-3.5-2.5-4.4-4.2c-0.7-1.4-1.9-4.1,0.3-7.9c1.2-1.9,3.5-3.7,7.6-3.5c2.1,0.1,7.1,2.6,6.3,8.5
	c-0.1,1.1-0.7,2.6-0.7,2.6l2.8-0.6L48.3,52.2z"/>
<path class="st1" d="M44.5,67.8c-1.2,1.9-3.6,3.6-7.7,3.3c-2.1-0.1-7-2.8-6.1-8.6c0.2-1.1,0.8-2.5,0.8-2.5l-2.8,0.5l-0.5-2.2
	l6.8-1.6l1.3,7l-2,0.4l-0.7-3.3c0,0-1.9,2.9,0.4,6.1c1.4,1.6,2.1,1.7,3.7,2c1.4,0.2,4.7-0.2,5.8-3.9c0.5-2.4,0.1-4.3-3-6.7l0.2-2.6
	c0,0,3.5,2.6,4.3,4.4C45.6,61.3,46.7,64.1,44.5,67.8z"/>
<path class="st2" d="M78.2,47.1h4.6l2.9,8.6c0.2,0.7,0.4,1.6,0.5,2.7h0.1c0.1-0.9,0.3-1.8,0.6-2.7l2.8-8.6h4.5l-6.5,17.2
	c-0.6,1.6-1.4,2.8-2.5,3.6c-1.1,0.8-2.4,1.2-3.8,1.2c-0.7,0-1.4-0.1-2.1-0.2v-3.3c0.5,0.1,1,0.2,1.6,0.2c0.7,0,1.4-0.2,1.9-0.7
	c0.6-0.4,1-1.1,1.3-2l0.2-0.8L78.2,47.1z M102.7,49.8c-0.9,0-1.6,0.3-2.1,0.8c-0.5,0.6-0.8,1.3-0.9,2.4h5.9c0-1-0.3-1.8-0.8-2.4
	C104.3,50.1,103.6,49.8,102.7,49.8z M103.3,62.7c-2.5,0-4.4-0.7-5.8-2c-1.4-1.4-2.1-3.3-2.1-5.8c0-2.6,0.6-4.5,1.9-5.9
	c1.3-1.4,3.1-2.1,5.3-2.1c2.2,0,3.8,0.6,5,1.8c1.2,1.2,1.8,2.9,1.8,5.1v2h-9.9c0,1.2,0.4,2.1,1.1,2.8c0.7,0.7,1.6,1,2.8,1
	c0.9,0,1.8-0.1,2.6-0.3c0.8-0.2,1.7-0.5,2.6-0.9v3.2c-0.7,0.4-1.5,0.6-2.3,0.8C105.5,62.6,104.5,62.7,103.3,62.7z M122.6,62.4
	l-0.8-2.1h-0.1c-0.7,0.9-1.4,1.5-2.2,1.8c-0.7,0.3-1.7,0.5-2.9,0.5c-1.5,0-2.6-0.4-3.5-1.3c-0.8-0.8-1.3-2-1.3-3.6
	c0-1.6,0.6-2.8,1.7-3.6c1.1-0.8,2.9-1.2,5.1-1.3l2.7-0.1v-0.7c0-1.5-0.8-2.3-2.4-2.3c-1.2,0-2.7,0.4-4.3,1.1l-1.4-2.8
	c1.8-0.9,3.7-1.4,5.9-1.4c2.1,0,3.6,0.4,4.7,1.3c1.1,0.9,1.6,2.3,1.6,4.1v10.2H122.6z M121.4,55.3l-1.6,0.1c-1.2,0-2.1,0.3-2.7,0.7
	c-0.6,0.4-0.9,1-0.9,1.8c0,1.2,0.7,1.8,2,1.8c1,0,1.7-0.3,2.3-0.8c0.6-0.6,0.9-1.3,0.9-2.2V55.3z M138.4,46.8c0.6,0,1,0,1.4,0.1
	l-0.3,3.9c-0.3-0.1-0.7-0.1-1.2-0.1c-1.3,0-2.4,0.3-3.1,1c-0.7,0.7-1.1,1.6-1.1,2.9v7.8h-4.2V47.1h3.2l0.6,2.6h0.2
	c0.5-0.9,1.1-1.5,1.9-2.1C136.5,47.1,137.4,46.8,138.4,46.8z M156.6,62.4h-4.2v-8.9c0-1.1-0.2-1.9-0.6-2.5c-0.4-0.6-1-0.8-1.9-0.8
	c-1.2,0-2,0.4-2.5,1.2c-0.5,0.8-0.8,2.1-0.8,3.9v7.2h-4.2V47.1h3.2l0.6,2h0.2c0.5-0.7,1.1-1.3,1.9-1.7c0.8-0.4,1.8-0.6,2.8-0.6
	c1.8,0,3.1,0.5,4,1.4c0.9,1,1.4,2.3,1.4,4.2V62.4z"/>
</svg>
