<?xml version="1.0" encoding="utf-8"?>
<!-- Generator: Adobe Illustrator 25.3.1, SVG Export Plug-In . SVG Version: 6.00 Build 0)  -->
<svg version="1.1" id="Layer_1" xmlns="http://www.w3.org/2000/svg" xmlns:xlink="http://www.w3.org/1999/xlink" x="0px" y="0px"
	 viewBox="0 0 840.5 209.7" style="enable-background:new 0 0 840.5 209.7;" xml:space="preserve">
<style type="text/css">
	.st0{fill:#0052FF;}
</style>
<polygon class="st0" points="271.9,55.2 301.8,157.8 316.2,157.8 338.6,78.2 361.9,157.8 377,157.8 405.9,55.2 391.8,55.2 
	369.4,134.3 347.2,55.2 332.4,55.2 309.9,134.4 287.8,55.2 "/>
<path class="st0" d="M456.2,55.2h-16.9l-39.1,102.7h15.7l9.2-24.6h45.6l9.6,24.6h15.5L456.2,55.2z M430.2,119.5L448,73.1l17.8,46.4
	H430.2z"/>
<polygon class="st0" points="511.6,55.2 511.6,157.8 578,157.8 578,144.6 527.1,144.6 527.1,55.2 "/>
<polygon class="st0" points="594.3,55.2 594.3,157.8 660.7,157.8 660.7,144.6 609.8,144.6 609.8,55.2 "/>
<polygon class="st0" points="678.1,55.2 678.1,157.8 747,157.8 747,143.9 692.6,143.9 692.6,111.5 741.5,111.5 741.5,98.6 
	692.8,98.6 692.8,69.2 747,69.2 747,55.2 "/>
<polygon class="st0" points="840.5,55.2 840.5,69.2 808.7,69.2 808.7,157.8 793.1,157.8 793.1,69.4 759.7,69.4 759.7,55.2 "/>
<path class="st0" d="M104.8,157.2c-29,0-52.4-23.5-52.4-52.4c0-29,23.5-52.4,52.4-52.4c25.6,0,47.4,18.5,51.7,43.7h52.8
	C204.4,38.4,153.7-4.5,95.9,0.4S-4.6,56.1,0.2,113.8s55.6,100.6,113.4,95.7c51-4.3,91.4-44.7,95.7-95.7h-52.8
	C152.1,138.9,130.3,157.2,104.8,157.2z"/>
</svg>
