<svg width="1052" height="175" viewBox="0 0 1052 175" fill="none" xmlns="http://www.w3.org/2000/svg">
<g clip-path="url(#clip0_2775_11581)">
<path d="M247.29 1.26445C240.845 -1.34875 233.551 0.084293 228.633 4.9735L164.605 68.6175V103.179L233.212 35.0674V148.615H119.235L106.09 127.457L60.2109 173.061H240.76C250.173 173.061 257.805 165.474 257.805 156.118V17.0279C257.805 10.1156 253.65 3.96194 247.29 1.26445Z" fill="#2C2236"/>
<path d="M59.448 148.615L135.009 73.5067V143.642H159.602V55.3829C159.602 48.4706 155.447 42.3169 149.086 39.7037C142.641 37.0905 135.348 38.5236 130.429 43.4128L0 173.061H53.0028L77.5961 148.615H59.448Z" fill="#2C2236"/>
<path d="M852.031 172.724H931.239V155.106H871.875V120.881H931.239V103.601H871.875V68.4489H931.239V51.7582H852.031V172.724Z" fill="#2C2236"/>
<path d="M995.012 109.08L1030.63 51.7582H1010.36L991.789 81.5149C990.432 83.7909 989.16 85.9826 988.058 87.8372C986.955 89.776 986.022 91.5462 985.089 93.3165L983.817 90.9561C981.273 86.0669 979.492 82.948 978.56 81.3463L961.005 51.7582H940.228L975.167 109.417L935.648 172.724H956.595L977.881 138.162C979.153 136.055 980.34 134.032 981.443 132.009C982.545 129.986 983.563 128.047 984.496 126.192C986.362 129.817 988.397 133.695 990.687 137.825L991.026 138.415L1011.38 172.724H1033.26L995.012 109.08Z" fill="#2C2236"/>
<path d="M348.801 53.697H330.907L284.095 172.724H304.193L317.423 138.584H361.776L374.751 172.724H395.528L349.055 54.2871L348.801 53.697ZM324.292 120.207L339.811 79.4075L354.991 120.207H324.292Z" fill="#2C2236"/>
<path d="M542.833 138.837C540.374 143.979 536.897 148.025 532.572 150.891C528.247 153.673 523.244 155.106 517.901 155.106C509.845 155.106 503.06 152.24 497.633 146.592C492.205 140.944 489.491 133.695 489.491 125.096C489.491 116.667 492.205 109.417 497.548 103.685C502.891 97.9528 509.421 95.0867 517.053 95.0867C522.989 95.0867 528.162 96.3511 532.402 98.9643C536.643 101.578 540.205 105.539 542.918 110.766L543.173 111.272H562.678L562.254 110.007C558.777 99.723 553.18 91.6305 545.547 85.8984C537.915 80.1662 528.756 77.3001 518.41 77.3001C511.795 77.3001 505.435 78.5645 499.668 81.1777C493.816 83.7066 488.559 87.5843 483.894 92.4735C479.654 97.0255 476.432 102.083 474.311 107.563C472.107 113.042 471.089 119.027 471.089 125.265C471.089 131.334 472.276 137.404 474.651 143.304C477.025 149.121 480.417 154.347 484.573 158.731C488.983 163.367 494.071 166.908 499.583 169.184C505.095 171.544 511.286 172.64 517.986 172.64C528.671 172.64 537.915 169.774 545.378 164.21C552.84 158.646 558.522 150.301 562.338 139.511L562.762 138.247H543.257L542.833 138.837Z" fill="#2C2236"/>
<path d="M651.722 98.3743C647.313 91.7991 641.546 86.5727 634.761 82.8637C627.892 79.1546 620.43 77.3001 612.458 77.3001C605.758 77.3001 599.483 78.5645 593.886 81.0091C588.204 83.4537 583.116 87.2471 578.621 92.1363C574.381 96.6883 571.158 101.746 569.038 107.225C566.833 112.705 565.815 118.69 565.815 125.012C565.815 131.081 567.003 137.151 569.377 143.052C571.752 148.868 575.144 154.094 579.299 158.478C583.794 163.198 588.882 166.739 594.395 169.099C599.907 171.46 606.098 172.64 612.797 172.64C622.719 172.64 631.539 169.942 639.086 164.632C646.549 159.321 652.486 151.65 656.641 141.703L657.235 140.354H637.136L636.882 140.86C634.422 145.328 631.03 148.784 626.875 151.228C622.719 153.673 617.97 154.853 612.882 154.853C605.758 154.853 599.568 152.577 594.395 148.194C589.476 143.979 586.338 138.5 584.896 131.924H659.609V128.468C659.609 122.23 658.931 116.667 657.743 111.777C656.302 106.973 654.351 102.421 651.722 98.3743ZM585.32 115.824C587.271 109.501 590.578 104.444 595.243 100.735C600.161 96.7726 606.098 94.8338 612.882 94.8338C619.497 94.8338 625.179 96.7726 629.928 100.65C634.337 104.275 637.645 109.417 639.595 115.908H585.32V115.824Z" fill="#2C2236"/>
<path d="M823.536 91.5462C819.55 87.9215 815.31 85.1397 810.646 83.2009C805.388 81.0091 799.621 79.9133 793.516 79.9133C786.646 79.9133 780.371 81.0934 774.943 83.3695C769.516 85.6455 764.512 89.1859 759.933 93.9065C755.777 98.2057 752.47 103.263 750.265 108.911C748.06 114.559 746.873 120.629 746.873 126.951C746.873 140.523 751.452 151.987 760.442 161.007C769.431 170.026 780.88 174.579 794.448 174.579C800.3 174.579 805.812 173.483 810.985 171.207C815.48 169.268 819.635 166.57 823.367 163.03V172.724H841.515V51.7582H823.536V91.5462V91.5462ZM815.48 148.615C809.713 154.516 802.929 157.466 795.296 157.466C786.986 157.466 779.862 154.516 774.095 148.699C768.329 142.883 765.445 135.465 765.445 126.867C765.445 118.605 768.329 111.609 774.095 105.877C779.862 100.144 786.901 97.2784 794.957 97.2784C802.844 97.2784 809.798 100.313 815.48 106.298C821.247 112.283 824.13 119.533 824.13 127.962C824.215 135.802 821.247 142.714 815.48 148.615Z" fill="#2C2236"/>
<path d="M431.231 94.7495C431.825 94.6652 432.334 94.6652 433.012 94.6652C434.963 94.6652 436.743 95.0024 438.44 95.5082C442.256 96.8569 445.309 99.723 446.835 103.432H466.34C465.407 97.5313 462.185 92.2206 457.436 88.0901C455.655 86.2356 453.535 84.7182 451.075 83.4538C448.107 81.9364 444.715 80.8406 440.899 80.2505C438.44 79.7447 435.895 79.4918 433.266 79.4918C427.669 79.4918 422.327 80.5034 417.662 82.4422C417.238 82.6108 416.814 82.7794 416.39 82.948C416.136 83.0323 415.966 83.1166 415.712 83.2852C413.507 84.2967 411.472 85.4769 409.691 86.9099C403.585 91.7148 400.617 97.9528 400.617 105.624C400.617 111.272 402.482 116.077 406.129 120.039C409.86 124 416.306 127.878 425.549 131.671C427.161 132.43 429.535 133.273 432.588 134.369C441.662 137.741 446.157 141.703 446.157 146.423C446.157 149.964 444.885 152.746 442.341 154.769C439.796 156.792 436.319 157.803 431.825 157.803C426.652 157.803 422.412 156.708 419.104 154.432C419.019 154.347 418.934 154.347 418.765 154.263C415.627 151.987 413.253 148.699 412.32 144.653H393.493C393.663 148.531 394.935 152.156 396.97 155.612C400.023 161.091 404.094 165.222 409.097 168.003C414.44 170.954 421.055 172.555 428.941 172.724C429.111 172.724 429.281 172.724 429.365 172.724C429.62 172.724 429.874 172.724 430.213 172.724C441.238 172.724 449.973 170.279 456.248 165.39C462.524 160.501 465.662 153.757 465.662 145.159C465.662 139.174 463.966 134.285 460.489 130.238C457.012 126.277 451.33 122.736 443.358 119.533C441.577 118.774 439.118 117.847 435.811 116.751C425.549 113.042 420.461 108.996 420.461 104.444C420.461 103.769 420.546 103.179 420.631 102.505C422.666 98.4586 426.567 95.5082 431.231 94.7495Z" fill="#2C2236"/>
<path d="M703.708 79.6604C682.083 79.6604 664.528 97.1098 664.528 118.605V172.724H682.592V120.207C682.592 108.658 692.09 99.2172 703.708 99.2172C715.326 99.2172 724.824 108.658 724.824 120.207V172.724H742.888V118.605C742.888 97.1098 725.333 79.6604 703.708 79.6604Z" fill="#2C2236"/>
</g>
<defs>
<clipPath id="clip0_2775_11581">
<rect width="1052" height="175" fill="white"/>
</clipPath>
</defs>
</svg>
