<?xml version="1.0" encoding="utf-8"?>
<!-- Generator: Adobe Illustrator 19.2.1, SVG Export Plug-In . SVG Version: 6.00 Build 0)  -->
<svg version="1.1" id="layer" xmlns="http://www.w3.org/2000/svg" xmlns:xlink="http://www.w3.org/1999/xlink" x="0px" y="0px"
	 viewBox="0 0 652 652" style="enable-background:new 0 0 652 652;" xml:space="preserve">
<style type="text/css">
	.st0{fill:#1C2043;}
	.st1{fill:#028BD3;}
</style>
<g id="huobi-1">
	<g>
		<path id="Shape" class="st0" d="M245.8,276.5v50.7h-50.5V283c0-3.6-2.9-6.6-6.6-6.6h-17.1v121.3c0,3.6,2.9,6.6,6.6,6.6h17.1v-56.6
			h50.5v50c-0.1,3.6,2.8,6.6,6.5,6.7h0.1h17.1V283c0-3.6-2.9-6.6-6.6-6.6L245.8,276.5L245.8,276.5z M346,308.2V369
			c0.1,5.5-2.8,10.7-7.6,13.5c-13.4,7.7-27.2-2-27.2-14.6v-53.1c0-3.6-2.9-6.6-6.6-6.6h-17.1V370c0.1,19.9,16.2,36.1,36.2,36.2h9.7
			c20-0.1,36.2-16.2,36.3-36.2v-55.3c0-3.6-2.9-6.6-6.6-6.6H346z"/>
		<path id="Path" class="st1" d="M604.5,404.4h17.1v-86.1c0-3.6-2.9-6.6-6.6-6.6h-17.1l0,86.1C597.9,401.4,600.8,404.4,604.5,404.4
			L604.5,404.4z"/>
		
			<ellipse id="Oval" transform="matrix(0.3827 -0.9239 0.9239 0.3827 109.0249 742.045)" class="st1" cx="609.8" cy="289.4" rx="13.2" ry="13.2"/>
		<path id="Shape_1_" class="st0" d="M430.8,308.1c-24.8,0-45.1,17.7-45.1,42.4v13.4c0,24.7,20.3,42.3,45.1,42.3
			c24.8,0,45.1-17.6,45.1-42.3v-13.4C475.9,325.8,455.6,308.1,430.8,308.1z M452.1,365.5c0,11.7-9.6,19.5-21.3,19.5
			s-21.3-7.8-21.3-19.5v-16.7c0-11.7,9.6-19.5,21.3-19.5c11.7,0,21.3,7.8,21.3,19.5V365.5z"/>
		<path id="Shape_2_" class="st1" d="M536.9,308.1c-7.4-0.1-14.7,1.6-21.4,4.8v-29.8c0-3.6-2.9-6.6-6.6-6.6h-17.1v87.3
			c0,24.7,20.3,42.3,45.1,42.3s45.1-17.6,45.1-42.3v-13.4C582,325.8,561.8,308.1,536.9,308.1z M558.3,365.5
			c0,11.7-9.6,19.5-21.3,19.5c-11.7,0-21.3-7.8-21.3-19.5v-16.7c0-11.7,9.6-19.5,21.3-19.5s21.3,7.8,21.3,19.5V365.5z"/>
		<path id="Path_1_" class="st0" d="M100.1,286.9c0-25.8-12.6-48-22.2-55.2c0,0-0.7-0.4-0.7,0.6c-0.8,49.8-26.3,63.3-40.3,81.4
			c-32.3,41.9-2.3,87.9,28.4,96.4c17.1,4.8-4-8.4-6.7-36.2C55.3,340.5,100.1,314.8,100.1,286.9z"/>
		<path id="Path_2_" class="st1" d="M114.8,303.9c-0.2-0.1-0.5-0.2-0.7,0.1c-0.5,6.3-6.9,19.7-15.1,32c-27.6,41.7-11.9,61.9-3,72.7
			c5.1,6.3,0,0,12.8-6.4c15.8-9.6,26.1-26.2,27.6-44.6C139,328,121.1,309.3,114.8,303.9L114.8,303.9z"/>
	</g>
</g>
</svg>
