<svg width="763" height="310" viewBox="0 0 763 310" fill="none" xmlns="http://www.w3.org/2000/svg">
<path d="M367.28 179.92C367.28 184.293 368.027 188.027 369.52 191.12C371.013 194.213 373.093 196.773 375.76 198.8C378.427 200.72 381.467 202.16 384.88 203.12C388.4 203.973 392.187 204.4 396.24 204.4C400.613 204.4 404.347 203.92 407.44 202.96C410.533 201.893 413.04 200.56 414.96 198.96C416.88 197.36 418.267 195.547 419.12 193.52C419.973 191.387 420.4 189.253 420.4 187.12C420.4 182.747 419.387 179.547 417.36 177.52C415.44 175.387 413.307 173.893 410.96 173.04C406.907 171.547 402.16 170.16 396.72 168.88C391.387 167.493 384.773 165.733 376.88 163.6C371.973 162.32 367.867 160.667 364.56 158.64C361.36 156.507 358.8 154.16 356.88 151.6C354.96 149.04 353.573 146.32 352.72 143.44C351.973 140.56 351.6 137.627 351.6 134.64C351.6 128.88 352.773 123.92 355.12 119.76C357.573 115.493 360.773 111.973 364.72 109.2C368.667 106.427 373.147 104.4 378.16 103.12C383.173 101.733 388.24 101.04 393.36 101.04C399.333 101.04 404.933 101.84 410.16 103.44C415.493 104.933 420.133 107.227 424.08 110.32C428.133 113.413 431.333 117.253 433.68 121.84C436.027 126.32 437.2 131.547 437.2 137.52H417.2C416.667 130.16 414.16 124.987 409.68 122C405.2 118.907 399.493 117.36 392.56 117.36C390.213 117.36 387.813 117.627 385.36 118.16C382.907 118.587 380.667 119.387 378.64 120.56C376.613 121.627 374.907 123.12 373.52 125.04C372.24 126.96 371.6 129.36 371.6 132.24C371.6 136.293 372.827 139.493 375.28 141.84C377.84 144.08 381.147 145.787 385.2 146.96C385.627 147.067 387.28 147.547 390.16 148.4C393.147 149.147 396.453 150 400.08 150.96C403.707 151.92 407.227 152.88 410.64 153.84C414.16 154.693 416.667 155.333 418.16 155.76C421.893 156.933 425.147 158.533 427.92 160.56C430.693 162.587 432.987 164.933 434.8 167.6C436.72 170.16 438.107 172.933 438.96 175.92C439.92 178.907 440.4 181.893 440.4 184.88C440.4 191.28 439.067 196.773 436.4 201.36C433.84 205.84 430.427 209.52 426.16 212.4C421.893 215.28 417.04 217.36 411.6 218.64C406.16 220.027 400.613 220.72 394.96 220.72C388.453 220.72 382.32 219.92 376.56 218.32C370.8 216.72 365.787 214.267 361.52 210.96C357.253 207.653 353.84 203.44 351.28 198.32C348.72 193.093 347.387 186.96 347.28 179.92H367.28ZM456.63 103.76H476.63V170.32C476.63 174.16 476.79 178.053 477.11 182C477.537 185.947 478.603 189.52 480.31 192.72C482.123 195.813 484.79 198.373 488.31 200.4C491.937 202.427 497.003 203.44 503.51 203.44C510.017 203.44 515.03 202.427 518.55 200.4C522.177 198.373 524.843 195.813 526.55 192.72C528.363 189.52 529.43 185.947 529.75 182C530.177 178.053 530.39 174.16 530.39 170.32V103.76H550.39V176.88C550.39 184.24 549.27 190.64 547.03 196.08C544.79 201.52 541.59 206.107 537.43 209.84C533.377 213.467 528.47 216.187 522.71 218C516.95 219.813 510.55 220.72 503.51 220.72C496.47 220.72 490.07 219.813 484.31 218C478.55 216.187 473.59 213.467 469.43 209.84C465.377 206.107 462.23 201.52 459.99 196.08C457.75 190.64 456.63 184.24 456.63 176.88V103.76ZM572.579 103.76H593.699L645.859 187.92H646.179V103.76H665.219V218H644.099L592.099 134H591.619V218H572.579V103.76Z" fill="#120222"/>
<circle cx="155" cy="155" r="155" fill="url(#paint0_linear)"/>
<mask id="mask0" mask-type="alpha" maskUnits="userSpaceOnUse" x="0" y="0" width="310" height="310">
<circle cx="155" cy="155" r="155" fill="white"/>
</mask>
<g mask="url(#mask0)">
<path d="M151.725 -37V71" stroke="white" stroke-width="7"/>
<path d="M135.725 -37V71" stroke="white" stroke-width="7"/>
<path d="M172.725 -37V71" stroke="white" stroke-width="7"/>
<path d="M84 -15.962L119.018 49.3527V-25" stroke="white" stroke-width="7"/>
<path d="M224.018 -17.962L189 47.3527V-27" stroke="white" stroke-width="7"/>
<path d="M157.275 361V253" stroke="white" stroke-width="7"/>
<path d="M173.275 361V253" stroke="white" stroke-width="7"/>
<path d="M136.275 361V253" stroke="white" stroke-width="7"/>
<path d="M226.018 341.315L191 276V350.353" stroke="white" stroke-width="7"/>
<path d="M84 342.315L119.018 277V351.353" stroke="white" stroke-width="7"/>
<path d="M-44.5 164.775H63.5" stroke="white" stroke-width="7"/>
<path d="M-44.5 180.775H63.5" stroke="white" stroke-width="7"/>
<path d="M-44.5 143.775H63.5" stroke="white" stroke-width="7"/>
<path d="M-25.962 233.018L39.3527 198H-35" stroke="white" stroke-width="7"/>
<path d="M-18.962 95L46.3527 130.018H-28" stroke="white" stroke-width="7"/>
<path d="M353.5 159.225L245.5 159.225" stroke="white" stroke-width="7"/>
<path d="M353.5 143.225L245.5 143.225" stroke="white" stroke-width="7"/>
<path d="M353.5 180.225L245.5 180.225" stroke="white" stroke-width="7"/>
<path d="M331.315 91L266 126.018L340.353 126.018" stroke="white" stroke-width="7"/>
<path d="M335.315 232.018L270 197H344.353" stroke="white" stroke-width="7"/>
<path d="M15.7476 304.676L92.1152 228.309" stroke="white" stroke-width="7"/>
<path d="M27.0614 315.99L103.429 239.622" stroke="white" stroke-width="7"/>
<path d="M0.8984 289.827L77.2659 213.459" stroke="white" stroke-width="7"/>
<path d="M81.1522 339.946L102.575 269L50 321.575" stroke="white" stroke-width="7"/>
<path d="M-22.6092 237.185L48.3366 215.761L-4.23869 268.337" stroke="white" stroke-width="7"/>
<path d="M293.252 19.3239L216.885 95.6914" stroke="white" stroke-width="7"/>
<path d="M281.939 8.01011L205.571 84.3776" stroke="white" stroke-width="7"/>
<path d="M308.102 34.1731L231.734 110.541" stroke="white" stroke-width="7"/>
<path d="M230.185 -13.6092L208.761 57.3366L261.337 4.76125" stroke="white" stroke-width="7"/>
<path d="M330.946 85.152L260 106.575L312.575 53.9999" stroke="white" stroke-width="7"/>
<path d="M297.176 300.752L220.809 224.385" stroke="white" stroke-width="7"/>
<path d="M308.49 289.439L232.122 213.071" stroke="white" stroke-width="7"/>
<path d="M282.327 315.602L205.959 239.234" stroke="white" stroke-width="7"/>
<path d="M332.946 237.185L262 215.761L314.575 268.337" stroke="white" stroke-width="7"/>
<path d="M231.185 338.946L209.761 268L262.337 320.575" stroke="white" stroke-width="7"/>
<path d="M11.8238 23.2476L88.1913 99.6152" stroke="white" stroke-width="7"/>
<path d="M0.510048 34.5614L76.8776 110.929" stroke="white" stroke-width="7"/>
<path d="M26.673 8.39834L103.041 84.7659" stroke="white" stroke-width="7"/>
<path d="M-17.6093 90.152L53.3365 111.575L0.761187 58.9999" stroke="white" stroke-width="7"/>
<path d="M80.152 -10.6092L101.575 60.3366L48.9999 7.76131" stroke="white" stroke-width="7"/>
</g>
<circle cx="154.5" cy="155.5" r="106.5" fill="#F8BA3A" stroke="white" stroke-width="6"/>
<mask id="mask1" mask-type="alpha" maskUnits="userSpaceOnUse" x="46" y="46" width="219" height="219">
<circle cx="155.5" cy="155.5" r="106.5" fill="white" stroke="white" stroke-width="6"/>
</mask>
<g mask="url(#mask1)">
<path fill-rule="evenodd" clip-rule="evenodd" d="M160.5 45L146.5 157.5H160.5L155 261.266L257.031 243L275.544 100.541L230.577 61L160.5 45Z" fill="white"/>
</g>
<path d="M56.5469 141.417C58.9556 161.034 71.7172 181.444 91.3293 179.036C157.892 170.863 148.539 128.09 147.643 114.236C152.46 153.471 182.258 167.871 232.18 161.742C247.038 159.917 253.124 130.879 251.479 117.482C249.423 100.735 205.084 98.2871 149.814 105.073C94.5432 111.86 53.536 116.895 56.5469 141.417Z" fill="#01C1AE" stroke="#01C1AE" stroke-width="11" stroke-linecap="round" stroke-linejoin="round"/>
<path d="M156.121 222.816C179.311 220.924 196.708 202.202 194.979 181L111 187.852C112.73 209.054 132.931 224.708 156.121 222.816Z" fill="white" stroke="#FE9D51" stroke-width="5" stroke-linejoin="round"/>
<path d="M167 200H190" stroke="#FE9A54" stroke-width="4" stroke-linecap="round" stroke-linejoin="round"/>
<path d="M179.5 152.5C161.5 145.7 154.333 127.667 153 119.5C153 108.5 165.5 107 196 107C226.5 107 245 109.5 246.5 117.5C248 131.5 243 152.5 236 156C229 159.5 202 161 179.5 152.5Z" fill="black" stroke="black"/>
<path d="M126.555 161.878C141 152.358 148.5 134 144 118.5C141.437 109.672 127.365 111.837 101 116C77.5 119.711 59.5 130 61.5 139C62.4995 153.746 73.8751 169.32 80.5 172C87.125 174.68 108.5 173.777 126.555 161.878Z" fill="black" stroke="black"/>
<path d="M251.5 72L260.278 95.722L284 104.5L260.278 113.278L251.5 137L242.722 113.278L219 104.5L242.722 95.722L251.5 72Z" fill="white"/>
<defs>
<linearGradient id="paint0_linear" x1="155" y1="0" x2="155" y2="310" gradientUnits="userSpaceOnUse">
<stop stop-color="#F5B745"/>
<stop offset="1" stop-color="#FC8B47"/>
</linearGradient>
</defs>
</svg>
